<?xml version="1.0" encoding="UTF-8" standalone="no"?>
<!-- icon666.com - MILLIONS OF FREE VECTOR ICONS -->

<svg
   version="1.1"
   id="Layer_1"
   x="0px"
   y="0px"
   viewBox="0 0 512 512"
   style="enable-background:new 0 0 512 512;"
   xml:space="preserve"
   sodipodi:docname="camcorder.svg"
   inkscape:version="1.4 (e7c3feb1, 2024-10-09)"
   xmlns:inkscape="http://www.inkscape.org/namespaces/inkscape"
   xmlns:sodipodi="http://sodipodi.sourceforge.net/DTD/sodipodi-0.dtd"
   xmlns="http://www.w3.org/2000/svg"
   xmlns:svg="http://www.w3.org/2000/svg"><defs
     id="defs6" /><sodipodi:namedview
     id="namedview6"
     pagecolor="#ffffff"
     bordercolor="#000000"
     borderopacity="0.25"
     inkscape:showpageshadow="2"
     inkscape:pageopacity="0.0"
     inkscape:pagecheckerboard="0"
     inkscape:deskcolor="#d1d1d1"
     inkscape:zoom="0.6171875"
     inkscape:cx="256"
     inkscape:cy="256"
     inkscape:window-width="1416"
     inkscape:window-height="833"
     inkscape:window-x="0"
     inkscape:window-y="38"
     inkscape:window-maximized="0"
     inkscape:current-layer="g3" /><g
     id="g2"
     style="fill:#e2e6e6;fill-opacity:1"><g
       id="g1"
       style="fill:#e2e6e6;fill-opacity:1"><circle
         cx="100.046"
         cy="120.644"
         r="100.046"
         id="circle1"
         style="fill:#e2e6e6;fill-opacity:1" /></g></g><g
     id="g4"><g
       id="g3"><path
         d="M100.046,256c-30.978,0-59.554-10.47-82.391-28.042v228.134c0,19.501,15.81,35.31,35.31,35.31h94.161 c19.501,0,35.31-15.81,35.31-35.31V227.958C159.6,245.53,131.024,256,100.046,256z M116.694,431.542 c-4.448,4.447-10.359,6.895-16.648,6.895c-12.979,0-23.539-10.56-23.539-23.54c0-12.979,10.558-23.538,23.534-23.538 c12.986,0,23.545,10.559,23.545,23.538C123.591,421.177,121.143,427.092,116.694,431.542z M129.471,338.391H70.621v-35.31h58.851 V338.391z"
         id="path2"
         style="fill:#e2e6e6;fill-opacity:1" /></g></g><g
     id="g6"
     style="fill:#e2e6e6;fill-opacity:1"><g
       id="g5"
       style="fill:#e2e6e6;fill-opacity:1"><path
         d="M476.69,208.92H288.368c-19.501,0-35.31,15.81-35.31,35.31h-35.31v153.012h35.31c0,19.501,15.81,35.31,35.31,35.31H476.69 c19.501,0,35.31-15.81,35.31-35.31V244.23C512,224.729,496.19,208.92,476.69,208.92z M347.218,391.356V250.115l94.161,70.621 L347.218,391.356z"
         id="path4"
         style="fill:#e2e6e6;fill-opacity:1" /></g></g></svg>
