<!-- icon666.com - MILLIONS OF FREE VECTOR ICONS --><svg viewBox="0 -80 512 512" xmlns="http://www.w3.org/2000/svg"><path d="m504.484375 336.65625h-16.53125v-67.890625c0-4.152344-3.363281-7.515625-7.515625-7.515625-4.148438 0-7.515625 3.363281-7.515625 7.515625v67.890625h-129.25v-10.253906c9.308594-3.144532 16.03125-11.953125 16.03125-22.308594 0-11.214844-14.066406-25.414062-18.378906-29.5-2.898438-2.746094-7.4375-2.746094-10.335938 0-4.3125 4.085938-18.378906 18.285156-18.378906 29.5 0 10.355469 6.722656 19.164062 16.03125 22.308594v10.253906h-17.03125v-129.25h161.3125v25.289062c0 4.148438 3.367187 7.511719 7.515625 7.511719 4.152344 0 7.515625-3.363281 7.515625-7.511719v-32.804687c0-4.152344-3.363281-7.515625-7.515625-7.515625h-16.53125v-84.53125l21.1875 10.59375c3.914062 1.960938 8.777344.0625 10.363281-3.996094 1.394531-3.570312-.21875-7.734375-3.640625-9.445312l-27.910156-13.953125v-35.433594c0-4.152344-3.363281-7.515625-7.515625-7.515625-4.148437 0-7.515625 3.363281-7.515625 7.515625v35.433594l-27.90625 13.953125c-3.425781 1.714844-5.03125 5.871094-3.644531 9.445312 1.582031 4.066406 6.457031 5.949219 10.367187 3.996094l21.183594-10.59375v84.53125h-25.046875v-10.253906c9.308594-3.144532 16.03125-11.953125 16.03125-22.308594 0-11.214844-14.066406-25.414062-18.378906-29.5-2.898438-2.75-7.4375-2.75-10.335938 0-4.3125 4.085938-18.378906 18.285156-18.378906 29.5 0 10.355469 6.726563 19.164062 16.03125 22.308594v10.253906h-33.0625v-108.578125l21.1875 10.59375c3.914063 1.960937 8.777344.0625 10.363281-4 1.394532-3.566406-.21875-7.730469-3.640625-9.441406l-27.910156-13.953125v-35.433594c0-4.152344-3.363281-7.515625-7.515625-7.515625s-7.515625 3.363281-7.515625 7.515625v35.433594l-27.90625 13.953125c-3.425781 1.714843-5.03125 5.871093-3.644531 9.441406 1.582031 4.070313 6.457031 5.953125 10.367187 4l21.183594-10.59375v108.578125h-49.09375v-40.578125c0-4.152344-3.363281-7.515625-7.515625-7.515625h-8.515625v-10.253906c9.308594-3.144532 16.03125-11.953125 16.03125-22.308594 0-11.214844-14.066406-25.417969-18.378906-29.5-2.898438-2.75-7.4375-2.75-10.335938 0-4.3125 4.082031-18.378906 18.285156-18.378906 29.5 0 10.355469 6.722656 19.164062 16.03125 22.308594v10.253906h-49.09375v-10.253906c9.308594-3.144532 16.03125-11.953125 16.03125-22.308594 0-11.214844-14.066406-25.417969-18.378906-29.5-2.898438-2.75-7.441407-2.75-10.335938 0-4.3125 4.082031-18.378906 18.285156-18.378906 29.5 0 10.355469 6.722656 19.164062 16.03125 22.308594v10.253906h-8.515625c-4.152344 0-7.515625 3.363281-7.515625 7.515625v40.578125h-41.078125v-132.625l21.1875 10.59375c3.914062 1.960938 8.777344.0625 10.363281-4 1.394531-3.566406-.222656-7.730469-3.644531-9.441406l-27.90625-13.953125v-35.433594c0-4.152344-3.363281-7.515625-7.515625-7.515625s-7.515625 3.363281-7.515625 7.515625v35.433594l-27.90625 13.953125c-3.429688 1.714844-5.03125 5.871094-3.644531 9.441406 1.578125 4.070312 6.457031 5.953125 10.363281 4l21.1875-10.59375v132.625h-33.0625v-10.253906c9.308594-3.144532 16.03125-11.953125 16.03125-22.308594 0-11.214844-14.066406-25.414062-18.378906-29.5-2.898438-2.75-7.441406-2.75-10.335938 0-4.3125 4.085938-18.378906 18.285156-18.378906 29.5 0 10.355469 6.722656 19.164062 16.03125 22.308594v10.253906h-25.046875v-84.53125l21.1875 10.59375c3.910156 1.960938 8.773437.0625 10.363281-3.996094 1.394532-3.570312-.222656-7.734375-3.644531-9.445312l-27.90625-13.953125v-35.433594c0-4.152344-3.367187-7.515625-7.515625-7.515625-4.152344 0-7.515625 3.363281-7.515625 7.515625v35.433594l-27.910156 13.953125c-3.425781 1.714844-5.027344 5.871094-3.640625 9.445312 1.578125 4.066406 6.457031 5.949219 10.363281 3.996094l21.1875-10.59375v84.53125h-24.546875c-4.152344 0-7.515625 3.363281-7.515625 7.515625v136.765625h-16.53125c-4.152344 0-7.515625 3.363281-7.515625 7.515625s3.363281 7.515625 7.515625 7.515625h496.96875c4.152344 0 7.515625-3.363281 7.515625-7.515625s-3.363281-7.515625-7.515625-7.515625zm-168.324219-45.761719c4.78125 5.441407 8.484375 11.015625 8.511719 13.199219 0 4.695312-3.820313 8.515625-8.515625 8.515625s-8.515625-3.820313-8.515625-8.515625c.027344-2.171875 3.738281-7.75 8.519531-13.199219zm80.15625-144.28125c4.78125 5.441407 8.484375 11.015625 8.511719 13.199219 0 4.695312-3.820313 8.515625-8.515625 8.515625s-8.515625-3.820313-8.515625-8.515625c.027344-2.171875 3.738281-7.75 8.519531-13.199219zm-128.25-48.097656c4.78125 5.445313 8.484375 11.019531 8.511719 13.203125 0 4.695312-3.820313 8.515625-8.515625 8.515625s-8.515625-3.820313-8.515625-8.515625c.027344-2.171875 3.738281-7.75 8.519531-13.203125zm-64.125 0c4.78125 5.445313 8.484375 11.019531 8.511719 13.203125 0 4.695312-3.820313 8.515625-8.515625 8.515625s-8.515625-3.820313-8.515625-8.515625c.027344-2.171875 3.734375-7.75 8.519531-13.203125zm-120.234375 48.097656c4.78125 5.441407 8.480469 11.015625 8.511719 13.199219 0 4.695312-3.820312 8.515625-8.515625 8.515625s-8.515625-3.820313-8.515625-8.515625c.027344-2.171875 3.734375-7.75 8.519531-13.199219zm-64.628906 60.792969h161.3125v129.25h-17.03125v-10.253906c9.308594-3.144532 16.03125-11.953125 16.03125-22.308594 0-11.214844-14.066406-25.414062-18.378906-29.5-2.898438-2.746094-7.441407-2.746094-10.335938 0-4.3125 4.085938-18.378906 18.285156-18.378906 29.5 0 10.355469 6.722656 19.164062 16.03125 22.308594v10.253906h-129.25zm136.765625 105.203125c-4.695312 0-8.515625-3.820313-8.515625-8.515625.027344-2.171875 3.734375-7.75 8.519531-13.199219 4.78125 5.441407 8.480469 11.015625 8.511719 13.199219 0 4.695312-3.820313 8.515625-8.515625 8.515625zm39.578125 24.046875v-177.34375h81.15625v177.34375zm0 0"></path><path d="m280.046875 176.34375c-4.152344 0-7.515625 3.363281-7.515625 7.515625v8.015625c0 4.152344 3.363281 7.515625 7.515625 7.515625s7.515625-3.363281 7.515625-7.515625v-8.015625c0-4.152344-3.363281-7.515625-7.515625-7.515625zm0 0"></path><path d="m256 176.34375c-4.152344 0-7.515625 3.363281-7.515625 7.515625v8.015625c0 4.152344 3.363281 7.515625 7.515625 7.515625s7.515625-3.363281 7.515625-7.515625v-8.015625c0-4.152344-3.363281-7.515625-7.515625-7.515625zm0 0"></path><path d="m231.953125 176.34375c-4.152344 0-7.515625 3.363281-7.515625 7.515625v8.015625c0 4.152344 3.363281 7.515625 7.515625 7.515625s7.515625-3.363281 7.515625-7.515625v-8.015625c0-4.152344-3.363281-7.515625-7.515625-7.515625zm0 0"></path><path d="m280.046875 216.421875c-4.152344 0-7.515625 3.363281-7.515625 7.515625v8.015625c0 4.152344 3.363281 7.515625 7.515625 7.515625s7.515625-3.363281 7.515625-7.515625v-8.015625c0-4.152344-3.363281-7.515625-7.515625-7.515625zm0 0"></path><path d="m256 216.421875c-4.152344 0-7.515625 3.363281-7.515625 7.515625v8.015625c0 4.152344 3.363281 7.515625 7.515625 7.515625s7.515625-3.363281 7.515625-7.515625v-8.015625c0-4.152344-3.363281-7.515625-7.515625-7.515625zm0 0"></path><path d="m231.953125 216.421875c-4.152344 0-7.515625 3.363281-7.515625 7.515625v8.015625c0 4.152344 3.363281 7.515625 7.515625 7.515625s7.515625-3.363281 7.515625-7.515625v-8.015625c0-4.152344-3.363281-7.515625-7.515625-7.515625zm0 0"></path><path d="m280.046875 256.5c-4.152344 0-7.515625 3.363281-7.515625 7.515625v8.015625c0 4.152344 3.363281 7.515625 7.515625 7.515625s7.515625-3.363281 7.515625-7.515625v-8.015625c0-4.152344-3.363281-7.515625-7.515625-7.515625zm0 0"></path><path d="m256 256.5c-4.152344 0-7.515625 3.363281-7.515625 7.515625v8.015625c0 4.152344 3.363281 7.515625 7.515625 7.515625s7.515625-3.363281 7.515625-7.515625v-8.015625c0-4.152344-3.363281-7.515625-7.515625-7.515625zm0 0"></path><path d="m231.953125 256.5c-4.152344 0-7.515625 3.363281-7.515625 7.515625v8.015625c0 4.152344 3.363281 7.515625 7.515625 7.515625s7.515625-3.363281 7.515625-7.515625v-8.015625c0-4.152344-3.363281-7.515625-7.515625-7.515625zm0 0"></path><path d="m280.046875 296.578125c-4.152344 0-7.515625 3.363281-7.515625 7.515625v8.015625c0 4.152344 3.363281 7.515625 7.515625 7.515625s7.515625-3.363281 7.515625-7.515625v-8.015625c0-4.152344-3.363281-7.515625-7.515625-7.515625zm0 0"></path><path d="m256 296.578125c-4.152344 0-7.515625 3.363281-7.515625 7.515625v8.015625c0 4.152344 3.363281 7.515625 7.515625 7.515625s7.515625-3.363281 7.515625-7.515625v-8.015625c0-4.152344-3.363281-7.515625-7.515625-7.515625zm0 0"></path><path d="m231.953125 296.578125c-4.152344 0-7.515625 3.363281-7.515625 7.515625v8.015625c0 4.152344 3.363281 7.515625 7.515625 7.515625s7.515625-3.363281 7.515625-7.515625v-8.015625c0-4.152344-3.363281-7.515625-7.515625-7.515625zm0 0"></path><path d="m448.375 224.4375h-112.21875c-4.152344 0-7.515625 3.363281-7.515625 7.515625s3.363281 7.515625 7.515625 7.515625h112.21875c4.152344 0 7.515625-3.363281 7.515625-7.515625s-3.363281-7.515625-7.515625-7.515625zm0 0"></path><path d="m448.375 264.515625h-88.171875c-4.152344 0-7.515625 3.363281-7.515625 7.515625s3.363281 7.515625 7.515625 7.515625h88.171875c4.152344 0 7.515625-3.363281 7.515625-7.515625s-3.363281-7.515625-7.515625-7.515625zm0 0"></path><path d="m448.375 304.59375h-72.140625c-4.152344 0-7.515625 3.363281-7.515625 7.515625s3.363281 7.515625 7.515625 7.515625h72.140625c4.152344 0 7.515625-3.363281 7.515625-7.515625s-3.363281-7.515625-7.515625-7.515625zm0 0"></path><path d="m63.625 239.46875h112.21875c4.152344 0 7.515625-3.363281 7.515625-7.515625s-3.363281-7.515625-7.515625-7.515625h-112.21875c-4.152344 0-7.515625 3.363281-7.515625 7.515625s3.363281 7.515625 7.515625 7.515625zm0 0"></path><path d="m159.3125 272.03125c0-4.152344-3.363281-7.515625-7.515625-7.515625h-88.171875c-4.152344 0-7.515625 3.363281-7.515625 7.515625s3.363281 7.515625 7.515625 7.515625h88.171875c4.152344 0 7.515625-3.363281 7.515625-7.515625zm0 0"></path><path d="m135.765625 304.59375h-72.140625c-4.152344 0-7.515625 3.363281-7.515625 7.515625s3.363281 7.515625 7.515625 7.515625h72.140625c4.152344 0 7.515625-3.363281 7.515625-7.515625s-3.363281-7.515625-7.515625-7.515625zm0 0"></path></svg>