<?xml version="1.0" encoding="UTF-8" standalone="no"?>
<!-- icon666.com - MILLIONS OF FREE VECTOR ICONS -->

<svg
   version="1.1"
   id="Capa_1"
   x="0px"
   y="0px"
   viewBox="0 0 303.454 303.454"
   style="enable-background:new 0 0 303.454 303.454;"
   xml:space="preserve"
   sodipodi:docname="clapperboard.svg"
   inkscape:version="1.4 (e7c3feb1, 2024-10-09)"
   xmlns:inkscape="http://www.inkscape.org/namespaces/inkscape"
   xmlns:sodipodi="http://sodipodi.sourceforge.net/DTD/sodipodi-0.dtd"
   xmlns="http://www.w3.org/2000/svg"
   xmlns:svg="http://www.w3.org/2000/svg"><defs
     id="defs4" /><sodipodi:namedview
     id="namedview4"
     pagecolor="#ffffff"
     bordercolor="#000000"
     borderopacity="0.25"
     inkscape:showpageshadow="2"
     inkscape:pageopacity="0.0"
     inkscape:pagecheckerboard="0"
     inkscape:deskcolor="#d1d1d1"
     inkscape:zoom="1.1995228"
     inkscape:cx="151.72701"
     inkscape:cy="151.72701"
     inkscape:window-width="1464"
     inkscape:window-height="787"
     inkscape:window-x="0"
     inkscape:window-y="38"
     inkscape:window-maximized="0"
     inkscape:current-layer="g4" /><g
     id="g4"><polygon
       points="266.708,103.74 303.454,140.486 303.454,103.74 "
       id="polygon1"
       style="fill:#e6e6e6" /><path
       d="M210.138,103.74h-47.93l60.812,60.812h-56.57l-60.812-60.812h-50.93l60.812,60.812H58.95L6.429,112.031 c-0.624,1.539-0.975,3.218-0.975,4.981v165.134c0,9.205,7.462,16.667,16.667,16.667h264.666c9.205,0,16.667-7.462,16.667-16.667 V164.552H270.95L210.138,103.74z"
       id="path1"
       style="fill:#e6e6e6" /><polygon
       points="253.32,4.641 202.915,11.944 151.45,80.846 201.856,73.544 "
       id="polygon2"
       style="fill:#e6e6e6" /><polygon
       points="146.93,20.055 99.495,26.927 48.03,95.83 95.466,88.957 "
       id="polygon3"
       style="fill:#e6e6e6" /><path
       d="M299.973,45.918l-4.477-30.902l-37.657,50.417l30.902-4.477C295.995,59.905,301.024,53.173,299.973,45.918z"
       id="path3"
       style="fill:#e6e6e6" /><path
       d="M 43.51,35.038 11.37,39.694 C 4.117,40.745 -0.912,47.478 0.139,54.732 l 4.086,28.204 0.57,3.936 13.298,-17.804 z"
       id="path4"
       sodipodi:nodetypes="ccccccc"
       style="fill:#e6e6e6" /></g></svg>
