<!-- icon666.com - MILLIONS OF FREE VECTOR ICONS --><svg enable-background="new 0 0 512 512" viewBox="0 0 512 512" xmlns="http://www.w3.org/2000/svg"><g id="_x32_3_Clouds"><g><path d="m450.547 407.949c0 49.936-57.293 77.508-96.398 47.632-17.705 29.991-50.341 50.09-87.641 50.09s-69.936-20.099-87.641-50.09c-38.774 29.807-96.462 2.51-96.462-47.632 0-33.141 26.904-59.981 59.981-59.981h.252c-4.629-49.428 36.171-97.218 90.791-97.218 33.393 0 62.565 17.956 78.379 44.734 38.384-22.911 86.721 8.53 81.214 52.547 32.008 1.26 57.525 27.596 57.525 59.918z" fill="#d7e9ff"></path><g fill="#116fff"><path d="m142.099 431.283c20.256 29.253 53.967 47.124 89.768 47.124 35.808 0 69.527-17.879 89.783-47.139 44.326 26.294 101.632-5.471 101.632-57.958 0-33.755-24.535-61.682-57.101-66.581.007-20.342-10.2-39.323-27.754-50.784-17.828-11.641-39.719-13.297-58.686-4.747-18.242-26.357-48.651-42.464-80.951-42.464-56.513 0-98.898 47.214-98.52 97.627-33.632 3.731-59.878 32.336-59.878 66.948-.001 52.561 57.579 84.274 101.707 57.974zm-40.565-110.147c1.343 9.402 4.014 18.703 8.157 27.59 4.105 8.801 17.52 2.671 13.369-6.238-25.691-55.101 14.445-118.999 75.729-118.999 29.451 0 57.051 15.754 72.026 41.109 2.068 3.481 6.59 4.7 10.135 2.579 15.61-9.321 34.072-8.889 49.408 1.117 15.185 9.919 22.928 26.436 20.71 44.185-.542 4.277 2.717 8.119 7.03 8.284 28.28 1.117 50.431 24.196 50.431 52.548 0 44.266-50.614 67.709-84.538 41.765-3.645-2.769-8.656-1.572-10.834 2.111-16.921 28.662-48.068 46.469-81.29 46.469s-64.369-17.807-81.286-46.469c-2.263-3.815-7.337-4.788-10.848-2.096-33.67 25.874-84.589 2.619-84.589-41.779 0-26.834 20.206-48.997 46.39-52.176z" fill="#116fff" style="fill: rgb(215, 241, 242);"></path><path d="m471.609 183.748c0-17.713-12.159-32.53-28.749-36.42-.922-10.25-6.469-19.6-15.43-25.457-9.155-5.979-20.191-7.232-30.146-3.782-9.955-12.772-25.442-20.479-41.837-20.479-28.194 0-51.408 22.372-52.966 49.437-17.13 3.422-30.081 18.577-30.081 36.701 0 28.077 29.439 45.384 53.564 33.798 10.971 14.061 28.021 22.546 46.051 22.546 18.044 0 35.095-8.486 46.058-22.554 24.276 11.609 53.536-5.81 53.536-33.79zm-62.035 20.119c-7.816 13.247-22.208 21.473-37.558 21.473s-29.743-8.226-37.558-21.48c-2.245-3.797-7.325-4.797-10.848-2.096-14.412 11.105-36.456 1.192-36.456-18.016 0-12.505 10.171-22.676 22.799-22.676 4.361 0 7.739-3.757 7.347-8.061-1.908-20.33 14.984-40.648 38.149-40.648 13.456 0 26.069 7.196 32.912 18.786 2.071 3.487 6.609 4.703 10.135 2.579 6.584-3.919 14.392-3.739 20.861.49 6.404 4.185 9.667 11.136 8.73 18.599-.542 4.277 2.717 8.119 7.03 8.284 12.188.475 21.74 10.423 21.74 22.647 0 18.96-21.71 29.287-36.449 18.001-3.572-2.713-8.607-1.649-10.834 2.118z" fill="#116fff" style="fill: rgb(215, 241, 242);"></path><path d="m86.093 62.623c-19.485 3.494-34.32 20.573-34.32 41.052 0 15.963 8.903 30.268 23.234 37.328 12.004 5.9 25.684 5.77 37.216-.043 12.307 16.208 31.727 26.018 52.293 26.018 20.569 0 39.993-9.811 52.307-26.033 27.142 13.698 60.396-5.814 60.396-37.27 0-19.996-13.906-36.694-32.772-40.757-.81-11.684-7.034-22.402-17.22-29.051-10.384-6.786-22.964-8.133-34.212-3.94-11.151-14.702-28.767-23.598-47.43-23.598-33.281 0-58.227 26.843-59.492 56.294zm59.492-41.541c15.747 0 30.499 8.421 38.509 21.977 1.998 3.376 6.484 4.766 10.132 2.579 7.87-4.697 17.191-4.473 24.934.576 7.657 4.999 11.561 13.319 10.445 22.251-.539 4.311 2.74 8.119 7.03 8.284 14.482.569 25.831 12.397 25.831 26.926 0 22.398-25.676 34.884-43.314 21.394-3.66-2.78-8.661-1.559-10.83 2.111-9.119 15.451-25.907 25.046-43.807 25.046-17.904 0-34.688-9.595-43.804-25.039-2.269-3.839-7.352-4.784-10.848-2.103-8.143 6.26-18.995 7.275-28.342 2.68-9.39-4.625-14.997-13.629-14.997-24.088 0-14.861 12.091-26.955 27.099-26.955 4.358 0 7.749-3.761 7.344-8.068-2.232-23.827 17.528-47.571 44.618-47.571z" fill="#116fff" style="fill: rgb(215, 241, 242);"></path></g></g></g></svg>