<!-- icon666.com - MILLIONS OF FREE VECTOR ICONS --><svg viewBox="0 0 32 32" xmlns="http://www.w3.org/2000/svg"><g id="Filled" fill="rgb(0,0,0)"><path d="m22.16 5.53-12-4a.48.48 0 0 0 -.45.06.52.52 0 0 0 -.21.41v7.67l-6.7 2.87a.51.51 0 0 0 -.3.46v16.5h-.5a.5.5 0 0 0 0 1h13a.5.5 0 0 0 0-1h-1.5v-11h5.5a.5.5 0 0 0 0-1h-6a.5.5 0 0 0 -.5.5v11.5h-2v-26.81l11 3.67v9.64a.5.5 0 0 0 1 0v-10a.49.49 0 0 0 -.34-.47zm-13.66 21.47a.5.5 0 0 1 -.5.5h-3a.5.5 0 0 1 -.5-.5v-2a.5.5 0 0 1 .5-.5h3a.5.5 0 0 1 .5.5zm0-5a.5.5 0 0 1 -.5.5h-3a.5.5 0 0 1 -.5-.5v-2a.5.5 0 0 1 .5-.5h3a.5.5 0 0 1 .5.5zm0-5a.5.5 0 0 1 -.5.5h-3a.5.5 0 0 1 -.5-.5v-2a.5.5 0 0 1 .5-.5h3a.5.5 0 0 1 .5.5z"></path><path d="m30.22 20.55a.54.54 0 0 0 -.22-.05h-3.5v-1.5a.5.5 0 0 0 -.5-.5h-5a.5.5 0 0 0 -.5.5v1.5h-3.5a.54.54 0 0 0 -.22.05.5.5 0 0 0 -.28.45v9a.5.5 0 0 0 .5.5h13a.5.5 0 0 0 .5-.5v-9a.5.5 0 0 0 -.28-.45zm-7.72 3.95v-1h2v1zm2 1v.23l-1 .67-1-.67v-.23zm-3-6h4v1h-4zm8 10h-12v-6.38l1.05 2.1a.51.51 0 0 0 .45.28h2.5v.5a.51.51 0 0 0 .22.42l1.5 1a.53.53 0 0 0 .56 0l1.5-1a.51.51 0 0 0 .22-.42v-.5h2.5a.51.51 0 0 0 .45-.28l1.05-2.1z"></path><rect height="3" rx=".5" width="7" x="12.5" y="12.5"></rect><rect height="3" rx=".5" width="7" x="12.5" y="7.5"></rect><path d="m5.5 25.5h2v1h-2z"></path><path d="m5.5 20.5h2v1h-2z"></path><path d="m5.5 15.5h2v1h-2z"></path></g></svg>