<!-- icon666.com - MILLIONS OF FREE VECTOR ICONS --><svg id="Layer_1" enable-background="new 0 0 500 500" viewBox="0 0 500 500" xmlns="http://www.w3.org/2000/svg"><path clip-rule="evenodd" d="m143.31 153.42 9.45 42.24 43.5 3.93c3.73.34 6.48 3.64 6.14 7.37-.2 2.26-1.49 4.16-3.31 5.23l.01.01-37.58 22.24 9.7 42.59c.82 3.66-1.48 7.29-5.13 8.11-2.2.5-4.4-.14-5.98-1.53l-.01.01-32.77-28.88-37.48 22.37c-3.22 1.92-7.39.88-9.31-2.34-1.23-2.06-1.25-4.5-.26-6.5l17.19-39.76-32.87-28.74c-2.82-2.47-3.11-6.76-.64-9.58 1.49-1.71 3.65-2.48 5.75-2.29l43.47 4.1 17.18-40.14c1.47-3.45 5.46-5.06 8.91-3.59 2.22.95 3.67 2.94 4.04 5.15zm205.6 270.92c-1.91-3.23-.84-7.4 2.39-9.31s7.4-.84 9.31 2.39c3.86 6.52 9.25 9.22 14.04 8.87 1.85-.13 3.6-.7 5.11-1.64l.01-.01-.01-.02c1.56-.98 2.9-2.35 3.89-4.07 3.14-5.46 2.98-14.39-3.85-25.92-5-8.43-6.42-18.65-4.53-27.59 1.17-5.54 3.59-10.65 7.21-14.67 3.79-4.21 8.81-7.21 14.99-8.3 7.76-1.36 17.26.4 28.21 6.86 7.63 4.5 13.72 6.6 18.26 6.69 2.37.05 4.15-.49 5.34-1.54 1.26-1.11 2.12-2.97 2.53-5.47.86-5.15-.16-12.29-3.21-20.88-3.52-9.93-4.42-18.65-3.28-25.91s4.3-13.08 8.97-17.27c4.66-4.18 10.69-6.61 17.59-7.13 7.23-.54 15.49 1.04 24.14 4.98 3.41 1.56 4.91 5.58 3.35 8.99s-5.58 4.91-8.99 3.35c-6.45-2.94-12.43-4.14-17.48-3.76-3.91.29-7.19 1.55-9.56 3.67-2.36 2.11-3.98 5.22-4.61 9.23-.8 5.1-.04 11.57 2.7 19.31 3.82 10.79 5.02 20.26 3.79 27.64-.94 5.65-3.28 10.22-6.95 13.45-3.74 3.3-8.63 5.02-14.59 4.9-6.83-.14-15.2-2.82-24.91-8.55-7.86-4.64-14.17-5.99-18.95-5.16-2.99.52-5.41 1.97-7.23 3.99-1.99 2.21-3.34 5.12-4.02 8.34-1.23 5.81-.31 12.44 2.93 17.91 9.72 16.4 9.25 30.31 3.9 39.59-2.16 3.75-5.08 6.73-8.47 8.85l-.01-.02c-3.43 2.15-7.31 3.42-11.32 3.71-9.52.71-19.87-3.99-26.69-15.5zm-336.61-122.94c2.94-2.34 7.21-1.85 9.55 1.09s1.85 7.21-1.09 9.55c-5.95 4.72-7.9 10.43-6.91 15.13.38 1.79 1.17 3.45 2.33 4.83 1.15 1.38 2.7 2.52 4.57 3.28 5.85 2.38 14.67 1.03 25.15-7.28 7.7-6.1 17.63-8.9 26.75-8.23 5.61.41 10.99 2.13 15.48 5.18 4.68 3.18 8.34 7.75 10.25 13.74 2.4 7.53 1.95 17.17-2.96 28.85-3.43 8.16-4.68 14.49-4.16 19.02.27 2.37 1.04 4.06 2.22 5.08 1.27 1.1 3.23 1.7 5.76 1.77 5.23.16 12.16-1.82 20.27-6 9.38-4.83 17.9-6.91 25.25-6.76 7.33.15 13.52 2.49 18.3 6.56 4.77 4.06 8 9.7 9.45 16.47 1.52 7.11 1.07 15.5-1.65 24.56-1.07 3.6-4.86 5.65-8.46 4.58s-5.65-4.86-4.58-8.46c2.05-6.83 2.44-12.92 1.39-17.86-.82-3.84-2.5-6.91-4.92-8.97-2.41-2.05-5.71-3.24-9.79-3.32-5.16-.1-11.47 1.52-18.75 5.27-10.18 5.24-19.39 7.71-26.86 7.49-5.73-.17-10.57-1.87-14.27-5.07-3.79-3.28-6.17-7.9-6.85-13.8-.78-6.78.75-15.43 5.12-25.83 3.55-8.46 4.05-14.89 2.58-19.49-.92-2.89-2.68-5.09-4.93-6.61-2.44-1.66-5.51-2.6-8.83-2.84-5.92-.43-12.36 1.37-17.33 5.31-14.96 11.87-28.8 13.28-38.71 9.25-3.96-1.61-7.31-4.12-9.9-7.22-2.58-3.1-4.37-6.78-5.2-10.73-2-9.36 1.26-20.24 11.73-28.54zm215.36-143.71c-.03-3.75 2.98-6.81 6.73-6.84s6.81 2.98 6.84 6.73c.19 20.01 2.38 42.4 6.57 67.15 4.21 24.84 10.42 51.96 18.63 81.35 1 3.61-1.12 7.35-4.74 8.35-3.61 1-7.35-1.12-8.35-4.74-8.36-29.91-14.67-57.49-18.95-82.73-4.29-25.32-6.53-48.41-6.73-69.27zm21.67-121.17c-.37-2.22-1.82-4.2-4.04-5.15-3.45-1.47-7.44.14-8.91 3.59l-17.18 40.15-43.47-4.1c-2.1-.2-4.25.58-5.75 2.29-2.47 2.82-2.18 7.11.64 9.58l32.89 28.75-17.19 39.76c-.99 2-.97 4.44.26 6.5 1.92 3.22 6.09 4.26 9.31 2.34l37.48-22.37 32.77 28.88.01-.01c1.58 1.39 3.77 2.02 5.98 1.53 3.66-.82 5.96-4.46 5.13-8.11l-9.7-42.59 37.58-22.24-.01-.01c1.81-1.07 3.1-2.97 3.31-5.23.34-3.73-2.41-7.03-6.14-7.37l-43.5-3.93zm58.46 244.85c-11.73 16.05-21.64 39.25-29.72 69.58-7.95 29.82-14.18 66.73-18.71 110.74-.38 3.73 2.33 7.07 6.07 7.45 3.73.38 7.07-2.33 7.45-6.07 4.45-43.27 10.57-79.49 18.34-108.66 7.64-28.66 16.82-50.33 27.54-65 2.22-3.03 1.56-7.28-1.46-9.5-3.04-2.22-7.29-1.56-9.51 1.46zm15.93-49.8-39.68 18.18c-3.41 1.56-4.91 5.58-3.35 8.99.94 2.07 2.8 3.43 4.87 3.84v.02l42.82 8.45 5.03 43.36c.43 3.73 3.8 6.41 7.53 5.99 2.41-.28 4.39-1.78 5.37-3.83l21.08-37.76 42.82 8.62c3.67.73 7.25-1.65 7.98-5.32.44-2.22-.25-4.41-1.69-5.95l.01-.01-29.68-32.01 21.43-38.06c1.84-3.28.67-7.42-2.61-9.26-2.06-1.15-4.45-1.12-6.41-.13l-39.4 18.24-29.57-32.14c-2.54-2.76-6.84-2.94-9.6-.4-1.67 1.53-2.39 3.71-2.15 5.8h-.01zm-140.08 26.69c9.81 10.61 22.78 37.6 33.1 71.94 8.56 28.46 15.14 61.65 16.42 94.43.15 3.75 3.3 6.66 7.05 6.52 3.75-.15 6.66-3.3 6.52-7.05-1.33-34.08-8.13-68.43-16.95-97.78-10.89-36.22-25.11-65.27-36.19-77.26-2.54-2.75-6.83-2.91-9.58-.37-2.75 2.53-2.92 6.82-.37 9.57z" fill="rgb(0,0,0)" fill-rule="evenodd"></path></svg>