<?xml version="1.0" encoding="UTF-8" standalone="no"?>
<svg
   height="24px"
   viewBox="0 -960 960 960"
   width="24px"
   fill="#e3e3e3"
   version="1.1"
   id="svg1"
   xml:space="preserve"
   xmlns="http://www.w3.org/2000/svg"
   xmlns:svg="http://www.w3.org/2000/svg"><defs
     id="defs1" /><g
     id="layer6"
     transform="matrix(1.0654079,0,0,1.0654079,-24.942279,26.542986)"><ellipse
       style="fill:none;stroke:#000000;stroke-width:23.88;stroke-linecap:round;stroke-linejoin:bevel;stroke-dasharray:none;stroke-dashoffset:0"
       id="path21"
       cx="488.0769"
       cy="-660"
       rx="141.99101"
       ry="94.683304" /><ellipse
       style="fill:none;stroke:#000000;stroke-width:21.9606;stroke-linecap:round;stroke-linejoin:bevel;stroke-dasharray:none;stroke-dashoffset:0"
       id="path22"
       cx="745.38452"
       cy="-512.88458"
       rx="161.34427"
       ry="112.30582" /><ellipse
       style="fill:none;stroke:#000000;stroke-width:24.1456;stroke-linecap:round;stroke-linejoin:bevel;stroke-dasharray:none;stroke-dashoffset:0"
       id="path23"
       cx="222.11539"
       cy="-512.88464"
       rx="173.52103"
       ry="121.59795" /><ellipse
       style="fill:none;stroke:#000000;stroke-width:26.1352;stroke-linecap:round;stroke-linejoin:bevel;stroke-dasharray:none;stroke-dashoffset:0"
       id="path24"
       cx="482.30768"
       cy="-314.4231"
       rx="188.10316"
       ry="145.98778" /></g><path
     style="fill:#00ffff;stroke:#000000;stroke-width:4.26163;stroke-linecap:round;stroke-linejoin:bevel;stroke-dasharray:0.426163, 0.426163;stroke-dashoffset:0"
     d="m 799.54924,-534.67249 c 2.173,0 64.32511,-28.25088 64.32511,-28.25088 0,0 0.86937,-16.0813 -1.30406,-19.1237 -2.17301,-3.04242 -62.15199,25.64311 -62.15199,25.64311 l -149.0778,68.23678 c 0,0 13.4735,13.47352 26.51238,9.12721 13.03889,-4.34626 121.69618,-55.63252 121.69618,-55.63252 z"
     id="path14" /><path
     style="fill:#00ffff;stroke:#000000;stroke-width:4.26163;stroke-linecap:round;stroke-linejoin:bevel;stroke-dasharray:0.426163, 0.426163;stroke-dashoffset:0"
     d="m 473.14272,-317.35791 c 0,0 -13.90814,39.11662 -11.30036,50.41697 2.60769,11.30036 6.95408,27.81627 13.03889,33.90107 6.0848,6.08481 25.20849,27.81627 26.07773,41.7244 0.86937,13.90814 8.69258,8.69258 8.69258,8.69258 l 20.86222,-9.56182 c 0,0 9.56182,-22.60071 6.0848,-67.80218 -3.47707,-45.20142 -28.68551,-60.84805 -28.68551,-60.84805 z"
     id="path15" /><path
     style="fill:#00ffff;stroke:#000000;stroke-width:4.26163;stroke-linecap:round;stroke-linejoin:bevel;stroke-dasharray:0.426163, 0.426163;stroke-dashoffset:0"
     d="m 236.70446,-612.90573 c 6.08481,-5.21556 16.51592,-19.99295 16.51592,-19.99295 0,0 11.30035,-3.47702 13.03887,2.60777 1.73854,6.08481 2.60778,14.7774 0,20.86221 -2.60778,6.0848 -29.55479,-3.47702 -29.55479,-3.47703 z"
     id="path16" /><g
     id="layer5"
     transform="matrix(1.0654079,0,0,1.0654079,-24.942279,26.542986)"><ellipse
       style="fill:#d38d5f;stroke:#000000;stroke-width:4;stroke-linecap:round;stroke-linejoin:bevel;stroke-dasharray:0.4, 0.4;stroke-dashoffset:0"
       id="path12"
       cx="744.80768"
       cy="-542.88458"
       rx="37.5"
       ry="29.423077" /><ellipse
       style="fill:#d38d5f;stroke:#000000;stroke-width:4;stroke-linecap:round;stroke-linejoin:bevel;stroke-dasharray:0.4, 0.4;stroke-dashoffset:0"
       id="path13"
       cx="210.57692"
       cy="-556.73077"
       rx="32.884613"
       ry="22.5" /><ellipse
       style="fill:#d38d5f;stroke:#000000;stroke-width:4;stroke-linecap:round;stroke-linejoin:bevel;stroke-dasharray:0.4, 0.4;stroke-dashoffset:0"
       id="path11"
       cx="479.42307"
       cy="-359.42307"
       rx="49.038464"
       ry="40.961536" /></g><g
     id="layer3"
     style="display:inline"
     transform="matrix(1.0654079,0,0,1.0654079,-24.942279,26.542986)"><path
       style="fill:#333333;stroke:#000000;stroke-width:0;stroke-linejoin:bevel"
       d="m 204.23077,-535.3846 30,-28.26924 c 0,0 2.30768,-11.53847 -10.96154,-11.53847 -13.26923,0 -16.73077,0.57693 -15.57692,-6.34615 1.15385,-6.92308 -23.07693,-3.46154 -23.07693,-3.46154 0,0 -5.76922,-4.61538 -0.57692,-10.96154 5.19231,-6.34615 8.07692,-14.42308 8.07692,-14.42308 l 6.34616,-4.03846 c 0,0 9.80769,4.61539 13.26923,4.61539 3.46152,0 19.61539,-1.15384 25.38461,1.73076 5.76924,2.8846 8.65385,5.76923 25.38462,8.65384 16.73077,2.8846 122.88462,2.30768 122.88462,2.30768 l 41.53846,-30 75,67.49997 -9.23076,20.76924 c 0,0 1.154,110.76924 2.3076,115.38464 1.154,4.61536 19.6154,19.03844 19.03848,22.5 -0.5768,3.4616 0.5768,16.73076 0.5768,20.7692 0,4.03848 3.4616,14.42308 0.5768,15.57692 -2.8848,1.154 -9.80772,6.34616 -18.46156,7.5 -8.65384,1.154 -30.57692,4.6154 -31.73076,-0.5768 -1.154,-5.19228 -7.5,-19.03844 -8.07692,-22.5 -0.5768,-3.4616 -9.80768,-8.65384 -10.3846,-13.2692 -0.5768,-4.6154 0.5768,-11.53848 -6.92308,-12.69232 -7.5,-1.154 -55.38463,15 -55.38463,15 L 320.76923,-367.5 c 0,0 -11.53846,15.57692 -19.61538,17.8846 -8.07693,2.3076 -26.53847,2.3076 -28.26923,-1.7308 -1.73076,-4.03844 -4.61539,-21.34616 -4.61539,-26.53844 0,-5.19232 -2.30768,-10.38464 -0.57692,-13.84616 1.73076,-3.4616 8.07692,-20.7692 12.69231,-21.92304 4.61538,-1.15384 4.03846,-103.26924 4.03846,-103.26924 z"
       id="path4" /><path
       style="fill:#ececec;stroke:#000000;stroke-width:0;stroke-linejoin:bevel"
       d="m 257.30769,-558.46152 14.42308,-12.69232 c 0,0 9.80769,-3.46152 16.73077,0.57692 6.92308,4.03846 9.23077,12.1154 9.23077,12.1154 0,0 5.19231,4.03844 3.46156,6.34612 -1.73076,2.3076 -10.38462,6.92308 -10.38462,6.92308 z"
       id="path6" /><path
       style="fill:#ececec;stroke:#000000;stroke-width:0;stroke-linejoin:bevel"
       d="m 318.46154,-567.11538 12.69231,21.34614 c 0,0 8.07692,6.34616 19.61538,9.80772 11.53846,3.4616 17.30769,0.5768 21.92308,-1.7308 4.61538,-2.30768 10.38461,-6.92308 8.07692,-15.57692 l -15.57692,-9.80768 -8.07692,-5.76923 c 0,0 -19.61539,-3.46154 -23.65385,-2.88462 -4.03846,0.57693 -15,4.61539 -15,4.61539 z"
       id="path7" /><path
       style="fill:#ececec;stroke:#000000;stroke-width:0;stroke-linejoin:bevel"
       d="m 349.03846,-405.57692 c 8.07692,-2.8844 70.38462,-41.53848 70.38462,-41.53848 0,0 21.34616,0.5768 30.57692,4.03848 9.23076,3.4616 6.92308,6.92308 0,8.65384 -6.92308,1.7308 -91.73077,32.30768 -91.73077,32.30768 0,0 -6.92307,1.7308 -9.23077,-3.4616 z"
       id="path8" /><path
       style="fill:#333333;stroke:#000000;stroke-width:0;stroke-linecap:round;stroke-linejoin:bevel;stroke-dasharray:none;stroke-dashoffset:0"
       d="m 669.84768,-601.82322 33.4516,10.6066 c 0,0 8.15892,0.81588 17.94964,-4.89535 9.79072,-5.71125 21.2132,-4.07946 24.47676,-0.81588 3.2636,3.26356 13.8702,5.71125 17.13376,6.52714 3.2636,0.81588 16.31784,3.26356 16.31784,3.26356 0,0 5.71124,4.89535 5.71124,8.97481 0,4.07946 -1.6316,13.05428 -1.6316,13.05428 0,0 0.816,4.07946 -8.15892,6.52714 -8.97484,2.4476 -55.48072,1.6316 -55.48072,1.6316 l -15.50212,-8.15874 c 0,0 -28.5562,-4.89535 -38.34692,-2.44768 -9.79072,2.44768 4.07944,-34.26748 4.07944,-34.26748 z"
       id="path17" /><path
       style="display:inline;fill:#1a1a1a;stroke:#000000;stroke-width:0;stroke-linecap:round;stroke-linejoin:bevel;stroke-dasharray:none;stroke-dashoffset:0"
       d="m 748.98928,-674.0297 8.56684,6.1192 c 0,0 4.89536,-0.40796 6.1192,-2.44768 1.224,-2.03972 -4.89536,-7.34304 -6.93508,-8.56687 -2.03972,-1.22384 -43.65024,-32.6357 -43.65024,-32.6357 l 1.224,-6.11919 -8.97484,-5.71125 -4.07944,-0.81588 -3.2636,2.44768 -1.224,-2.85564 -66.4952,-37.12311 -5.30332,0.81588 -11.42248,-9.38276 -4.89536,4.07946 -49.76944,-16.31784 c 0,0 -2.8556,-0.81588 -3.6716,0.81588 -0.816,1.6318 1.632,6.93508 4.89536,6.93508 3.2636,0 46.09792,15.50196 46.09792,15.50196 0,0 -2.0396,7.34303 0.408,6.93508 2.4476,-0.40796 10.19864,4.07946 12.64632,4.89536 2.4476,0.81588 4.4874,4.89535 4.4874,4.89535 0,0 11.01456,5.71125 13.05428,6.52714 2.0396,0.81588 4.89536,6.11919 4.4874,7.75098 -0.408,1.6318 -9.38276,0.40796 -12.64632,-2.03972 -3.2636,-2.44768 -14.27808,-10.6066 -14.27808,-10.6066 l -2.4476,-4.48741 -12.23836,15.9099 c 0,0 18.76552,9.38277 19.17344,12.23839 0.408,2.85564 4.07948,10.19865 2.4476,14.68606 -1.6316,4.48741 -4.4874,11.4225 -7.75096,13.46223 -3.2636,2.03972 -19.17348,16.31785 -19.17348,16.31785 l -3.2636,7.75098 c 0,0 6.93508,13.05427 8.56688,13.87017 1.6316,0.81588 27.3324,-7.34304 27.3324,-7.34304 l 21.2132,-28.55623 13.87016,-6.11919 c 0,0 24.47676,10.19865 25.7006,12.23838 1.224,2.03972 4.89536,0 6.52716,-2.03972 1.6316,-2.03972 9.38276,-15.094 9.38276,-15.094 0,0 5.30328,0.40796 7.34304,-2.44768 2.0396,-2.85564 37.939,26.5165 37.939,26.5165 z"
       id="path20" /><path
       style="fill:#333333;stroke:#000000;stroke-width:0;stroke-linecap:round;stroke-linejoin:bevel;stroke-dasharray:none;stroke-dashoffset:0"
       d="m 633.13252,-636.90659 c 1.632,-1.22384 15.09404,-28.14829 15.09404,-28.14829 0,0 1.6316,-3.26356 -0.816,-5.3033 -2.4476,-2.03972 -5.71124,-3.67152 -5.71124,-3.67152 l 9.38284,-18.35758 -2.03972,-5.3033 35.08336,-75.0621 c 0,0 -5.30328,-5.3033 -7.75096,-4.89536 -2.4476,0.40796 -6.93508,9.38276 -6.93508,9.38276 l -32.22776,66.08729 c 0,0 -5.71124,-0.81588 -6.93508,4.07947 -1.224,4.89535 -6.93508,17.94963 -6.93508,17.94963 l -9.38276,1.6318 -13.46224,24.47677 z"
       id="path18" /><path
       style="fill:#333333;stroke:#000000;stroke-width:0;stroke-linecap:round;stroke-linejoin:bevel;stroke-dasharray:none;stroke-dashoffset:0"
       d="m 557.66248,-686.26808 9.79072,-21.21321 9.38276,-1.22384 10.6066,-20.39731 2.4476,-2.85564 2.8556,-4.48741 39.16284,-57.11247 c 0,0 11.42252,-6.11919 8.97484,4.07946 -2.4476,10.19866 -38.75488,64.04756 -38.75488,64.04756 l 0.816,5.3033 -8.97484,19.58142 6.52716,3.67152 -12.2384,31.41186 z"
       id="path19" /></g><path
     style="fill:#808080;stroke:#000000;stroke-width:4.26163;stroke-linecap:round;stroke-linejoin:bevel;stroke-dasharray:0.426163, 0.426163;stroke-dashoffset:0"
     d="m 213.54519,-550.00662 36.87951,-20.89839 c 0,0 19.66907,-4.91727 28.27428,0.61465 8.60523,5.53194 55.31927,29.50361 55.31927,29.50361 l 54.7046,52.24599 c 0,0 7.3759,12.9078 2.45861,18.43974 -4.91726,5.53194 -43.64075,35.03552 -43.64075,35.03552 l -38.72347,25.81568 c 0,0 -12.29316,17.82508 -19.05442,17.21043 -6.76123,-0.61453 -16.59576,9.21987 -26.4303,-16.59578 -9.83452,-25.81568 -49.78733,-141.37145 -49.78733,-141.37145 z"
     id="path5" /><g
     id="layer2"
     transform="matrix(1.0654079,0,0,1.0654079,-24.942279,26.542986)"><path
       style="fill:#000000;stroke:#000000;stroke-width:0;stroke-linejoin:bevel"
       d="m 205.96154,-539.42308 13.26923,-2.3076 44.42308,-15 c 0,0 10.38461,-3.46156 17.88461,4.61536 7.5,8.07692 45.57692,34.6154 45.57692,34.6154 0,0 10.38462,7.5 10.96154,12.69232 0.57692,5.19228 1.15384,21.92308 1.15384,21.92308 0,0 -5.1923,26.53844 -6.92308,30 -1.73076,3.4616 -62.88461,51.92308 -62.88461,51.92308 0,0 -3.46152,8.07692 -10.38461,14.42308 -6.92308,6.34612 -20.76924,20.19228 -30.57693,21.34612 -9.80769,1.154 -12.69231,8.65388 -41.53846,-14.42308 -28.84615,-23.07692 -22.5,-49.61536 -22.5,-49.61536 0,0 1.15384,-13.26924 -0.57692,-18.46156 -1.73076,-5.19228 -7.5,-13.2692 -7.5,-13.2692 0,0 -15.57693,-8.65388 -15.57693,-18.46156 0,-9.80768 -1.73076,-23.07692 -1.73076,-23.07692 l 2.30768,-12.1154 c 0,0 3.46152,-9.23076 11.53846,-10.96152 8.07693,-1.7308 3.46156,-8.07692 3.46156,-8.07692 0,0 3.46152,-5.19232 7.5,-5.19232 4.03846,0 20.19231,-1.7308 20.19231,-1.7308 z"
       id="path2" /><path
       style="fill:#00ffff;stroke:#000000;stroke-width:0;stroke-linejoin:bevel"
       d="m 201.34616,-495.57692 c 0,0 -19.03847,4.03844 -13.26924,28.84616 5.76924,24.80768 6.92308,36.92308 17.88462,42.69232 10.96154,5.7692 23.65384,15 32.30769,-5.19232 8.65385,-20.19232 -11.53846,-43.84616 -11.53846,-43.84616 z"
       id="path3" /></g><g
     id="layer4"><path
       style="fill:#ffe6d5;stroke:#000000;stroke-width:4.26163;stroke-linecap:round;stroke-linejoin:bevel;stroke-dasharray:0.426163, 0.426163;stroke-dashoffset:0"
       d="m 326.64234,-661.87445 c 0,0 215.74511,149.36201 224.96498,153.04994 9.21987,3.68802 28.88896,14.13715 28.88896,14.13715 0,0 9.83453,1.22949 19.0544,-4.91728 9.21987,-6.1466 78.67629,-53.4753 78.67629,-53.4753 0,0 4.30263,-7.99056 7.3759,-20.2837 3.07328,-12.29317 8.60521,-33.19156 8.60521,-33.19156 l 1.22949,-18.43975 c 0,0 -3.0735,-5.53193 -11.67849,-11.06386 -8.60539,-5.53191 -194.84692,-116.17043 -194.84692,-116.17043 l -28.27427,-9.83454 -20.28375,-4.91727 c 0,0 -6.14659,-4.91727 -13.52245,-4.3026 -7.3759,0.61465 -25.81568,10.44919 -25.81568,10.44919 l -73.75901,28.88893 c 0,0 -21.51303,0.61466 -24.58633,9.83454 -3.07328,9.21988 -3.68794,20.28374 -1.84397,28.2743 1.84397,7.99056 24.58634,29.50359 25.81564,31.96224 z"
       id="path9" /><path
       style="fill:#d38d5f;stroke:#000000;stroke-width:4.26163;stroke-linecap:round;stroke-linejoin:bevel;stroke-dasharray:0.426163, 0.426163;stroke-dashoffset:0"
       d="m 335.24755,-695.06601 c 6.1466,4.91726 232.3409,141.37142 237.25817,141.37142 4.91725,0 119.24376,-74.37366 119.24376,-74.37366 l -207.75456,-127.23428 -33.19156,-9.83454 z"
       id="path10" /></g></svg>
