<!-- icon666.com - MILLIONS OF FREE VECTOR ICONS --><svg viewBox="0 0 64 64" xmlns="http://www.w3.org/2000/svg"><g id="Layer_9" data-name="Layer 9"><path d="m60 10h-1.1a5.016 5.016 0 0 0 -3.9-3.9v-1.1a4 4 0 0 0 -8 0v5h-5v-3a3 3 0 0 0 -3-3h-12a3 3 0 0 0 -3 3v3h-7v-5a4 4 0 0 0 -8 0v1.1a5.016 5.016 0 0 0 -3.9 3.9h-1.1a3 3 0 0 0 0 6h1.1a5.016 5.016 0 0 0 3.9 3.9v1.1a4 4 0 0 0 8 0v-5h3v2a1 1 0 0 0 .232.64l4.749 5.7-1.981 37.607 2 .106 2-38a1 1 0 0 0 -.231-.693l-4.769-5.722v-4.638a1 1 0 0 1 1-1h6v1a1 1 0 0 1 -1 1h-3v2h1a4 4 0 0 1 4 4h2a5.976 5.976 0 0 0 -.35-2h8.282l-2.869 7.649a1.024 1.024 0 0 0 -.062.407l2 36 2-.112-1.991-35.79 2.927-7.8a1 1 0 0 0 .063-.354v-2h5v5a4 4 0 0 0 8 0v-1.1a5.016 5.016 0 0 0 3.9-3.9h1.1a3 3 0 0 0 0-6zm-57 3a1 1 0 0 1 1-1h1v2h-1a1 1 0 0 1 -1-1zm4 2v-4a3 3 0 0 1 2-2.816v9.632a3 3 0 0 1 -2-2.816zm8 6a2 2 0 0 1 -4 0v-16a2 2 0 0 1 4 0zm5-8v1h-3v-2h3.184a2.966 2.966 0 0 0 -.184 1zm20-6v9h-2v-10h1a1 1 0 0 1 1 1zm-4 9h-2v-10h2zm-9-10h1v4h-2v-3a1 1 0 0 1 1-1zm2.815 9.372a2.986 2.986 0 0 0 1.185-2.372v-2a1 1 0 0 0 -1-1v-4h2v10h-1.54a6.171 6.171 0 0 0 -.645-.628zm12.185-1.372v-2h5v2zm11 7a2 2 0 0 1 -4 0v-16a2 2 0 0 1 4 0zm4-6a3 3 0 0 1 -2 2.816v-9.632a3 3 0 0 1 2 2.816zm3-1h-1v-2h1a1 1 0 0 1 0 2z"></path><path d="m15 29h2v10h-2z"></path><path d="m11 33h2v10h-2z"></path><path d="m11 45h2v2h-2z"></path><path d="m47 29h2v10h-2z"></path><path d="m51 33h2v10h-2z"></path><path d="m51 45h2v2h-2z"></path></g></svg>