<!-- icon666.com - MILLIONS OF FREE VECTOR ICONS --><svg viewBox="0 0 32 32" xmlns="http://www.w3.org/2000/svg"><g id="_01" data-name="01"><path d="m13 18h-5l-5 11h26l-5-11h-5" fill="#f2f2f2"></path><path d="m20.8 15.593-4.8 4.807-4.8-4.8a6.791 6.791 0 1 1 9.6 0z" fill="#ffd54f"></path><path d="m16 21.4a1 1 0 0 1 -.707-.293l-4.8-4.8a7.792 7.792 0 1 1 11.02 0l-4.8 4.8a1 1 0 0 1 -.713.293zm0-16.4a5.791 5.791 0 0 0 -4.1 9.886l4.1 4.094 4.1-4.094a5.791 5.791 0 0 0 -4.1-9.886z"></path><circle cx="16" cy="11" fill="#ccc" r="3"></circle><path d="m16 14.992a4.2 4.2 0 1 1 4.2-4.2 4.207 4.207 0 0 1 -4.2 4.2zm0-6.4a2.2 2.2 0 1 0 2.2 2.2 2.2 2.2 0 0 0 -2.2-2.203z"></path><path d="m4.553 28 4.091-9h4.356a1 1 0 0 0 0-2h-5a1 1 0 0 0 -.91.586l-5 11a1 1 0 0 0 .91 1.414h14a1 1 0 0 0 1-1 1 1 0 0 0 -1-1z"></path><path d="m29.91 28.586-5-11a1 1 0 0 0 -.91-.586h-5a1 1 0 0 0 0 2h4.356l4.091 9h-4.447a1 1 0 0 0 -1 1 1 1 0 0 0 1 1h6a1 1 0 0 0 .91-1.414z"></path></g></svg>