<!-- icon666.com - MILLIONS OF FREE VECTOR ICONS --><svg id="Layer_1" enable-background="new 0 0 512 512" viewBox="0 0 512 512" xmlns="http://www.w3.org/2000/svg"><g><path d="m510.872 500.536-43.457-70.515c-2.177-3.533-6.807-4.632-10.34-2.454s-4.632 6.807-2.454 10.34l36.396 59.057h-402.961l140.847-228.544 24.697 28.852c2.763 3.378 8.323 3.49 11.219.223l24.718-26.657 24.718 26.657c2.876 3.258 8.462 3.159 11.219-.223l24.697-28.852 88.644 143.837c2.178 3.533 6.807 4.631 10.34 2.454 3.533-2.178 4.632-6.807 2.454-10.34l-138.586-224.873c-3.598-6.278-9.476-10.264-15.972-11.982v-55.885h39.082c4.15 0 7.514-3.364 7.514-7.515s-3.364-7.515-7.514-7.515h-39.082v-63.441h99.564l-15.199 28.151c-1.203 2.229-1.203 4.912 0 7.141l15.199 28.15h-30.425c-4.15 0-7.514 3.364-7.514 7.515s3.364 7.515 7.514 7.515h43.023c5.514.169 9.38-6.314 6.612-11.085l-19.257-35.665 19.257-35.666c2.768-4.772-1.099-11.254-6.612-11.085h-112.162v-10.616c0-4.15-3.364-7.515-7.514-7.515s-7.514 3.365-7.514 7.515v160.002c-6.497 1.718-12.374 5.704-15.972 11.982l-61.659 100.05-10.082-16.361c-9.892-17.262-37.014-17.26-46.906 0l-29.176 47.343c-5.223 8.211 7.756 16.273 12.794 7.885l29.176-47.343c4.472-7.869 16.846-7.868 21.318 0l14.049 22.798-125.163 203.093-49.418.003 94.258-152.947c2.178-3.533 1.079-8.162-2.454-10.34-3.534-2.179-8.163-1.079-10.34 2.454l-101.32 164.405c-3.143 4.758.698 11.637 6.398 11.457l496.95-.004c5.699.18 9.539-6.699 6.396-11.456zm-232.028-313.152c4.486-7.893 16.9-7.892 21.385 0l41.659 67.598-22.349 26.109-24.494-26.415c-2.822-3.179-8.198-3.178-11.02 0l-24.494 26.415-22.348-26.109z"></path></g></svg>