<!-- icon666.com - MILLIONS OF FREE VECTOR ICONS --><svg id="Layer_1" enable-background="new 0 0 512 512" viewBox="0 0 512 512" xmlns="http://www.w3.org/2000/svg"><g><path d="m495.12 496h-27.28v-230.33c0-2.72-1.39-5.26-3.68-6.73l-97.28-62.44v-130.25c0-4.42-3.58-8-8-8h-24.92v-50.25c0-4.42-3.58-8-8-8h-139.92c-4.42 0-8 3.58-8 8v50.25h-24.92c-4.42 0-8 3.58-8 8v130.25l-97.28 62.44c-2.29 1.47-3.68 4.01-3.68 6.73v230.33h-27.28c-4.42 0-8 3.58-8 8s3.58 8 8 8h478.24c4.42 0 8-3.58 8-8s-3.58-8-8-8z" fill="#eceff1"></path><path d="m391.07 401.53c-2.29 3.3-6.7 4.02-9.84 1.61l-17.72-13.56v106.42h104.33v-230.33c0-2.72-1.39-5.26-3.68-6.73l-97.28-62.44v140.07l39.58 30.29c3.15 2.41 3.84 7.04 1.54 10.34z" fill="#8ac9fe"></path><path d="m148.49 496v-106.43l-17.72 13.57c-3.14 2.41-7.55 1.68-9.84-1.61l-16.93-24.33c-2.3-3.3-1.61-7.93 1.54-10.34l39.58-30.3v-140.06l-97.28 62.44c-2.29 1.47-3.68 4.01-3.68 6.73v230.33z" fill="#8ac9fe"></path><path d="m251.83 254.86c2.47-1.89 5.83-1.89 8.3 0l106.75 81.7v-270.31c0-4.42-3.58-8-8-8h-205.77c-4.42 0-8 3.58-8 8v270.31z" fill="#81a7c6"></path><path d="m358.89 58.25h-15.47c4.42 0 8 3.58 8 8v258.48l15.47 11.84v-270.32c0-4.42-3.59-8-8-8z" fill="#79a3bf"></path><path d="m434.15 281.02h-49.58c-4.42 0-8 3.58-8 8v44.02c0 4.42 3.58 8 8 8h49.58c4.42 0 8-3.58 8-8v-44.02c0-4.42-3.58-8-8-8z" fill="#eceff1"></path><path d="m298.76 496v-73.2c0-4.6-3.62-8.32-8.08-8.32h-69.35c-4.46 0-8.08 3.73-8.08 8.32v73.2z" fill="#f1ba84"></path><path d="m256 422.8v73.2h42.76v-73.2c0-4.6-3.62-8.32-8.08-8.32h-42.76c4.46 0 8.08 3.72 8.08 8.32z" fill="#de9252"></path><path d="m251.83 254.86-146.3 112c-3.15 2.41-3.84 7.04-1.54 10.34l16.93 24.33c2.29 3.3 6.7 4.02 9.84 1.61l125.21-95.87 125.25 95.87c3.14 2.41 7.55 1.68 9.84-1.61l16.94-24.33c2.3-3.3 1.61-7.93-1.54-10.34l-146.33-112c-2.47-1.89-5.83-1.89-8.3 0z" fill="#ff4c4c"></path><path d="m434.15 356.85h-40.77l13.08 10.01c3.15 2.41 3.84 7.04 1.54 10.34l-16.93 24.33c-2.29 3.3-6.7 4.02-9.84 1.61l-4.66-3.57v9.3c0 4.42 3.58 8 8 8h49.58c4.42 0 8-3.58 8-8v-44.02c0-4.42-3.58-8-8-8z" fill="#eceff1"></path><path d="m406.47 366.86-2.64-2.02-12.77 18.35c-2.29 3.3-6.7 4.02-9.84 1.61l-125.25-95.87-125.21 95.87c-3.14 2.41-7.55 1.68-9.84-1.61l-12.76-18.33-2.62 2c-3.15 2.41-3.84 7.04-1.54 10.34l16.93 24.33c2.29 3.3 6.7 4.02 9.84 1.61l125.21-95.87 125.25 95.87c3.14 2.41 7.55 1.68 9.84-1.61l16.93-24.33c2.3-3.3 1.61-7.93-1.53-10.34z" fill="#f33939"></path><g><path d="m495.12 512h-478.24c-4.42 0-8-3.58-8-8s3.58-8 8-8h478.24c4.42 0 8 3.58 8 8s-3.58 8-8 8z" fill="#2d5871"></path></g><path d="m249.27 108.88v51.5c0 4.42-3.58 8-8 8h-49.61c-4.42 0-8-3.58-8-8v-51.5c0-4.42 3.58-8 8-8h49.61c4.42 0 8 3.59 8 8zm71.04-8h-49.58c-4.42 0-8 3.58-8 8v51.5c0 4.42 3.58 8 8 8h49.58c4.42 0 8-3.58 8-8v-51.5c0-4.41-3.58-8-8-8zm-79.04 82.12h-49.61c-4.42 0-8 3.58-8 8v51.53c0 4.42 3.58 8 8 8h49.61c4.42 0 8-3.58 8-8v-51.53c0-4.42-3.58-8-8-8zm79.04 0h-49.58c-4.42 0-8 3.58-8 8v51.53c0 4.42 3.58 8 8 8h49.58c4.42 0 8-3.58 8-8v-51.53c0-4.42-3.58-8-8-8z" fill="#eceff1"></path><g fill="#ccdfed"><path d="m434.15 281.02h-13.47c4.42 0 8 3.58 8 8v44.02c0 4.42-3.58 8-8 8h13.47c4.42 0 8-3.58 8-8v-44.02c0-4.42-3.58-8-8-8z"></path><path d="m434.15 356.85h-13.47c4.42 0 8 3.58 8 8v44.02c0 4.42-3.58 8-8 8h13.47c4.42 0 8-3.58 8-8v-44.02c0-4.42-3.58-8-8-8z"></path><g><path d="m235.8 108.88v51.5c0 4.42-3.58 8-8 8h13.47c4.4 0 7.96-3.55 8-7.93 0-.02 0-.04 0-.07v-51.5c0-.02 0-.04 0-.07-.04-4.39-3.6-7.93-8-7.93h-13.47c4.42 0 8 3.59 8 8z"></path><path d="m249.26 242.54v-51.54c0-.02 0-.04 0-.07-.04-4.39-3.6-7.93-8-7.93h-13.46c4.42 0 8 3.58 8 8v51.53c0 4.42-3.58 8-8 8h13.47c4.4 0 7.96-3.55 8-7.93 0-.02-.01-.04-.01-.06z"></path><path d="m320.31 183h-13.47c4.42 0 8 3.58 8 8v51.53c0 4.42-3.58 8-8 8h13.47c4.42 0 8-3.58 8-8v-51.53c0-4.42-3.58-8-8-8z"></path><path d="m320.31 100.88h-13.47c4.42 0 8 3.58 8 8v51.5c0 4.42-3.58 8-8 8h13.47c4.42 0 8-3.58 8-8v-51.5c0-4.41-3.58-8-8-8z"></path></g><path d="m256 337.21c-15.96 0-28.95 12.99-28.95 28.95 0 15.95 12.98 28.92 28.95 28.92s28.95-12.97 28.95-28.92c0-15.97-12.99-28.95-28.95-28.95z"></path><path d="m347 496h16.51v-106.42l-107.53-82.32-8.26 6.33 99.28 75.99z"></path></g><path d="m333.96 58.25v-50.25c0-4.42-3.58-8-8-8h-139.92c-4.42 0-8 3.58-8 8v50.25z" fill="#5c90b9"></path><path d="m127.43 281.02h-49.58c-4.42 0-8 3.58-8 8v44.02c0 4.42 3.58 8 8 8h49.58c4.42 0 8-3.58 8-8v-44.02c0-4.42-3.58-8-8-8z" fill="#eceff1"></path><path d="m130.77 403.14c-3.14 2.41-7.55 1.68-9.84-1.61l-16.93-24.33c-2.3-3.3-1.61-7.93 1.54-10.34l13.08-10.01h-40.77c-4.42 0-8 3.58-8 8v44.02c0 4.42 3.58 8 8 8h49.58c4.42 0 8-3.58 8-8v-9.3z" fill="#eceff1"></path><path d="m132.17 204.8v77.78c1.97 1.46 3.26 3.79 3.26 6.43v44.02c0 2.64-1.29 4.98-3.26 6.43v6.99l12.95-9.91v-140.04z" fill="#60b7ff"></path><path d="m127.43 281.02h-13.47c4.42 0 8 3.58 8 8v44.02c0 4.42-3.58 8-8 8h13.47c4.42 0 8-3.58 8-8v-44.02c0-4.42-3.58-8-8-8z" fill="#ccdfed"></path><path d="m130.77 403.14c-2.72 2.08-6.38 1.82-8.8-.43v6.16c0 4.42-3.58 8-8 8h13.47c4.42 0 8-3.58 8-8v-9.3z" fill="#ccdfed"></path><path d="m375.83 399-12.32-9.43v5.1l4.77 3.81c2.29 1.82 5.23 1.92 7.55.52z" fill="#60b7ff"></path><path d="m132.17 415.3v80.7h16.32v-106.43l-16.32 12.49 3.26-2.5v9.3c0 2.65-1.29 4.99-3.26 6.44z" fill="#60b7ff"></path></g></svg>