<!-- icon666.com - MILLIONS OF FREE VECTOR ICONS --><svg id="HOTEL" enable-background="new 0 0 32 32" viewBox="0 0 32 32" xmlns="http://www.w3.org/2000/svg"><g><path d="m29.792 21.094-2.327-1.668.529-3.414c.04-.259-.126-.505-.381-.564l-6.618-1.54.226-2.257c.021-.215-.097-.419-.294-.507 0 0-9.219-4.099-9.223-4.101-.326-.145-.702.1-.703.456l-.004 1.916-6.274 3.665c-.182.106-.277.315-.239.522l1.007 5.484-3.252 1.987c-.148.091-.239.253-.239.427v8c0 .276.224.5.5.5h27c.276 0 .5-.224.5-.5v-8c0-.161-.078-.312-.208-.406zm-10.066 5.865.211-2.117 6.136-2.948-.364 2.371zm-.009-10.113-7.717.711v-1.887l7.913-.814zm-7.717 1.716 7.622-.703-.212 2.125-7.41.559zm-1.001-.112-4.269 1.852-.581-3.176 4.835-2.1zm-.002 1.092-.003 3.566-3.47 1.508-.609-3.305zm9.266 2.028 6.344-3.142-.35 2.268-6.204 2.982zm6.531-4.35-6.42 3.18.303-3.044c.001-.008-.003-.016-.003-.025l.238-2.415 6.023 1.401zm-6.605-5.31-.193 1.929-7.996.823-.001-6.394zm-9.196-1.335-.007 3.359-5.023 2.182-.432-2.349zm-7.993 11.205 2.684-1.64 1.623 8.86h-4.307zm4.71 3.874 3.282-1.426-.013 4.772h-2.655zm6.29 3.346v-3h3v3zm3-4h-3v-1h3zm1 4v-3-1-1.5c0-.276-.224-.5-.5-.5h-4c-.276 0-.5.224-.5.5v5.5h-1v-7.453l7.315-.552-.797 8.005zm1.523 0 .089-.892 5.921-2.666-.549 3.558zm9.477 0h-3.004l.661-4.287-.011-.002c.002-.009.009-.016.011-.026l.548-3.576.089-.576 1.706 1.224z"></path></g><g><g><path d="m16.975 7.999c-.078.001-.157-.016-.233-.057l-.742-.389-.742.39c-.168.09-.372.074-.527-.038-.154-.111-.231-.301-.199-.489l.142-.825-.601-.587c-.136-.133-.185-.331-.126-.512.059-.182.215-.313.404-.341l.83-.12.371-.752c.168-.34.729-.34.896 0l.371.752.83.12c.188.027.345.159.404.341.059.181.01.379-.126.512l-.601.586s.141.823.142.825c.053.313-.206.578-.493.584zm-.975-1.512c.08 0 .16.02.233.058l.078.041-.015-.086c-.028-.162.026-.328.144-.442l.064-.063-.088-.013c-.163-.024-.304-.126-.376-.273l-.04-.079-.039.079c-.073.147-.213.249-.376.273l-.088.013.064.063c.118.114.171.28.144.442l-.015.086.078-.041c.072-.038.152-.058.232-.058z"></path></g></g><g><g><path d="m21.975 5.999c-.078.001-.157-.016-.233-.057l-.742-.389-.742.39c-.168.091-.372.075-.527-.038-.154-.111-.231-.301-.199-.489l.142-.825-.601-.587c-.136-.133-.185-.331-.126-.512.059-.182.215-.313.404-.341l.83-.12.371-.752c.168-.34.729-.34.896 0l.371.752.83.12c.188.027.345.159.404.341.059.181.01.379-.126.512l-.601.586s.141.823.142.825c.053.313-.206.578-.493.584zm-.975-1.512c.08 0 .16.02.233.058l.078.041-.015-.086c-.028-.162.026-.328.144-.442l.064-.063-.088-.013c-.163-.024-.304-.126-.376-.273l-.04-.079-.039.079c-.073.147-.213.249-.376.273l-.088.013.064.063c.118.114.171.28.144.442l-.015.086.078-.041c.072-.038.152-.058.232-.058z"></path></g></g><g><g><path d="m26.975 7.999c-.078.001-.157-.016-.233-.057l-.742-.389-.742.39c-.168.09-.372.074-.527-.038-.154-.111-.231-.301-.199-.489l.142-.825-.601-.587c-.136-.133-.185-.331-.126-.512.059-.182.215-.313.404-.341l.83-.12.371-.752c.168-.34.729-.34.896 0l.371.752.83.12c.188.027.345.159.404.341.059.181.01.379-.126.512l-.601.586.142.825c.052.308-.205.578-.493.584zm-.975-1.512c.08 0 .16.02.233.058l.078.041-.015-.086c-.028-.162.026-.328.144-.442l.064-.063-.088-.013c-.163-.024-.304-.126-.376-.273l-.04-.079-.039.079c-.073.147-.213.249-.376.273l-.088.013.064.063c.118.114.171.28.144.442l-.015.086.078-.041c.072-.038.152-.058.232-.058z"></path></g></g><g><g><path d="m11.975 5.999c-.078.001-.157-.016-.233-.057l-.742-.389-.742.39c-.168.09-.371.075-.527-.039-.153-.111-.231-.3-.198-.489l.141-.825s-.6-.586-.601-.587c-.29-.284-.124-.794.278-.853l.83-.12.371-.752c.168-.34.729-.34.896 0l.371.752s.828.12.83.12c.402.058.568.569.277.853l-.6.587s.141.824.142.825c.052.307-.205.578-.493.584zm-.975-1.512c.08 0 .16.02.233.058l.078.041-.015-.086c-.028-.162.026-.328.144-.442l.064-.063-.088-.013c-.163-.024-.304-.126-.376-.273l-.04-.079-.039.079c-.073.147-.213.249-.376.273l-.088.013.064.063c.118.114.171.28.144.442l-.015.086.078-.041c.072-.038.152-.058.232-.058z"></path></g></g><g><g><path d="m6.975 7.997c-.078.002-.158-.014-.233-.055l-.742-.389-.742.39c-.168.089-.372.074-.527-.039-.153-.111-.231-.3-.198-.489l.141-.825s-.599-.586-.601-.587c-.289-.283-.121-.795.278-.853l.83-.12.371-.752c.168-.34.729-.34.896 0l.371.752s.828.12.83.12c.402.058.568.569.277.853l-.6.587s.141.822.142.825c.052.307-.209.572-.493.582zm-.975-1.51c.08 0 .16.02.233.058l.078.041-.015-.086c-.028-.162.026-.328.143-.442l.064-.063-.087-.013c-.164-.024-.304-.126-.377-.273l-.039-.079-.039.079c-.073.147-.213.249-.377.273l-.087.013.064.063c.117.114.171.28.143.442l-.015.086.078-.041c.073-.038.153-.058.233-.058z"></path></g></g></svg>