<!-- icon666.com - MILLIONS OF FREE VECTOR ICONS --><svg viewBox="0 0 64 64" xmlns="http://www.w3.org/2000/svg"><g id="_17-bar" data-name="17-bar"><path d="m63 30h-62a1 1 0 0 1 -1-1v-4a1 1 0 0 1 1-1h62a1 1 0 0 1 1 1v4a1 1 0 0 1 -1 1zm-61-2h60v-2h-60z"></path><path d="m35 40h-12a3 3 0 0 1 -3-3v-2a3 3 0 0 1 3-3h12a3 3 0 0 1 3 3v2a3 3 0 0 1 -3 3zm-12-6a1 1 0 0 0 -1 1v2a1 1 0 0 0 1 1h12a1 1 0 0 0 1-1v-2a1 1 0 0 0 -1-1z"></path><path d="m32 44h-6a1 1 0 0 1 -1-1v-4h2v3h4v-3h2v4a1 1 0 0 1 -1 1z"></path><path d="m36 60h-14a1 1 0 0 1 -1-1 5.006 5.006 0 0 1 5-5h6a5.006 5.006 0 0 1 5 5 1 1 0 0 1 -1 1zm-12.829-2h11.658a3.006 3.006 0 0 0 -2.829-2h-6a3.006 3.006 0 0 0 -2.829 2z"></path><path d="m26 43h2v12h-2z"></path><path d="m30 43h2v12h-2z"></path><path d="m55 40h-12a3 3 0 0 1 -3-3v-2a3 3 0 0 1 3-3h12a3 3 0 0 1 3 3v2a3 3 0 0 1 -3 3zm-12-6a1 1 0 0 0 -1 1v2a1 1 0 0 0 1 1h12a1 1 0 0 0 1-1v-2a1 1 0 0 0 -1-1z"></path><path d="m52 44h-6a1 1 0 0 1 -1-1v-4h2v3h4v-3h2v4a1 1 0 0 1 -1 1z"></path><path d="m56 60h-14a1 1 0 0 1 -1-1 5.006 5.006 0 0 1 5-5h6a5.006 5.006 0 0 1 5 5 1 1 0 0 1 -1 1zm-12.829-2h11.658a3.006 3.006 0 0 0 -2.829-2h-6a3.006 3.006 0 0 0 -2.829 2z"></path><path d="m46 43h2v12h-2z"></path><path d="m50 43h2v12h-2z"></path><path d="m61 53h-10v-2h9v-22h2v23a1 1 0 0 1 -1 1z"></path><path d="m31 51h16v2h-16z"></path><path d="m27 53h-24a1 1 0 0 1 -1-1v-23h2v22h23z"></path><path d="m18 26h-8a1 1 0 0 1 -.98-.8l-2-10a1 1 0 0 1 .98-1.2h12a1 1 0 0 1 .98 1.2l-2 10a1 1 0 0 1 -.98.8zm-7.181-2h6.362l1.6-8h-9.561z"></path><path d="m33 25h-2v-10a3.78 3.78 0 0 0 -.832-2.445 5.744 5.744 0 0 1 -1.168-3.555v-3h-2v3a5.744 5.744 0 0 1 -1.168 3.555 3.78 3.78 0 0 0 -.832 2.445v10h-2v-10a5.744 5.744 0 0 1 1.168-3.555 3.78 3.78 0 0 0 .832-2.445v-4a1 1 0 0 1 1-1h4a1 1 0 0 1 1 1v4a3.78 3.78 0 0 0 .832 2.445 5.744 5.744 0 0 1 1.168 3.555z"></path><path d="m26 7h4v2h-4z"></path><path d="m24 14h8v2h-8z"></path><path d="m24 20h8v2h-8z"></path><path d="m40 21a1 1 0 0 1 -.781-.375l-4-5a1 1 0 0 1 .781-1.625h8a1 1 0 0 1 .781 1.625l-4 5a1 1 0 0 1 -.781.375zm-1.919-5 1.919 2.4 1.919-2.4z"></path><path d="m39 20h2v5h-2z"></path><path d="m52 21a1 1 0 0 1 -.781-.375l-4-5a1 1 0 0 1 .781-1.625h8a1 1 0 0 1 .781 1.625l-4 5a1 1 0 0 1 -.781.375zm-1.919-5 1.919 2.4 1.919-2.4z"></path><path d="m51 20h2v5h-2z"></path><path d="m3 47h17v2h-17z"></path><path d="m22 47h2v2h-2z"></path><path d="m34 47h13v2h-13z"></path><path d="m54 47h7v2h-7z"></path></g></svg>