<?xml version="1.0" encoding="UTF-8" standalone="no"?>
<!-- Created with Inkscape (http://www.inkscape.org/) -->

<svg
   version="1.1"
   id="svg1"
   width="349.66281"
   height="274.70386"
   viewBox="0 0 349.66281 274.70386"
   xmlns="http://www.w3.org/2000/svg"
   xmlns:svg="http://www.w3.org/2000/svg">
  <defs
     id="defs1" />
  <g
     id="g1"
     transform="translate(-48.765458,-62.52403)">
    <path
       style="fill:#000000;stroke-width:2.49827;paint-order:fill markers stroke"
       d="m 379.62394,197.5385 v 4.09599 l 4.46835,4.09599 v 0.93091 l 9.68144,-0.37236 4.09599,-3.35127 0.55854,-6.70253 -5.0269,-4.28217 -10.05379,-0.37237 z"
       id="path1" />
    <path
       style="fill:#000000;stroke-width:2.49827;paint-order:fill markers stroke"
       d="M 362.30906,223.79008 V 169.4251 c 0,0 5.0269,-4.46835 7.26108,-4.46835 2.23418,0 6.14399,3.53744 7.26108,5.21308 1.11708,1.67563 0,54.36498 0,54.36498 l -3.53745,5.02689 h -7.44726 z"
       id="path2" />
    <path
       style="fill:#000000;stroke-width:2.49827;paint-order:fill markers stroke"
       d="m 339.40875,154.15822 6.70253,-8.19198 h 5.95781 l 5.39926,5.58544 -0.37237,97.37289 c 0,0 -1.67563,5.21308 -8.0058,5.95781 -6.33017,0.74472 -9.12289,-7.63344 -9.12289,-7.63344 z"
       id="path3" />
    <path
       style="fill:#000000;stroke-width:2.49827;paint-order:fill markers stroke"
       d="m 294.35284,195.86287 c 0,0 3.16509,-4.096 5.77163,-4.096 2.60654,0 29.60284,-0.18618 29.60284,-0.18618 0,0 4.65454,3.72363 4.65454,7.44726 0,3.72363 -1.48945,7.07489 -3.35127,7.63344 -1.86181,0.55854 -32.76793,0.18618 -32.76793,0.18618 0,0 -3.72363,-1.30327 -4.09599,-2.60654 -0.37236,-1.30327 0.18618,-8.37816 0.18618,-8.37816 z"
       id="path4" />
    <path
       style="fill:#000000;stroke-width:2.55148;paint-order:fill markers stroke"
       d="m 68.37932,197.5385 v 4.09599 l -4.660719,4.09599 v 0.93091 l -10.098231,-0.37236 -4.272326,-3.35127 -0.582586,-6.70253 5.243312,-4.28217 10.486609,-0.37237 z"
       id="path5" />
    <path
       style="fill:#000000;stroke-width:2.55148;paint-order:fill markers stroke"
       d="M 86.439611,223.79008 V 169.4251 c 0,0 -5.243305,-4.46835 -7.573668,-4.46835 -2.330363,0 -6.408497,3.53744 -7.573675,5.21308 -1.16517,1.67563 0,54.36498 0,54.36498 l 3.689734,5.02689 h 7.767875 z"
       id="path6" />
    <path
       style="fill:#000000;stroke-width:2.55148;paint-order:fill markers stroke"
       d="m 110.3258,154.15822 -6.99108,-8.19198 h -6.2143 l -5.631697,5.58544 0.3884,97.37289 c 0,0 1.747763,5.21308 8.350457,5.95781 6.60269,0.74472 9.51563,-7.63344 9.51563,-7.63344 z"
       id="path7" />
    <path
       style="fill:#000000;stroke-width:2.55148;paint-order:fill markers stroke"
       d="m 157.3214,195.86287 c 0,0 -3.30135,-4.096 -6.02011,-4.096 -2.71875,0 -30.87726,-0.18618 -30.87726,-0.18618 0,0 -4.85492,3.72363 -4.85492,7.44726 0,3.72363 1.55357,7.07489 3.49555,7.63344 1.94195,0.55854 34.17861,0.18618 34.17861,0.18618 0,0 3.88393,-1.30327 4.27232,-2.60654 0.38839,-1.30327 -0.19419,-8.37816 -0.19419,-8.37816 z"
       id="path8" />
    <path
       id="path9"
       style="fill:#ffffff;stroke:#000000;stroke-width:8.89752;stroke-linecap:round;stroke-linejoin:round;paint-order:fill markers stroke"
       d="M 197.52168,261.62198 C 172.67634,250.99584 155.27476,226.39781 155.27476,197.75 c 0,-38.37011 31.21705,-69.47524 69.72524,-69.47524 38.50819,0 69.72524,31.10513 69.72524,69.47524 0,38.37011 -31.21705,69.47524 -69.72524,69.47524 -5.16356,0 -10.19602,-0.55927 -15.0397,-1.62034 m -12.43862,-3.98292 c 3.96972,1.69781 8.12946,3.03894 12.43862,3.98292 l 0.40397,-58.06906 35.70889,-5.65685 v -9.8995 l -34.29468,4.94975 1.06066,-27.93072 30.75915,-4.24264 4.94974,-11.66726 -47.37615,6.71751 c 0,0 -2.12132,7.77818 -2.47487,12.72793 -0.35356,4.94974 -1.17533,89.08792 -1.17533,89.08792 z" />
    <path
       style="font-size:44.0344px;line-height:1;font-family:Audiowide;-inkscape-font-specification:Audiowide;word-spacing:0px;stroke-width:0;stroke-linecap:round;stroke-linejoin:round;paint-order:fill markers stroke;stroke-dasharray:none;fill:#000000;fill-opacity:1;opacity:1;stroke:none"
       d="m 155.62391,79.240386 h -17.67396 v -5.633308 h 17.67396 z m 2.49414,-12.64269 h -22.40422 v 25.242377 h -5.59031 V 63.824045 q 0,-0.580532 0.21502,-1.09656 0.21501,-0.516028 0.58053,-0.903049 0.38702,-0.387021 0.90305,-0.602033 0.51602,-0.215011 1.11806,-0.215011 h 25.17787 z m 10.14855,25.242377 h -5.5903 V 61.007392 h 5.5903 z M 202.66848,66.597696 H 190.34831 V 91.840073 H 184.758 V 66.597696 h -12.34167 v -5.590304 h 30.25215 z m 34.9179,22.855747 q 0,0.602032 -0.23651,1.11806 -0.21501,0.516029 -0.60203,0.90305 -0.36552,0.36552 -0.88155,0.580531 -0.51603,0.215012 -1.09656,0.215012 -0.51603,0 -1.05356,-0.19351 -0.51603,-0.193511 -0.92455,-0.623534 L 212.36551,70.123889 V 91.840073 H 206.7752 V 63.394022 q 0,-0.860047 0.47303,-1.548085 0.49453,-0.709538 1.24707,-1.053557 0.79554,-0.322518 1.63409,-0.150508 0.83854,0.150508 1.44057,0.774042 l 20.42612,21.307662 V 61.007392 h 5.5903 z m 31.84324,-10.213057 h -17.65246 v -5.633308 h 17.65246 z m 2.51564,12.599687 h -20.1681 q -1.16107,0 -2.53714,-0.408523 -1.37608,-0.408522 -2.55864,-1.333072 -1.16106,-0.946052 -1.95661,-2.429633 -0.77404,-1.505082 -0.77404,-3.6767 v -20.1681 q 0,-0.580532 0.21501,-1.09656 0.21501,-0.516028 0.58053,-0.903049 0.38703,-0.387021 0.90305,-0.602033 0.51603,-0.215011 1.11806,-0.215011 h 25.17788 v 5.590304 h -22.40422 v 17.394449 q 0,1.09656 0.58053,1.677091 0.58053,0.580532 1.69859,0.580532 h 20.1251 z m 34.9179,-9.073495 q 0,1.65559 -0.43002,2.988663 -0.40852,1.311571 -1.09656,2.322126 -0.68804,1.010556 -1.61259,1.720094 -0.92455,0.709539 -1.9136,1.161064 -0.98906,0.451524 -2.02111,0.666536 -1.01056,0.215012 -1.91361,0.215012 H 276.31 v -5.590305 h 21.56567 q 1.61259,0 2.49414,-0.946052 0.90305,-0.946051 0.90305,-2.537138 0,-0.774042 -0.23652,-1.419077 -0.23651,-0.645036 -0.68803,-1.118061 -0.43003,-0.473026 -1.07506,-0.73104 -0.62354,-0.258014 -1.39758,-0.258014 h -12.8577 q -1.35457,0 -2.92416,-0.473026 -1.56958,-0.494527 -2.92416,-1.569586 -1.33307,-1.075058 -2.23612,-2.816653 -0.88155,-1.741595 -0.88155,-4.257232 0,-2.515638 0.88155,-4.235731 0.90305,-1.741595 2.23612,-2.816654 1.35458,-1.09656 2.92416,-1.569586 1.56959,-0.494526 2.92416,-0.494526 h 19.02854 v 5.590304 h -19.02854 q -1.59109,0 -2.49414,0.967553 -0.88154,0.967553 -0.88154,2.55864 0,1.612587 0.88154,2.558639 0.90305,0.92455 2.49414,0.92455 h 12.8577 0.043 q 0.90305,0.0215 1.91361,0.258015 1.01055,0.215011 1.99961,0.688037 1.01055,0.473026 1.9136,1.204066 0.90305,0.709538 1.59109,1.720094 0.70954,1.010555 1.11806,2.322126 0.40852,1.311572 0.40852,2.967162 z m 34.27287,0 q 0,1.65559 -0.43002,2.988663 -0.40852,1.311571 -1.09656,2.322126 -0.68804,1.010556 -1.61259,1.720094 -0.92455,0.709539 -1.9136,1.161064 -0.98905,0.451524 -2.02111,0.666536 -1.01056,0.215012 -1.91361,0.215012 h -21.56567 v -5.590305 h 21.56567 q 1.61259,0 2.49414,-0.946052 0.90305,-0.946051 0.90305,-2.537138 0,-0.774042 -0.23651,-1.419077 -0.23652,-0.645036 -0.68804,-1.118061 -0.43002,-0.473026 -1.07506,-0.73104 -0.62353,-0.258014 -1.39758,-0.258014 h -12.8577 q -1.35457,0 -2.92416,-0.473026 -1.56958,-0.494527 -2.92416,-1.569586 -1.33307,-1.075058 -2.23612,-2.816653 -0.88155,-1.741595 -0.88155,-4.257232 0,-2.515638 0.88155,-4.235731 0.90305,-1.741595 2.23612,-2.816654 1.35458,-1.09656 2.92416,-1.569586 1.56959,-0.494526 2.92416,-0.494526 h 19.02854 v 5.590304 h -19.02854 q -1.59108,0 -2.49413,0.967553 -0.88155,0.967553 -0.88155,2.55864 0,1.612587 0.88155,2.558639 0.90305,0.92455 2.49413,0.92455 h 12.8577 0.043 q 0.90305,0.0215 1.9136,0.258015 1.01056,0.215011 1.99961,0.688037 1.01056,0.473026 1.9136,1.204066 0.90305,0.709538 1.59109,1.720094 0.70954,1.010555 1.11806,2.322126 0.40852,1.311572 0.40852,2.967162 z"
       id="text9"
       transform="scale(0.96894018,1.0320555)"
       aria-label="FITNESS" />
    <path
       d="m 203.24897,323.93698 q 0,0.60203 -0.23651,1.11806 -0.21501,0.51603 -0.60203,0.90305 -0.36552,0.36552 -0.88155,0.58053 -0.51603,0.21501 -1.09656,0.21501 -0.51603,0 -1.05356,-0.19351 -0.51603,-0.19351 -0.92455,-0.62353 L 178.0281,304.60742 v 21.71619 h -5.59031 v -28.44605 q 0,-0.86005 0.47303,-1.54809 0.49453,-0.70954 1.24707,-1.05355 0.79554,-0.32252 1.63409,-0.15051 0.83854,0.15051 1.44057,0.77404 l 20.42612,21.30766 v -21.71618 h 5.5903 z m 38.85262,-10.08405 q 0,2.81665 -0.96755,5.18178 -0.96755,2.36513 -2.68765,4.08522 -1.72009,1.7201 -4.08522,2.68765 -2.34363,0.94605 -5.11728,0.94605 h -7.56841 q -2.77365,0 -5.13878,-0.94605 -2.36513,-0.96755 -4.08522,-2.68765 -1.7201,-1.72009 -2.70915,-4.08522 -0.96755,-2.36513 -0.96755,-5.18178 v -5.89132 q 0,-2.79516 0.96755,-5.16028 0.98905,-2.38663 2.70915,-4.08523 1.72009,-1.72009 4.08522,-2.68764 2.36513,-0.96756 5.13878,-0.96756 h 7.56841 q 2.77365,0 5.11728,0.96756 2.36513,0.96755 4.08522,2.68764 1.7201,1.6986 2.68765,4.08523 0.96755,2.36512 0.96755,5.16028 z m -5.5903,-5.89132 q 0,-1.65559 -0.53753,-2.98867 -0.51603,-1.35457 -1.48358,-2.30062 -0.94605,-0.96755 -2.30063,-1.48358 -1.33307,-0.53753 -2.94566,-0.53753 h -7.56841 q -1.63409,0 -2.98866,0.53753 -1.33308,0.51603 -2.30063,1.48358 -0.96755,0.94605 -1.50508,2.30062 -0.51603,1.33308 -0.51603,2.98867 v 5.89132 q 0,1.65559 0.51603,3.01016 0.53753,1.33308 1.50508,2.30063 0.96755,0.94605 2.30063,1.48358 1.35457,0.51603 2.98866,0.51603 h 7.52541 q 1.63409,0 2.96716,-0.51603 1.35457,-0.53753 2.32213,-1.48358 0.96755,-0.96755 1.48358,-2.30063 0.53753,-1.35457 0.53753,-3.01016 z m 50.22674,-12.47068 -5.16028,28.89757 q -0.17201,0.86005 -0.77405,1.48358 -0.60203,0.62354 -1.46208,0.79555 -0.88154,0.15051 -1.67709,-0.19351 -0.77404,-0.34402 -1.22556,-1.07506 l -10.23456,-16.81392 -10.25606,16.81392 q -0.36552,0.62353 -1.01056,0.96755 -0.62353,0.34402 -1.35457,0.34402 -1.01056,0 -1.7846,-0.64504 -0.77404,-0.64503 -0.94605,-1.67709 l -5.20328,-28.89757 h 5.67631 l 3.6982,20.36161 8.81548,-14.06177 q 0.36552,-0.62353 0.98905,-0.96755 0.64504,-0.34402 1.37608,-0.34402 0.73104,0 1.35457,0.34402 0.62354,0.34402 1.03206,0.96755 l 8.77248,14.06177 3.6982,-20.36161 z"
       id="text15"
       style="font-size:44.0344px;line-height:1;font-family:Audiowide;-inkscape-font-specification:Audiowide;word-spacing:0px;stroke-width:0;stroke-linecap:round;stroke-linejoin:round;paint-order:fill markers stroke;fill:#000000;fill-opacity:1;stroke:none;stroke-dasharray:none"
       transform="scale(0.96894015,1.0320555)"
       aria-label="NOW" />
  </g>
</svg>
