<?xml version="1.0" encoding="UTF-8" standalone="no"?>
<!-- Created with Inkscape (http://www.inkscape.org/) -->

<svg
   width="54.270523mm"
   height="10.918386mm"
   viewBox="0 0 54.270523 10.918386"
   version="1.1"
   id="svg1"
   xml:space="preserve"
   xmlns="http://www.w3.org/2000/svg"
   xmlns:svg="http://www.w3.org/2000/svg"><defs
     id="defs1" /><g
     id="layer2"
     transform="translate(-16.014477,-26.458768)"><g
       id="text7"
       style="font-size:9.87778px;line-height:0.7;font-family:Audiowide;-inkscape-font-specification:Audiowide;word-spacing:0px;stroke-width:0.661458;stroke-linecap:round;stroke-linejoin:round;paint-order:fill markers stroke"
       aria-label="THE GARCIA&#10;Ubud - Bali"
       transform="matrix(0.5170289,0,0,0.5170289,22.413899,10.291153)" /><path
       style="fill:#000000;stroke-width:0;stroke-linecap:round;stroke-linejoin:round;stroke-dasharray:none;paint-order:fill markers stroke"
       d="m 16.014477,30.019041 c 0,0 0.712882,-2.050733 2.67828,-3.038393 1.194705,-0.600368 3.513841,-0.577865 4.751246,-0.05733 2.440924,1.026804 2.76107,3.406101 2.76107,3.406101 0,0 0.84104,3.471903 -1.500368,5.67823 -1.905192,1.795278 -4.190214,1.318231 -5.457283,0.916651 -0.385617,-0.122216 -1.006085,-0.354717 -1.325221,-0.600701 -0.857265,-0.660765 -1.754975,-1.90159 -1.862697,-2.117033 m 0,0 c 0,0 3.782275,4.3226 7.249361,0.675406 0,0 -2.386436,1.485894 -4.592763,-0.09005 -2.206327,-1.575948 -0.855515,-4.63779 -0.855515,-4.63779 0,0 0.900542,-1.71103 3.016815,-1.846111 2.116274,-0.135081 2.386436,0.855515 2.386436,0.855515 0,0 -0.31519,-1.260759 -3.196923,-1.620975 -2.881734,-0.360217 -4.052438,2.476489 -4.052438,2.476489"
       id="path6" /><path
       id="path8"
       style="stroke-width:0;stroke-linecap:round;stroke-linejoin:round;paint-order:fill markers stroke"
       d="m 24.79476,32.022743 a 3.7147353,3.6697078 0 0 1 -3.714735,3.669708 3.7147353,3.6697078 0 0 1 -3.714736,-3.669708 3.7147353,3.6697078 0 0 1 3.714736,-3.669708 3.7147353,3.6697078 0 0 1 3.714735,3.669708 z" /><path
       id="path7"
       style="fill:#00ffff;stroke-width:0.661458;stroke-linecap:round;stroke-linejoin:round;paint-order:fill markers stroke"
       d="m 23.579028,31.955206 a 2.4990034,2.4764898 0 0 1 -2.499003,2.47649 2.4990034,2.4764898 0 0 1 -2.499004,-2.47649 2.4990034,2.4764898 0 0 1 2.499004,-2.47649 2.4990034,2.4764898 0 0 1 2.499003,2.47649 z" /><path
       style="font-size:11.2889px;line-height:1;font-family:Baskerville;-inkscape-font-specification:Baskerville;word-spacing:0px;stroke-width:0;stroke-linecap:round;stroke-linejoin:round;paint-order:fill markers stroke;stroke-dasharray:none"
       d="m 28.370548,27.919686 v -0.253559 h 3.417538 v 0.253559 h -0.159853 q -0.551215,0 -0.722092,0.09371 -0.170877,0.08819 -0.231511,0.336241 -0.05512,0.248048 -0.05512,1.179602 v 3.665586 q 0,0.881945 0.03859,1.157553 0.0441,0.270096 0.220486,0.402387 0.181901,0.132292 0.68902,0.132292 h 0.220486 v 0.25356 h -3.417538 v -0.25356 h 0.220486 q 0.479558,0 0.661459,-0.121267 0.187414,-0.121268 0.237023,-0.374827 0.04961,-0.259071 0.04961,-1.196138 v -3.665586 q 0,-0.892969 -0.04961,-1.152041 -0.04961,-0.259071 -0.220486,-0.35829 -0.170877,-0.09922 -0.73863,-0.09922 z m 5.258599,2.524569 h 0.148828 q 0.12678,0.341753 0.143316,0.931554 0.396876,-0.468533 0.832336,-0.700044 0.435461,-0.23151 0.909506,-0.23151 0.540192,0 0.881946,0.225998 0.347266,0.225999 0.446485,0.556728 0.09922,0.325217 0.09922,0.953604 v 1.411112 q 0,0.782727 0.02756,0.953603 0.02756,0.170877 0.170877,0.259072 0.148828,0.08268 0.540192,0.08268 v 0.25356 h -2.309595 v -0.25356 h 0.104731 q 0.396876,0 0.518143,-0.115755 0.121268,-0.115755 0.137804,-0.270096 0.01654,-0.15434 0.01654,-0.909506 v -1.45521 q 0,-0.534679 -0.05512,-0.760678 -0.04961,-0.23151 -0.28112,-0.407899 -0.225999,-0.176389 -0.578777,-0.176389 -0.402387,0 -0.771702,0.242535 -0.363802,0.237022 -0.68902,0.71658 v 1.841061 q 0,0.782727 0.02756,0.953603 0.03307,0.170877 0.176389,0.259072 0.148828,0.08268 0.545704,0.08268 v 0.25356 h -2.282034 v -0.25356 q 0.380339,0 0.529167,-0.07717 0.148829,-0.07717 0.181902,-0.231511 0.03858,-0.159852 0.03858,-0.986676 V 32.24673 q 0,-0.788238 -0.03307,-0.953603 -0.02756,-0.170877 -0.176389,-0.253559 -0.143316,-0.08819 -0.540192,-0.08819 v -0.253559 q 0.606338,-0.06615 1.240236,-0.253559 z m 6.868149,4.87826 H 40.177591 L 38.573553,31.701027 Q 38.33653,31.177372 38.198726,31.034056 38.060922,30.890739 37.746729,30.879715 v -0.253559 h 2.039499 v 0.253559 q -0.336242,0 -0.463022,0.05512 -0.121267,0.05512 -0.121267,0.209462 0,0.121267 0.220486,0.589801 l 1.218187,2.739542 1.09692,-2.441886 q 0.259071,-0.584289 0.259071,-0.760678 0,-0.369314 -0.551216,-0.391363 v -0.253559 h 1.521356 v 0.253559 q -0.28112,0.01654 -0.474046,0.237023 -0.187413,0.214974 -0.529167,0.975652 z m 2.640325,-2.447399 q 0,-1.036285 0.694532,-1.730817 0.694532,-0.700044 1.708769,-0.700044 1.019749,0 1.714281,0.700044 0.694532,0.700044 0.694532,1.730817 0,1.141017 -0.705556,1.796964 -0.705557,0.650435 -1.703257,0.650435 -0.997701,0 -1.703257,-0.661459 -0.700044,-0.666971 -0.700044,-1.78594 z m 0.915018,0.02756 q 0,1.201651 0.391363,1.686721 0.391363,0.479557 1.09692,0.479557 0.722092,0 1.102431,-0.479557 0.385851,-0.48507 0.385851,-1.686721 0,-1.190626 -0.380338,-1.697745 -0.380339,-0.507118 -1.107944,-0.507118 -0.722093,0 -1.107944,0.507118 -0.380339,0.501607 -0.380339,1.697745 z m 11.44324,-0.567752 h 0.237023 V 34.9532 h -0.237023 q -0.09922,-0.446485 -0.358291,-0.788238 -0.986676,1.113456 -2.519056,1.113456 -1.620574,0 -2.651348,-1.025262 -1.025262,-1.025261 -1.025262,-2.711982 0,-1.107944 0.474046,-2.083596 0.474046,-0.981164 1.322918,-1.45521 0.848872,-0.474045 1.86311,-0.474045 0.837848,0 1.515843,0.347266 0.683508,0.341754 1.019749,0.760678 0.237023,-0.468534 0.286633,-0.97014 h 0.242535 l 0.06615,2.833249 h -0.237023 q -0.248047,-1.510331 -1.014237,-2.100132 -0.760678,-0.589801 -1.719794,-0.589801 -1.17409,0 -1.868621,0.953603 -0.68902,0.953604 -0.68902,2.728519 0,1.681208 0.755165,2.57969 0.755166,0.892969 1.879646,0.892969 0.600826,0 1.229212,-0.292144 0.628386,-0.292144 0.992188,-0.986676 0.369315,-0.700044 0.435461,-1.350479 z m 5.953131,1.978865 h 0.20395 q -0.04961,0.942579 -0.926043,0.942579 -0.374827,0 -0.595313,-0.198438 -0.214974,-0.198438 -0.28112,-0.589801 -0.551216,0.391363 -1.008725,0.589801 -0.451997,0.198438 -0.810287,0.198438 -0.457509,0 -0.788239,-0.264584 -0.330729,-0.264583 -0.330729,-0.700044 0,-0.567752 0.551216,-0.992188 0.556728,-0.424437 1.53238,-0.826824 l 0.854384,-0.347266 v -0.220486 q 0,-0.468534 -0.06063,-0.677996 -0.06063,-0.209462 -0.314193,-0.374827 -0.253559,-0.165364 -0.666971,-0.165364 -0.826824,0 -0.92053,0.551215 -0.08819,0.562241 -0.463022,0.562241 -0.336241,0 -0.336241,-0.319706 0,-0.314193 0.446485,-0.672483 0.446484,-0.363802 1.389063,-0.363802 0.700045,0 1.085896,0.220486 0.385851,0.220486 0.507118,0.501606 0.12678,0.28112 0.12678,0.859897 v 1.824524 q 0,0.639411 0.06615,0.821312 0.06615,0.181901 0.286632,0.181901 0.363802,0 0.451997,-0.540191 z m -1.598526,-1.929256 -0.600825,0.242535 q -1.422137,0.578777 -1.422137,1.45521 0,0.347266 0.181901,0.56224 0.181901,0.209462 0.474046,0.209462 0.259071,0 0.600825,-0.170877 0.341754,-0.170877 0.76619,-0.51263 z m 3.797877,-0.788238 q 0.187413,-0.490582 0.606337,-0.821312 0.424437,-0.330729 0.826824,-0.330729 0.363803,0 0.573265,0.225998 0.209462,0.225999 0.209462,0.463021 0,0.159853 -0.110244,0.275608 -0.104731,0.115756 -0.259071,0.115756 -0.275608,0 -0.418924,-0.4079 -0.09922,-0.275608 -0.297657,-0.275608 -0.237022,0 -0.567752,0.325217 -0.330729,0.319706 -0.424436,0.666972 -0.09371,0.347266 -0.09371,0.953603 v 0.804775 q 0,0.722093 0.01654,0.909506 0.02205,0.187414 0.159852,0.286632 0.137804,0.09922 0.490582,0.09922 h 0.154341 v 0.25356 h -2.397789 v -0.25356 h 0.115755 q 0.33073,0 0.468534,-0.08819 0.143316,-0.09371 0.170877,-0.259072 0.02756,-0.165364 0.02756,-0.948091 v -1.273309 q 0,-0.727604 -0.02205,-0.909506 -0.01654,-0.187413 -0.154341,-0.286632 -0.137804,-0.104731 -0.490582,-0.104731 h -0.115755 v -0.248047 q 0.518143,-0.06063 1.355991,-0.325217 0.159852,0.43546 0.176389,1.152041 z M 70.285,32.153024 h -3.147442 q -0.02205,0.325217 -0.02205,0.48507 0,1.190626 0.369314,1.791451 0.374827,0.595313 1.113456,0.595313 1.003213,0 1.422137,-0.898482 H 70.285 q -0.176389,0.562241 -0.700044,0.881946 -0.523655,0.314193 -1.141017,0.314193 -0.573264,0 -1.085895,-0.286632 -0.507119,-0.292145 -0.832336,-0.821312 -0.325217,-0.529167 -0.325217,-1.284333 0,-1.069359 0.628386,-1.774915 0.628386,-0.711068 1.570965,-0.711068 0.887457,0 1.372527,0.540191 0.48507,0.540192 0.512631,1.168578 z m -0.964628,-0.220487 q 0.01654,-0.126779 0.01654,-0.225998 0,-0.48507 -0.286633,-0.749654 -0.28112,-0.270095 -0.694531,-0.270095 -1.003213,0 -1.196139,1.245747 z"
       id="text8"
       aria-label="InvoCare" /></g></svg>
