<?xml version="1.0" encoding="UTF-8" standalone="no"?>
<!-- Created with Inkscape (http://www.inkscape.org/) -->

<svg
   version="1.1"
   id="svg1"
   width="357.65552"
   height="220.48926"
   viewBox="0 0 357.65552 220.48926"
   xmlns="http://www.w3.org/2000/svg"
   xmlns:svg="http://www.w3.org/2000/svg">
  <defs
     id="defs1" />
  <g
     id="g1"
     transform="translate(-36.057912,-28.992509)">
    <path
       id="rect1"
       style="stroke-width:0;stroke-linecap:round;stroke-linejoin:round;paint-order:fill markers stroke"
       d="m 52.625061,150.07887 h 13.643534 v 96.47928 H 52.625061 Z" />
    <path
       id="rect2"
       style="stroke-width:0;stroke-linecap:round;stroke-linejoin:round;paint-order:fill markers stroke"
       d="m 363.50275,153.00249 h 13.64353 v 96.47928 h -13.64353 z" />
    <path
       style="fill:#000000;stroke-width:0;stroke-linecap:round;stroke-linejoin:round;paint-order:fill markers stroke"
       d="M 36.057912,144.23165 214.88566,68.217671 393.71342,145.20619 387.86619,155.43884 213.91113,77.963053 40.930603,154.4643 Z"
       id="path3" />
    <path
       style="fill:#000000;stroke-width:0;stroke-linecap:round;stroke-linejoin:round;paint-order:fill markers stroke"
       d="m 177.36595,90.14478 0.34201,13.78625 3.49703,-0.22886 0.0591,-15.506467 z"
       id="path5" />
    <path
       style="fill:#000000;stroke-width:0;stroke-linecap:round;stroke-linejoin:round;paint-order:fill markers stroke"
       d="m 246.55816,85.515724 0.34201,13.78625 3.49703,-0.22886 0.0591,-15.506467 z"
       id="path6" />
    <path
       style="fill:#000000;stroke-width:0;stroke-linecap:round;stroke-linejoin:round;paint-order:fill markers stroke"
       d="m 295.28506,98.915623 11.9381,5.847227 0.24363,-26.312528 -12.18173,0.243634 z"
       id="path7" />
    <path
       style="fill:#000000;stroke-width:0;stroke-linecap:round;stroke-linejoin:round;paint-order:fill markers stroke"
       d="m 140.82077,148.1298 144.23164,-9.74538 -2.43634,-40.930604 -147.64253,9.745374 z"
       id="path11" />
    <path
       id="path8"
       style="stroke-width:0;stroke-linecap:round;stroke-linejoin:round;paint-order:fill markers stroke"
       d="m 313.31403,63.101345 a 10.841737,10.71992 0 0 1 -10.84174,10.71992 10.841737,10.71992 0 0 1 -10.84174,-10.71992 10.841737,10.71992 0 0 1 10.84174,-10.71992 10.841737,10.71992 0 0 1 10.84174,10.71992 z" />
    <path
       id="path9"
       style="stroke-width:0;stroke-linecap:round;stroke-linejoin:round;paint-order:fill markers stroke"
       d="m 333.0484,34.230652 a 6.2126808,5.2381425 0 0 1 -6.21268,5.238142 6.2126808,5.2381425 0 0 1 -6.21268,-5.238142 6.2126808,5.2381425 0 0 1 6.21268,-5.238143 6.2126808,5.2381425 0 0 1 6.21268,5.238143 z" />
    <path
       id="path10"
       style="stroke-width:0;stroke-linecap:round;stroke-linejoin:round;paint-order:fill markers stroke"
       d="m 319.16125,43.488766 a 9.2581129,8.1617575 0 0 1 -9.25811,8.161757 9.2581129,8.1617575 0 0 1 -9.25812,-8.161757 9.2581129,8.1617575 0 0 1 9.25812,-8.161758 9.2581129,8.1617575 0 0 1 9.25811,8.161758 z" />
    <path
       style="font-size:36.6183px;line-height:1;font-family:Impact;-inkscape-font-specification:Impact;text-align:center;letter-spacing:-2.23633px;word-spacing:0px;text-anchor:middle;fill:#00ffff;stroke-width:0;stroke-linecap:round;stroke-linejoin:round;paint-order:fill markers stroke"
       d="m 109.87055,162.15131 v 19.34619 q 0,4.34485 -0.0894,5.59645 -0.0894,1.23372 -0.82248,2.235 -0.7152,1.00128 -1.9668,1.39464 -1.23372,0.37549 -3.73693,0.37549 h -3.772685 v -5.06005 q 0.679445,0.0536 0.983405,0.0536 0.8046,0 1.26948,-0.39336 0.46488,-0.39336 0.5364,-0.96553 0.0715,-0.57216 0.0715,-2.21712 v -20.36535 z m 8.20561,0 v 28.94777 h -7.52749 v -28.94777 z m 24.01155,0 v 28.94777 h -6.57985 V 171.5562 l -2.62836,19.54288 h -4.66669 l -2.7714,-19.09588 v 19.09588 h -6.57985 v -28.94777 h 9.74461 q 0.42912,2.61048 0.91188,6.15073 l 1.03705,7.36657 1.71648,-13.5173 z m 24.01156,0 v 28.94777 h -6.57985 V 171.5562 l -2.62837,19.54288 h -4.66668 l -2.77141,-19.09588 v 19.09588 h -6.57985 v -28.94777 h 9.74462 q 0.42912,2.61048 0.91188,6.15073 l 1.03704,7.36657 1.71648,-13.5173 z m 16.82378,0 -5.48917,18.47007 v 10.4777 h -6.97321 v -10.4777 l -5.29249,-18.47007 h 6.91957 q 1.62709,8.45725 1.82377,11.38958 0.6258,-4.63093 2.09196,-11.38958 z m -0.85957,9.31549 -0.94764,-4.88125 v -4.43424 h 5.47129 v 4.43424 l -0.82248,4.88125 z m 20.39979,-0.55428 h -6.99109 v -2.1456 q 0,-1.50192 -0.2682,-1.91317 -0.2682,-0.41124 -0.89401,-0.41124 -0.67944,0 -1.03704,0.55428 -0.33972,0.55429 -0.33972,1.68073 0,1.44828 0.39336,2.18136 0.37548,0.73308 2.12773,1.77012 5.02428,2.98597 6.32953,4.89913 1.30524,1.91317 1.30524,6.16861 0,3.09325 -0.73308,4.55941 -0.7152,1.46616 -2.78929,2.46744 -2.07408,0.98341 -4.82761,0.98341 -3.02172,0 -5.16732,-1.14433 -2.12773,-1.14432 -2.78929,-2.91444 -0.66156,-1.77012 -0.66156,-5.02429 v -1.89528 h 6.99109 v 3.52236 q 0,1.62709 0.28608,2.09197 0.30396,0.46488 1.05492,0.46488 0.75097,0 1.10857,-0.59004 0.37548,-0.59004 0.37548,-1.75225 0,-2.55684 -0.69732,-3.34356 -0.71521,-0.78672 -3.52237,-2.62837 -2.80716,-1.85952 -3.71905,-2.69988 -0.91188,-0.84036 -1.5198,-2.3244 -0.59004,-1.48405 -0.59004,-3.79057 0,-3.32569 0.84036,-4.86337 0.85824,-1.53768 2.75353,-2.39592 1.89528,-0.87612 4.57728,-0.87612 2.93233,0 4.98853,0.94764 2.07409,0.94764 2.73565,2.39592 0.67944,1.4304 0.67944,4.88125 z"
       id="text10"
       transform="matrix(1.3120752,-0.07034363,0.08000258,0.75786228,0,0)"
       aria-label="JIMMY'S" />
    <g
       id="text11"
       style="font-size:73.1836px;line-height:1;font-family:Impact;-inkscape-font-specification:Impact;text-align:center;letter-spacing:-4.46942px;word-spacing:0px;text-anchor:middle;stroke-width:0;stroke-linecap:round;stroke-linejoin:round;paint-order:fill markers stroke"
       transform="scale(1.6163645,0.61867235)"
       aria-label="SMOKE&#10;HOUSE">
      <path
         d="M 77.955766,271.00978 H 63.983701 v -4.2881 q 0,-3.00167 -0.536012,-3.82356 -0.536013,-0.82189 -1.786709,-0.82189 -1.357899,0 -2.072583,1.10776 -0.678949,1.10776 -0.678949,3.35902 0,2.89446 0.786152,4.35957 0.750417,1.4651 4.252367,3.53768 10.041305,5.96761 12.6499,9.79117 2.608595,3.82355 2.608595,12.32829 0,6.18201 -1.465101,9.11221 -1.429367,2.93021 -5.574532,4.93132 -4.145165,1.96538 -9.648229,1.96538 -6.039077,0 -10.327178,-2.28699 -4.252368,-2.28698 -5.574532,-5.82467 -1.322165,-3.53768 -1.322165,-10.0413 v -3.78783 H 59.26679 v 7.03964 q 0,3.25181 0.571746,4.1809 0.607481,0.92908 2.108317,0.92908 1.500836,0 2.215519,-1.17922 0.750418,-1.17923 0.750418,-3.50195 0,-5.10999 -1.393633,-6.68229 -1.429367,-1.57231 -7.039634,-5.25293 -5.610266,-3.71635 -7.432709,-5.39586 -1.822443,-1.67951 -3.037405,-4.64544 -1.179228,-2.96594 -1.179228,-7.57565 0,-6.64656 1.679506,-9.7197 1.715241,-3.07314 5.503064,-4.78838 3.787823,-1.75097 9.14795,-1.75097 5.860406,0 9.969836,1.89391 4.145165,1.89391 5.46733,4.78838 1.357899,2.85873 1.357899,9.75543 z m 47.916884,-17.50975 v 57.85364 h -13.15017 v -39.05746 l -5.25293,39.05746 h -9.326619 l -5.538798,-38.16411 v 38.16411 H 79.453954 v -57.85364 h 19.475129 q 0.85762,5.21719 1.822447,12.29256 l 2.07258,14.72248 3.43048,-27.01504 z m 35.94594,33.876 q 0,8.71914 -0.42881,12.36403 -0.39307,3.60915 -2.57286,6.61082 -2.14405,3.00167 -5.82467,4.60971 -3.68062,1.60804 -8.5762,1.60804 -4.64545,0 -8.3618,-1.50084 -3.68062,-1.53656 -5.93187,-4.57397 -2.25126,-3.03741 -2.68007,-6.61082 -0.42881,-3.57342 -0.42881,-12.50697 v -9.89836 q 0,-8.71914 0.39308,-12.3283 0.42881,-3.64488 2.57286,-6.64655 2.17978,-3.00168 5.8604,-4.60971 3.68062,-1.60804 8.57621,-1.60804 4.64544,0 8.32606,1.53657 3.71636,1.50083 5.96761,4.53824 2.25125,3.0374 2.68006,6.61082 0.42881,3.57342 0.42881,12.50697 z M 146.7745,268.36545 q 0,-4.03796 -0.46454,-5.14572 -0.42881,-1.1435 -1.82244,-1.1435 -1.17923,0 -1.82245,0.92909 -0.60748,0.89336 -0.60748,5.36013 v 27.01504 q 0,5.03852 0.39308,6.21775 0.42881,1.17922 1.92964,1.17922 1.53657,0 1.96538,-1.35789 0.42881,-1.3579 0.42881,-6.46789 z m 52.02632,-14.86542 -8.61193,26.12169 9.43382,31.73195 h -15.54437 l -6.07481,-24.79952 v 24.79952 h -15.04409 v -57.85364 h 15.04409 v 22.4768 l 6.68229,-22.4768 z m -1.03893,0 h 25.0854 v 11.57787 h -10.04131 v 10.9704 h 9.39809 v 11.00613 h -9.39809 v 12.72136 h 11.04186 v 11.57788 h -26.08595 z"
         id="path14" />
      <path
         d="m 83.975652,326.68363 v 57.85364 h -15.04409 v -24.29924 h -4.502507 v 24.29924 h -15.04409 v -57.85364 h 15.04409 v 20.69009 h 4.502507 v -20.69009 z m 35.945938,33.876 q 0,8.71914 -0.42881,12.36403 -0.39308,3.60915 -2.57286,6.61082 -2.14405,3.00168 -5.82467,4.60971 -3.68062,1.60804 -8.57621,1.60804 -4.64544,0 -8.361794,-1.50083 -3.680621,-1.53657 -5.931874,-4.57398 -2.251254,-3.0374 -2.680064,-6.61082 -0.42881,-3.57342 -0.42881,-12.50697 v -9.89836 q 0,-8.71914 0.393076,-12.3283 0.42881,-3.64488 2.572861,-6.64655 2.179785,-3.00167 5.860406,-4.60971 3.68062,-1.60804 8.576199,-1.60804 4.64545,0 8.32607,1.53657 3.71635,1.50083 5.96761,4.53824 2.25125,3.03741 2.68006,6.61082 0.42881,3.57342 0.42881,12.50697 z M 104.8775,341.54905 q 0,-4.03796 -0.46454,-5.14572 -0.42881,-1.1435 -1.82245,-1.1435 -1.17923,0 -1.82244,0.92909 -0.60748,0.89336 -0.60748,5.36013 v 27.01504 q 0,5.03852 0.39307,6.21775 0.42881,1.17923 1.92965,1.17923 1.53657,0 1.96538,-1.3579 0.42881,-1.3579 0.42881,-6.46789 z m 50.38255,-14.86542 v 38.66438 q 0,6.57509 -0.42881,9.25516 -0.42881,2.64433 -2.53713,5.46733 -2.10831,2.78726 -5.57453,4.25236 -3.43048,1.42937 -8.11166,1.42937 -5.18145,0 -9.14795,-1.71524 -3.96649,-1.71524 -5.93187,-4.46677 -1.96538,-2.75153 -2.32272,-5.78894 -0.35735,-3.07314 -0.35735,-12.8643 v -34.23335 h 15.04409 v 43.3813 q 0,3.78782 0.39308,4.85985 0.42881,1.03629 1.67951,1.03629 1.42936,0 1.82244,-1.1435 0.42881,-1.17923 0.42881,-5.50306 v -42.63088 z m 33.23014,17.50975 h -13.97206 v -4.2881 q 0,-3.00167 -0.53601,-3.82356 -0.53602,-0.82189 -1.78671,-0.82189 -1.3579,0 -2.07259,1.10776 -0.67895,1.10776 -0.67895,3.35902 0,2.89447 0.78616,4.35957 0.75041,1.4651 4.25236,3.53768 10.04131,5.96761 12.6499,9.79117 2.6086,3.82355 2.6086,12.32829 0,6.18201 -1.4651,9.11221 -1.42937,2.93021 -5.57453,4.93132 -4.14517,1.96538 -9.64823,1.96538 -6.03908,0 -10.32718,-2.28699 -4.25237,-2.28698 -5.57453,-5.82467 -1.32217,-3.53768 -1.32217,-10.0413 v -3.78783 h 13.97207 v 7.03964 q 0,3.25181 0.57174,4.1809 0.60748,0.92909 2.10832,0.92909 1.50084,0 2.21552,-1.17923 0.75042,-1.17923 0.75042,-3.50195 0,-5.10999 -1.39364,-6.68229 -1.42936,-1.57231 -7.03963,-5.25293 -5.61027,-3.71635 -7.43271,-5.39586 -1.82244,-1.67951 -3.0374,-4.64544 -1.17923,-2.96594 -1.17923,-7.57565 0,-6.64656 1.6795,-9.7197 1.71524,-3.07314 5.50307,-4.78838 3.78782,-1.75097 9.14795,-1.75097 5.8604,0 9.96983,1.89391 4.14517,1.89391 5.46733,4.78838 1.3579,2.85874 1.3579,9.75543 z m 1.49818,-17.50975 h 25.0854 v 11.57788 h -10.04131 v 10.97039 h 9.39809 v 11.00613 h -9.39809 v 12.72137 h 11.04187 v 11.57787 h -26.08596 z"
         id="path15" />
    </g>
  </g>
</svg>
