<?xml version="1.0" encoding="UTF-8" standalone="no"?>
<!-- Created with Inkscape (http://www.inkscape.org/) -->

<svg
   version="1.1"
   id="svg1"
   width="517.89081"
   height="125.67706"
   viewBox="0 0 517.89081 125.67706"
   xmlns="http://www.w3.org/2000/svg"
   xmlns:svg="http://www.w3.org/2000/svg">
  <defs
     id="defs1" />
  <g
     id="g1"
     transform="translate(-22.996276,-55.896639)">
    <path
       id="rect1"
       style="opacity:1;stroke-width:0;stroke-linecap:round;stroke-linejoin:round;paint-order:fill markers stroke"
       d="m 487.32211,116.4375 h 2.32212 v 36.82212 h -2.32212 z" />
    <path
       id="rect2"
       style="opacity:1;stroke-width:0;stroke-linecap:round;stroke-linejoin:round;paint-order:fill markers stroke"
       d="m 487.32211,68.668266 h 2.32212 v 36.822114 h -2.32212 z" />
    <path
       id="rect3"
       style="opacity:1;stroke-width:0;stroke-linecap:round;stroke-linejoin:round;paint-order:fill markers stroke"
       transform="rotate(23.170209)"
       d="m 491.6366,-132.07591 h 2.32211 v 36.822114 h -2.32211 z" />
    <path
       id="rect4"
       style="opacity:1;stroke-width:0;stroke-linecap:round;stroke-linejoin:round;paint-order:fill markers stroke"
       transform="rotate(45.813195)"
       d="m 419.37042,-314.69531 h 2.32212 v 36.82211 h -2.32212 z" />
    <path
       id="rect5"
       style="opacity:1;stroke-width:0;stroke-linecap:round;stroke-linejoin:round;paint-order:fill markers stroke"
       transform="rotate(68.572533)"
       d="m 281.05338,-455.57364 h 2.32211 v 36.82212 h -2.32211 z" />
    <path
       id="rect6"
       style="opacity:1;stroke-width:0;stroke-linecap:round;stroke-linejoin:round;paint-order:fill markers stroke"
       transform="rotate(-68.29739)"
       d="m 75.331627,453.13034 h 2.322115 v 36.82212 h -2.322115 z" />
    <path
       id="rect7"
       style="opacity:1;stroke-width:0;stroke-linecap:round;stroke-linejoin:round;paint-order:fill markers stroke"
       transform="rotate(-45.654404)"
       d="m 260.45084,385.67657 h 2.32211 v 36.82212 h -2.32211 z" />
    <path
       id="rect8"
       style="opacity:1;stroke-width:0;stroke-linecap:round;stroke-linejoin:round;paint-order:fill markers stroke"
       transform="rotate(-22.895066)"
       d="m 405.45438,251.74565 h 2.32211 v 36.82212 h -2.32211 z" />
    <path
       id="path8"
       style="opacity:1;stroke-width:0;stroke-linecap:round;stroke-linejoin:round;paint-order:fill markers stroke"
       d="m 461.43752,77.956734 a 7.6298079,7.6298079 0 0 1 -7.62981,7.629808 7.6298079,7.6298079 0 0 1 -7.62981,-7.629808 7.6298079,7.6298079 0 0 1 7.62981,-7.629808 7.6298079,7.6298079 0 0 1 7.62981,7.629808 z" />
    <path
       id="circle8"
       style="opacity:1;stroke-width:0;stroke-linecap:round;stroke-linejoin:round;paint-order:fill markers stroke"
       d="m 451.15386,94.045677 a 7.6298079,7.6298079 0 0 1 -7.62981,7.629813 7.6298079,7.6298079 0 0 1 -7.62981,-7.629813 7.6298079,7.6298079 0 0 1 7.62981,-7.629808 7.6298079,7.6298079 0 0 1 7.62981,7.629808 z" />
    <path
       id="circle9"
       style="opacity:1;stroke-width:0;stroke-linecap:round;stroke-linejoin:round;paint-order:fill markers stroke"
       d="m 477.36058,67.507217 a 7.6298079,7.6298079 0 0 1 -7.62981,7.629808 7.6298079,7.6298079 0 0 1 -7.6298,-7.629808 7.6298079,7.6298079 0 0 1 7.6298,-7.629808 7.6298079,7.6298079 0 0 1 7.62981,7.629808 z" />
    <path
       id="circle10"
       style="opacity:1;stroke-width:0;stroke-linecap:round;stroke-linejoin:round;paint-order:fill markers stroke"
       d="m 496.10338,63.526447 a 7.6298079,7.6298079 0 0 1 -7.62981,7.629808 7.6298079,7.6298079 0 0 1 -7.62981,-7.629808 7.6298079,7.6298079 0 0 1 7.62981,-7.629808 7.6298079,7.6298079 0 0 1 7.62981,7.629808 z" />
    <path
       id="circle11"
       style="opacity:1;stroke-width:0;stroke-linecap:round;stroke-linejoin:round;paint-order:fill markers stroke"
       d="m 514.84618,67.175484 a 7.6298079,7.6298079 0 0 1 -7.62981,7.629808 7.6298079,7.6298079 0 0 1 -7.62981,-7.629808 7.6298079,7.6298079 0 0 1 7.62981,-7.629808 7.6298079,7.6298079 0 0 1 7.62981,7.629808 z" />
    <path
       id="circle12"
       style="opacity:1;stroke-width:0;stroke-linecap:round;stroke-linejoin:round;paint-order:fill markers stroke"
       d="m 530.43755,77.956734 a 7.6298079,7.6298079 0 0 1 -7.62981,7.629808 7.6298079,7.6298079 0 0 1 -7.62981,-7.629808 7.6298079,7.6298079 0 0 1 7.62981,-7.629808 7.6298079,7.6298079 0 0 1 7.62981,7.629808 z" />
    <path
       id="circle13"
       style="opacity:1;stroke-width:0;stroke-linecap:round;stroke-linejoin:round;paint-order:fill markers stroke"
       d="m 540.88707,94.045677 a 7.6298079,7.6298079 0 0 1 -7.62981,7.629813 7.6298079,7.6298079 0 0 1 -7.6298,-7.629813 7.6298079,7.6298079 0 0 1 7.6298,-7.629808 7.6298079,7.6298079 0 0 1 7.62981,7.629808 z" />
    <path
       id="circle14"
       style="opacity:1;stroke-width:0;stroke-linecap:round;stroke-linejoin:round;paint-order:fill markers stroke"
       d="m 496.10341,111.46154 a 7.6298079,7.6298079 0 0 1 -7.62981,7.62981 7.6298079,7.6298079 0 0 1 -7.62981,-7.62981 7.6298079,7.6298079 0 0 1 7.62981,-7.62981 7.6298079,7.6298079 0 0 1 7.62981,7.62981 z" />
    <path
       style="opacity:1;fill:#000000;stroke-width:0;stroke-linecap:round;stroke-linejoin:round;paint-order:fill markers stroke"
       d="m 437.38702,113.12019 c 0,0 8.29327,-8.79086 23.38702,-4.14663 15.09375,4.64423 24.54808,19.24038 24.54808,19.24038 l 1.49279,1.82452 c 0,0 -8.625,6.80048 -29.68991,1.82452 -21.0649,-4.97596 -19.73798,-13.10336 -19.73798,-18.74279 z"
       id="path14" />
    <path
       style="opacity:1;fill:#000000;stroke-width:0;stroke-linecap:round;stroke-linejoin:round;paint-order:fill markers stroke"
       d="m 539.11967,112.97169 c 0,0 -8.21937,-8.71252 -23.17863,-4.10967 -14.95925,4.60285 -24.32933,19.06893 -24.32933,19.06893 l -1.47949,1.80826 c 0,0 8.54814,6.73988 29.42534,1.80827 20.8772,-4.93162 19.56211,-12.9866 19.56211,-18.57579 z"
       id="path15" />
    <path
       style="opacity:1;fill:#000000;stroke-width:0;stroke-linecap:round;stroke-linejoin:round;stroke-dasharray:none;paint-order:fill markers stroke"
       d="m 435.72837,154.7524 c 0,0 16.91827,11.61058 32.84134,-6.63461 0,0 17.91346,23.55288 39.97356,-0.66346 0,0 11.27885,18.24519 32.17789,7.62981 v 6.13701 c 0,0 -16.08895,8.45914 -32.34375,-4.47836 0,0 -18.41106,16.42067 -40.47116,-0.16587 0,0 -12.4399,12.77164 -32.34375,4.47837 z"
       id="path16" />
    <path
       style="opacity:1;fill:#000000;stroke-width:0;stroke-linecap:round;stroke-linejoin:round;stroke-dasharray:none;paint-order:fill markers stroke"
       d="m 435.89319,164.72849 c 0,0 16.81154,10.32964 32.63415,-5.90265 0,0 17.80044,20.9544 39.72135,-0.59026 0,0 11.20769,16.23228 31.97488,6.78805 v 5.45994 c 0,0 -15.98744,7.52588 -32.13969,-3.98428 0,0 -18.2949,14.60905 -40.21582,-0.14757 0,0 -12.36141,11.3626 -32.13969,3.98429 z"
       id="path17" />
    <path
       style="opacity:1;fill:#000000;stroke-width:0;stroke-linecap:round;stroke-linejoin:round;stroke-dasharray:none;paint-order:fill markers stroke"
       d="m 436.05906,174.09484 c 0,0 16.81154,9.39805 32.63415,-5.37031 0,0 17.80044,19.0646 39.72135,-0.53703 0,0 11.20769,14.76835 31.97488,6.17586 v 4.96753 c 0,0 -15.98744,6.84715 -32.13969,-3.62495 0,0 -18.2949,13.29151 -40.21582,-0.13426 0,0 -12.36141,10.33785 -32.13969,3.62496 z"
       id="path18" />
    <g
       id="text18"
       style="font-weight:300;font-size:44.3803px;line-height:1;font-family:'ITF Devanagari Marathi';-inkscape-font-specification:'ITF Devanagari Marathi Light';text-align:end;letter-spacing:-0.786743px;word-spacing:0px;text-anchor:end;stroke-width:0;stroke-linecap:round;stroke-linejoin:round;paint-order:fill markers stroke"
       transform="scale(0.95205871,1.0503554)"
       aria-label="Ōtara-Papatoetoe&#10;Local Board">
      <path
         style="font-weight:bold;-inkscape-font-specification:'ITF Devanagari Marathi Bold'"
         d="m 57.417816,87.806387 q 0,7.714544 -4.420694,12.265253 -4.420693,4.52905 -12.221918,4.52905 -7.779554,0 -12.200248,-4.52905 -4.420694,-4.550709 -4.420694,-12.265253 0,-7.779555 4.420694,-12.286929 4.420694,-4.529044 12.200248,-4.529044 7.757884,0 12.200248,4.529044 4.442364,4.507374 4.442364,12.286929 z m -11.030064,8.169615 q 1.213524,-1.473565 1.798615,-3.467211 0.585092,-2.015316 0.585092,-4.724074 0,-2.90379 -0.671772,-4.940776 -0.671772,-2.036986 -1.755275,-3.29385 -1.105174,-1.300204 -2.557068,-1.885296 -1.430225,-0.585092 -2.99047,-0.585092 -1.581915,0 -2.990469,0.563422 -1.386884,0.563422 -2.557068,1.863626 -1.083503,1.213523 -1.776946,3.35886 -0.671772,2.123667 -0.671772,4.940776 0,2.882119 0.650102,4.919105 0.671772,2.015316 1.755276,3.29385 1.083503,1.278534 2.535398,1.885296 1.451894,0.606762 3.055479,0.606762 1.603585,0 3.05548,-0.606762 1.451894,-0.628432 2.535398,-1.928636 z M 49.486571,66.678071 H 32.107177 v -4.550715 h 17.379394 z m 28.61954,37.034149 q -1.256864,0.32505 -2.665418,0.49841 -1.408555,0.19503 -3.445541,0.19503 -4.550714,0 -6.782731,-1.84196 -2.210347,-1.84195 -2.210347,-6.305987 V 84.880927 h -3.20717 v -5.287496 h 3.20717 v -6.956092 h 7.801224 v 6.956092 h 7.302813 v 5.287496 h -7.302813 v 8.624687 q 0,1.278534 0.02167,2.232017 0.02167,0.953483 0.346721,1.711936 0.303381,0.758452 1.061834,1.213523 0.780122,0.433402 2.253687,0.433402 0.606762,0 1.581915,-0.260041 0.996823,-0.260041 1.386884,-0.476741 h 0.650102 z m 18.607968,-6.132633 v -5.070796 q -1.581915,0.130021 -3.42387,0.368391 -1.841956,0.216701 -2.795439,0.520082 -1.170184,0.368391 -1.798616,1.083503 -0.606762,0.693443 -0.606762,1.841956 0,0.758453 0.130021,1.235194 0.13002,0.476742 0.650102,0.910143 0.498411,0.433401 1.191853,0.650102 0.693443,0.195031 2.167007,0.195031 1.170184,0 2.362038,-0.476742 1.213523,-0.476741 2.123666,-1.256864 z m 0,3.770593 q -0.628432,0.47674 -1.560245,1.14851 -0.931813,0.67177 -1.755275,1.06184 -1.148514,0.52008 -2.383708,0.75845 -1.235193,0.26004 -2.708758,0.26004 -3.467211,0 -5.807578,-2.14534 -2.340368,-2.14533 -2.340368,-5.482525 0,-2.665418 1.191854,-4.355683 1.191854,-1.690266 3.380531,-2.665419 2.167007,-0.975153 5.374177,-1.386884 3.20717,-0.411731 6.65271,-0.606762 v -0.13002 q 0,-2.015317 -1.646925,-2.773769 -1.646925,-0.780123 -4.854095,-0.780123 -1.928636,0 -4.117313,0.693443 -2.188677,0.671772 -3.14216,1.040163 h -0.715112 v -5.872588 q 1.235194,-0.325051 4.008963,-0.758453 2.795438,-0.455071 5.590877,-0.455071 6.652711,0 9.599836,2.058656 2.9688,2.036987 2.9688,6.41434 V 103.92892 H 96.714079 Z M 128.47578,87.026264 h -0.69344 q -0.49842,-0.17336 -1.60359,-0.260041 -1.10517,-0.08668 -1.84195,-0.08668 -1.6686,0 -2.94713,0.216701 -1.27854,0.2167 -2.7521,0.736782 v 16.295894 h -7.80123 V 79.593431 h 7.80123 v 3.575561 q 2.57874,-2.210347 4.4857,-2.925459 1.90697,-0.736782 3.51055,-0.736782 0.41173,0 0.93182,0.02167 0.52008,0.02167 0.91014,0.06501 z m 18.36959,10.553323 v -5.070796 q -1.58191,0.130021 -3.42387,0.368391 -1.84195,0.216701 -2.79544,0.520082 -1.17018,0.368391 -1.79861,1.083503 -0.60676,0.693443 -0.60676,1.841956 0,0.758453 0.13002,1.235194 0.13002,0.476742 0.6501,0.910143 0.49841,0.433401 1.19185,0.650102 0.69344,0.195031 2.16701,0.195031 1.17018,0 2.36204,-0.476742 1.21352,-0.476741 2.12366,-1.256864 z m 0,3.770593 q -0.62843,0.47674 -1.56024,1.14851 -0.93181,0.67177 -1.75528,1.06184 -1.14851,0.52008 -2.3837,0.75845 -1.2352,0.26004 -2.70876,0.26004 -3.46721,0 -5.80758,-2.14534 -2.34037,-2.14533 -2.34037,-5.482525 0,-2.665418 1.19186,-4.355683 1.19185,-1.690266 3.38053,-2.665419 2.167,-0.975153 5.37417,-1.386884 3.20717,-0.411731 6.65271,-0.606762 v -0.13002 q 0,-2.015317 -1.64692,-2.773769 -1.64693,-0.780123 -4.8541,-0.780123 -1.92863,0 -4.11731,0.693443 -2.18868,0.671772 -3.14216,1.040163 h -0.71511 v -5.872588 q 1.23519,-0.325051 4.00896,-0.758453 2.79544,-0.455071 5.59088,-0.455071 6.65271,0 9.59984,2.058656 2.9688,2.036987 2.9688,6.41434 v 16.555935 h -7.73622 z m 27.74667,-10.513451 v -0.710085 l -1.19827,-1.375789 -2.04149,-2.88472 h -14.06855 v 0.710085 l 1.19826,1.375789 2.0415,2.88472 z m 29.96306,-8.989611 q 0,2.167007 -0.75845,4.247333 -0.75846,2.058657 -2.16701,3.467211 -1.92864,1.906966 -4.31235,2.882119 -2.36203,0.975153 -5.89425,0.975153 h -5.17915 v 10.509986 h -8.32131 V 71.662186 h 13.69549 q 3.07715,0 5.17914,0.541752 2.12367,0.520081 3.74893,1.581915 1.9503,1.278534 2.96879,3.27218 1.04017,1.993646 1.04017,4.789085 z m -8.60302,0.195031 q 0,-1.365215 -0.73678,-2.340368 -0.73678,-0.996823 -1.71194,-1.386884 -1.3002,-0.520082 -2.53539,-0.563422 -1.2352,-0.06501 -3.29386,-0.06501 h -1.43022 v 9.66485 h 2.38371 q 2.12366,0 3.48888,-0.260041 1.38688,-0.26004 2.3187,-1.040163 0.80179,-0.693442 1.14851,-1.646925 0.36839,-0.975153 0.36839,-2.362037 z m 28.01279,15.537438 v -5.070796 q -1.58192,0.130021 -3.42388,0.368391 -1.84195,0.216701 -2.79543,0.520082 -1.17019,0.368391 -1.79862,1.083503 -0.60676,0.693443 -0.60676,1.841956 0,0.758453 0.13002,1.235194 0.13002,0.476742 0.6501,0.910143 0.49841,0.433401 1.19185,0.650102 0.69345,0.195031 2.16701,0.195031 1.17018,0 2.36204,-0.476742 1.21352,-0.476741 2.12367,-1.256864 z m 0,3.770593 q -0.62844,0.47674 -1.56025,1.14851 -0.93181,0.67177 -1.75528,1.06184 -1.14851,0.52008 -2.3837,0.75845 -1.2352,0.26004 -2.70876,0.26004 -3.46721,0 -5.80758,-2.14534 -2.34037,-2.14533 -2.34037,-5.482525 0,-2.665418 1.19186,-4.355683 1.19185,-1.690266 3.38053,-2.665419 2.167,-0.975153 5.37417,-1.386884 3.20717,-0.411731 6.65272,-0.606762 v -0.13002 q 0,-2.015317 -1.64693,-2.773769 -1.64693,-0.780123 -4.8541,-0.780123 -1.92863,0 -4.11731,0.693443 -2.18867,0.671772 -3.14216,1.040163 h -0.71511 v -5.872588 q 1.23519,-0.325051 4.00896,-0.758453 2.79544,-0.455071 5.59088,-0.455071 6.65271,0 9.59984,2.058656 2.9688,2.036987 2.9688,6.41434 v 16.555935 h -7.73621 z m 39.51958,-9.924892 q 0,3.012139 -0.93181,5.482527 -0.91015,2.470388 -2.40538,4.073975 -1.56025,1.69026 -3.53222,2.55707 -1.97198,0.8668 -4.22567,0.8668 -2.08032,0 -3.53222,-0.45507 -1.45189,-0.4334 -2.9688,-1.2352 v 10.14159 h -7.80122 V 79.593431 h 7.80122 v 2.535398 q 1.79862,-1.430225 3.66224,-2.318697 1.8853,-0.888473 4.33402,-0.888473 4.55071,0 7.06444,3.33719 2.5354,3.337191 2.5354,9.166439 z m -8.0396,0.15169 q 0,-3.553891 -1.21352,-5.157476 -1.21352,-1.603585 -3.8356,-1.603585 -1.10518,0 -2.27536,0.346721 -1.17018,0.325051 -2.23202,0.953483 V 98.35971 q 0.78013,0.30338 1.6686,0.390061 0.88847,0.08668 1.75527,0.08668 3.09882,0 4.61573,-1.798616 1.5169,-1.820285 1.5169,-5.460857 z m 27.62271,6.002609 v -5.070796 q -1.58192,0.130021 -3.42387,0.368391 -1.84196,0.216701 -2.79544,0.520082 -1.17019,0.368391 -1.79862,1.083503 -0.60676,0.693443 -0.60676,1.841956 0,0.758453 0.13002,1.235194 0.13002,0.476742 0.6501,0.910143 0.49841,0.433401 1.19186,0.650102 0.69344,0.195031 2.167,0.195031 1.17019,0 2.36204,-0.476742 1.21352,-0.476741 2.12367,-1.256864 z m 0,3.770593 q -0.62844,0.47674 -1.56025,1.14851 -0.93181,0.67177 -1.75527,1.06184 -1.14852,0.52008 -2.38371,0.75845 -1.23519,0.26004 -2.70876,0.26004 -3.46721,0 -5.80758,-2.14534 -2.34037,-2.14533 -2.34037,-5.482525 0,-2.665418 1.19186,-4.355683 1.19185,-1.690266 3.38053,-2.665419 2.16701,-0.975153 5.37418,-1.386884 3.20717,-0.411731 6.65271,-0.606762 v -0.13002 q 0,-2.015317 -1.64693,-2.773769 -1.64692,-0.780123 -4.85409,-0.780123 -1.92864,0 -4.11732,0.693443 -2.18867,0.671772 -3.14216,1.040163 h -0.71511 v -5.872588 q 1.2352,-0.325051 4.00896,-0.758453 2.79544,-0.455071 5.59088,-0.455071 6.65271,0 9.59984,2.058656 2.9688,2.036987 2.9688,6.41434 v 16.555935 h -7.73621 z m 29.68138,2.36204 q -1.25686,0.32505 -2.66541,0.49841 -1.40856,0.19503 -3.44554,0.19503 -4.55072,0 -6.78274,-1.84196 -2.21034,-1.84195 -2.21034,-6.305987 V 84.880927 h -3.20717 v -5.287496 h 3.20717 v -6.956092 h 7.80122 v 6.956092 h 7.30281 v 5.287496 h -7.30281 v 8.624687 q 0,1.278534 0.0217,2.232017 0.0217,0.953483 0.34672,1.711936 0.30338,0.758452 1.06184,1.213523 0.78012,0.433402 2.25368,0.433402 0.60677,0 1.58192,-0.260041 0.99682,-0.260041 1.38688,-0.476741 h 0.6501 z M 341.4985,91.772009 q 0,6.002609 -3.51055,9.469821 -3.48888,3.44554 -9.81654,3.44554 -6.32766,0 -9.83821,-3.44554 -3.48888,-3.467212 -3.48888,-9.469821 0,-6.045949 3.51055,-9.49149 3.53222,-3.44554 9.81654,-3.44554 6.371,0 9.83821,3.46721 3.48888,3.467211 3.48888,9.46982 z m -9.59984,5.915928 q 0.75845,-0.931812 1.12684,-2.232017 0.39007,-1.321874 0.39007,-3.640571 0,-2.145337 -0.39007,-3.597231 -0.39006,-1.451895 -1.0835,-2.318697 -0.69344,-0.888473 -1.66859,-1.256864 -0.97516,-0.368391 -2.102,-0.368391 -1.12684,0 -2.01532,0.30338 -0.8668,0.303381 -1.66859,1.213524 -0.71511,0.845133 -1.14852,2.318698 -0.41173,1.473564 -0.41173,3.705581 0,1.993646 0.36839,3.467211 0.3684,1.451894 1.08351,2.340367 0.69344,0.845133 1.64692,1.235194 0.97516,0.390061 2.21035,0.390061 1.06183,0 2.01532,-0.346721 0.97515,-0.368391 1.64692,-1.213524 z m 38.37106,-4.485704 h -17.85613 q 0.17336,2.860449 2.167,4.377354 2.01532,1.516905 5.91593,1.516905 2.47039,0 4.78909,-0.888473 2.3187,-0.888473 3.66224,-1.906966 h 0.8668 v 6.262647 q -2.64375,1.06184 -4.98411,1.53858 -2.34037,0.47674 -5.17915,0.47674 -7.32448,0 -11.22509,-3.29385 -3.90062,-3.293852 -3.90062,-9.383141 0,-6.024278 3.68391,-9.534829 3.70559,-3.532221 10.1416,-3.532221 5.9376,0 8.92806,3.012139 2.99047,2.990469 2.99047,8.624687 z m -7.75788,-4.572384 q -0.065,-2.448718 -1.21352,-3.683911 -1.14852,-1.235194 -3.57557,-1.235194 -2.25368,0 -3.70558,1.170183 -1.45189,1.170184 -1.62525,3.748922 z m 28.03444,15.082371 q -1.25687,0.32505 -2.66542,0.49841 -1.40856,0.19503 -3.44554,0.19503 -4.55072,0 -6.78273,-1.84196 -2.21035,-1.84195 -2.21035,-6.305987 V 84.880927 h -3.20717 v -5.287496 h 3.20717 v -6.956092 h 7.80122 v 6.956092 h 7.30282 v 5.287496 h -7.30282 v 8.624687 q 0,1.278534 0.0217,2.232017 0.0217,0.953483 0.34673,1.711936 0.30338,0.758452 1.06183,1.213523 0.78012,0.433402 2.25369,0.433402 0.60676,0 1.58191,-0.260041 0.99682,-0.260041 1.38689,-0.476741 h 0.6501 z m 28.74958,-11.940211 q 0,6.002609 -3.51055,9.469821 -3.48888,3.44554 -9.81654,3.44554 -6.32766,0 -9.83821,-3.44554 -3.48888,-3.467212 -3.48888,-9.469821 0,-6.045949 3.51055,-9.49149 3.53222,-3.44554 9.81654,-3.44554 6.371,0 9.83821,3.46721 3.48888,3.467211 3.48888,9.46982 z m -9.59984,5.915928 q 0.75846,-0.931812 1.12685,-2.232017 0.39006,-1.321874 0.39006,-3.640571 0,-2.145337 -0.39006,-3.597231 -0.39006,-1.451895 -1.08351,-2.318697 -0.69344,-0.888473 -1.66859,-1.256864 -0.97515,-0.368391 -2.102,-0.368391 -1.12684,0 -2.01531,0.30338 -0.86681,0.303381 -1.6686,1.213524 -0.71511,0.845133 -1.14851,2.318698 -0.41173,1.473564 -0.41173,3.705581 0,1.993646 0.36839,3.467211 0.36839,1.451894 1.0835,2.340367 0.69344,0.845133 1.64693,1.235194 0.97515,0.390061 2.21034,0.390061 1.06184,0 2.01532,-0.346721 0.97515,-0.368391 1.64692,-1.213524 z m 38.37107,-4.485704 h -17.85614 q 0.17336,2.860449 2.16701,4.377354 2.01531,1.516905 5.91593,1.516905 2.47038,0 4.78908,-0.888473 2.3187,-0.888473 3.66224,-1.906966 h 0.86681 v 6.262647 q -2.64375,1.06184 -4.98412,1.53858 -2.34037,0.47674 -5.17915,0.47674 -7.32448,0 -11.22509,-3.29385 -3.90061,-3.293852 -3.90061,-9.383141 0,-6.024278 3.68391,-9.534829 3.70558,-3.532221 10.14159,-3.532221 5.9376,0 8.92807,3.012139 2.99047,2.990469 2.99047,8.624687 z m -7.75789,-4.572384 q -0.065,-2.448718 -1.21352,-3.683911 -1.14851,-1.235194 -3.57556,-1.235194 -2.25369,0 -3.70558,1.170183 -1.4519,1.170184 -1.62526,3.748922 z"
         id="path20" />
      <path
         style="font-weight:bold;-inkscape-font-specification:'ITF Devanagari Marathi Bold'"
         d="m 192.50654,149.96595 h -23.27365 v -32.26673 h 8.3213 v 26.02575 h 14.95235 z m 28.66288,-12.15691 q 0,6.00261 -3.51055,9.46982 -3.48888,3.44554 -9.81654,3.44554 -6.32766,0 -9.83821,-3.44554 -3.48888,-3.46721 -3.48888,-9.46982 0,-6.04595 3.51055,-9.49149 3.53222,-3.44554 9.81654,-3.44554 6.371,0 9.83821,3.46721 3.48888,3.46721 3.48888,9.46982 z m -9.59984,5.91593 q 0.75845,-0.93182 1.12684,-2.23202 0.39006,-1.32187 0.39006,-3.64057 0,-2.14534 -0.39006,-3.59723 -0.39006,-1.4519 -1.0835,-2.3187 -0.69344,-0.88847 -1.6686,-1.25686 -0.97515,-0.3684 -2.10199,-0.3684 -1.12685,0 -2.01532,0.30339 -0.8668,0.30338 -1.66859,1.21352 -0.71512,0.84513 -1.14852,2.3187 -0.41173,1.47356 -0.41173,3.70558 0,1.99364 0.36839,3.46721 0.36839,1.45189 1.08351,2.34037 0.69344,0.84513 1.64692,1.23519 0.97515,0.39006 2.21035,0.39006 1.06183,0 2.01531,-0.34672 0.97516,-0.36839 1.64693,-1.21352 z m 27.08096,6.89108 q -3.1855,0 -5.82924,-0.75845 -2.62208,-0.75846 -4.57239,-2.34037 -1.92863,-1.58192 -2.99047,-3.98729 -1.06183,-2.40538 -1.06183,-5.63422 0,-3.4022 1.12684,-5.87259 1.14852,-2.47039 3.1855,-4.09564 1.97198,-1.53858 4.55072,-2.25369 2.57873,-0.71511 5.3525,-0.71511 2.49206,0 4.59406,0.54175 2.10199,0.54175 3.92228,1.40855 v 6.65271 h -1.10517 q -0.45507,-0.39006 -1.10518,-0.91014 -0.62843,-0.52008 -1.56024,-1.01849 -0.88847,-0.47674 -1.95031,-0.78012 -1.06183,-0.32505 -2.47039,-0.32505 -3.12049,0 -4.81075,1.99364 -1.6686,1.97198 -1.6686,5.37418 0,3.51055 1.71194,5.33084 1.73361,1.82028 4.89743,1.82028 1.47357,0 2.64375,-0.32505 1.19186,-0.34672 1.97198,-0.80179 0.73678,-0.4334 1.3002,-0.91015 0.56343,-0.47674 1.04017,-0.93181 h 1.10517 v 6.65271 q -1.84196,0.8668 -3.85727,1.36522 -1.99365,0.52008 -4.4207,0.52008 z m 27.38435,-6.99943 v -5.0708 q -1.58192,0.13002 -3.42387,0.36839 -1.84196,0.2167 -2.79544,0.52008 -1.17018,0.36839 -1.79862,1.08351 -0.60676,0.69344 -0.60676,1.84195 0,0.75845 0.13002,1.2352 0.13002,0.47674 0.6501,0.91014 0.49842,0.4334 1.19186,0.6501 0.69344,0.19503 2.167,0.19503 1.17019,0 2.36204,-0.47674 1.21353,-0.47674 2.12367,-1.25686 z m 0,3.77059 q -0.62843,0.47674 -1.56025,1.14851 -0.93181,0.67177 -1.75527,1.06183 -1.14852,0.52009 -2.38371,0.75846 -1.23519,0.26004 -2.70876,0.26004 -3.46721,0 -5.80758,-2.14534 -2.34036,-2.14534 -2.34036,-5.48253 0,-2.66541 1.19185,-4.35568 1.19185,-1.69026 3.38053,-2.66542 2.16701,-0.97515 5.37418,-1.38688 3.20717,-0.41173 6.65271,-0.60676 v -0.13002 q 0,-2.01532 -1.64693,-2.77377 -1.64692,-0.78013 -4.85409,-0.78013 -1.92864,0 -4.11731,0.69345 -2.18868,0.67177 -3.14216,1.04016 h -0.71512 v -5.87259 q 1.2352,-0.32505 4.00897,-0.75845 2.79543,-0.45507 5.59087,-0.45507 6.65271,0 9.59984,2.05865 2.9688,2.03699 2.9688,6.41434 v 16.55594 h -7.73621 z m 21.92349,2.57874 h -7.80123 v -33.71863 h 7.80123 z m 49.00444,-9.88155 q 0,2.34036 -0.95348,4.18232 -0.93181,1.84195 -2.57874,3.05548 -1.90696,1.43022 -4.20399,2.03698 -2.27536,0.60677 -5.78591,0.60677 h -14.08554 v -32.26673 h 12.5253 q 3.90061,0 5.69922,0.26004 1.82029,0.26004 3.59723,1.14851 1.84196,0.93181 2.73043,2.51373 0.91015,1.56024 0.91015,3.57556 0,2.34037 -1.2352,4.13898 -1.23519,1.77695 -3.48888,2.77377 v 0.17336 q 3.16383,0.62843 5.00579,2.60041 1.86362,1.97198 1.86362,5.20082 z m -10.66167,-13.26209 q 0,-0.80179 -0.41173,-1.60358 -0.39006,-0.80179 -1.40856,-1.19185 -0.91014,-0.34673 -2.27535,-0.3684 -1.34355,-0.0433 -3.79227,-0.0433 h -0.78012 v 6.82608 h 1.30021 q 1.97197,0 3.35886,-0.065 1.38688,-0.065 2.18867,-0.4334 1.12685,-0.49841 1.47357,-1.27853 0.34672,-0.80179 0.34672,-1.84196 z m 2.03699,13.13206 q 0,-1.53857 -0.60677,-2.36203 -0.58509,-0.84514 -2.01531,-1.25687 -0.97516,-0.28171 -2.68709,-0.30338 -1.71194,-0.0217 -3.57556,-0.0217 h -1.82029 v 8.0396 h 0.60676 q 3.51056,0 5.02746,-0.0217 1.5169,-0.0217 2.79544,-0.56342 1.3002,-0.54176 1.77694,-1.43023 0.49842,-0.91014 0.49842,-2.08033 z m 38.47942,-2.14533 q 0,6.00261 -3.51055,9.46982 -3.48888,3.44554 -9.81654,3.44554 -6.32766,0 -9.83821,-3.44554 -3.48888,-3.46721 -3.48888,-9.46982 0,-6.04595 3.51055,-9.49149 3.53222,-3.44554 9.81654,-3.44554 6.371,0 9.83821,3.46721 3.48888,3.46721 3.48888,9.46982 z m -9.59984,5.91593 q 0.75845,-0.93182 1.12685,-2.23202 0.39006,-1.32187 0.39006,-3.64057 0,-2.14534 -0.39006,-3.59723 -0.39007,-1.4519 -1.08351,-2.3187 -0.69344,-0.88847 -1.66859,-1.25686 -0.97516,-0.3684 -2.102,-0.3684 -1.12684,0 -2.01532,0.30339 -0.8668,0.30338 -1.66859,1.21352 -0.71511,0.84513 -1.14851,2.3187 -0.41174,1.47356 -0.41174,3.70558 0,1.99364 0.3684,3.46721 0.36839,1.45189 1.0835,2.34037 0.69344,0.84513 1.64692,1.23519 0.97516,0.39006 2.21035,0.39006 1.06183,0 2.01532,-0.34672 0.97515,-0.36839 1.64692,-1.21352 z m 29.13962,-0.10835 v -5.0708 q -1.58192,0.13002 -3.42387,0.36839 -1.84196,0.2167 -2.79544,0.52008 -1.17019,0.36839 -1.79862,1.08351 -0.60676,0.69344 -0.60676,1.84195 0,0.75845 0.13002,1.2352 0.13002,0.47674 0.6501,0.91014 0.49841,0.4334 1.19186,0.6501 0.69344,0.19503 2.167,0.19503 1.17019,0 2.36204,-0.47674 1.21352,-0.47674 2.12367,-1.25686 z m 0,3.77059 q -0.62844,0.47674 -1.56025,1.14851 -0.93181,0.67177 -1.75527,1.06183 -1.14852,0.52009 -2.38371,0.75846 -1.23519,0.26004 -2.70876,0.26004 -3.46721,0 -5.80758,-2.14534 -2.34036,-2.14534 -2.34036,-5.48253 0,-2.66541 1.19185,-4.35568 1.19185,-1.69026 3.38053,-2.66542 2.16701,-0.97515 5.37418,-1.38688 3.20717,-0.41173 6.65271,-0.60676 v -0.13002 q 0,-2.01532 -1.64693,-2.77377 -1.64692,-0.78013 -4.85409,-0.78013 -1.92864,0 -4.11732,0.69345 -2.18867,0.67177 -3.14216,1.04016 h -0.71511 v -5.87259 q 1.2352,-0.32505 4.00896,-0.75845 2.79544,-0.45507 5.59088,-0.45507 6.65271,0 9.59984,2.05865 2.9688,2.03699 2.9688,6.41434 v 16.55594 h -7.73621 z m 31.7617,-14.32392 h -0.69345 q -0.49841,-0.17336 -1.60358,-0.26004 -1.10517,-0.0867 -1.84196,-0.0867 -1.66859,0 -2.94713,0.2167 -1.27853,0.2167 -2.75209,0.73679 v 16.29589 h -7.80123 v -24.33549 h 7.80123 v 3.57556 q 2.57873,-2.21035 4.4857,-2.92546 1.90697,-0.73678 3.51055,-0.73678 0.41173,0 0.93181,0.0217 0.52008,0.0217 0.91015,0.065 z m 27.29767,16.90266 h -7.80123 v -2.5354 q -2.01531,1.64692 -3.77059,2.42705 -1.75527,0.78012 -4.0523,0.78012 -4.44237,0 -7.10778,-3.42387 -2.66542,-3.42387 -2.66542,-9.23145 0,-3.09882 0.88847,-5.48253 0.91014,-2.40538 2.47039,-4.11731 1.47356,-1.62526 3.57556,-2.51373 2.102,-0.91014 4.20399,-0.91014 2.18868,0 3.57556,0.47674 1.40856,0.45507 2.88212,1.17018 v -10.35829 h 7.80123 z m -7.80123,-6.71772 v -11.94021 q -0.82346,-0.34672 -1.7336,-0.49841 -0.91015,-0.15169 -1.6686,-0.15169 -3.07715,0 -4.61572,1.92863 -1.53858,1.90697 -1.53858,5.30917 0,3.57556 1.2352,5.20081 1.23519,1.60359 3.96562,1.60359 1.06183,0 2.25369,-0.39006 1.19185,-0.41173 2.10199,-1.06183 z"
         id="path21" />
    </g>
    <path
       style="font-weight:300;font-size:18.702px;line-height:1;font-family:'ITF Devanagari Marathi';-inkscape-font-specification:'ITF Devanagari Marathi Light';text-align:end;letter-spacing:-0.331536px;word-spacing:0px;text-anchor:end;stroke-width:0;stroke-linecap:round;stroke-linejoin:round;paint-order:fill markers stroke"
       d="m 328.73667,163.19669 h -1.92682 l -1.33324,-3.78972 h -5.88091 l -1.33324,3.78972 h -1.8355 l 4.94945,-13.59731 h 2.41081 z m -3.81711,-5.34213 -2.3834,-6.67537 -2.39255,6.67537 z m 13.77715,5.34213 h -1.71678 v -1.13235 q -0.86753,0.68489 -1.66199,1.05016 -0.79447,0.36527 -1.75332,0.36527 -1.6072,0 -2.50212,-0.9771 -0.89492,-0.98624 -0.89492,-2.88566 v -6.62058 h 1.71678 v 5.80784 q 0,0.77621 0.0731,1.33325 0.073,0.54791 0.31048,0.94058 0.24656,0.4018 0.63923,0.58444 0.39267,0.18263 1.14148,0.18263 0.66662,0 1.45196,-0.34701 0.79447,-0.34701 1.47936,-0.88578 v -7.61595 h 1.71678 z m 10.59014,-0.63923 q -0.85839,0.41093 -1.6346,0.63923 -0.76707,0.22829 -1.63459,0.22829 -1.10496,0 -2.02727,-0.31961 -0.92232,-0.32875 -1.57981,-0.98624 -0.66662,-0.65749 -1.0319,-1.66199 -0.36527,-1.00451 -0.36527,-2.34689 0,-2.50212 1.36978,-3.92669 1.3789,-1.42456 3.63447,-1.42456 0.87665,0 1.71678,0.24656 0.84926,0.24656 1.55241,0.6027 v 1.90855 h -0.0913 q -0.78534,-0.61183 -1.62547,-0.94058 -0.831,-0.32874 -1.62547,-0.32874 -1.46109,0 -2.31035,0.98623 -0.84013,0.97711 -0.84013,2.87653 0,1.84463 0.82186,2.84 0.831,0.98624 2.32862,0.98624 0.52052,0 1.05929,-0.13698 0.53878,-0.13697 0.96798,-0.35614 0.3744,-0.19177 0.70315,-0.4018 0.32875,-0.21916 0.52052,-0.3744 h 0.0913 z m 11.12892,0.63923 h -2.26469 l -4.09106,-4.46547 -1.11409,1.05929 v 3.40618 h -1.71678 v -14.20914 h 1.71678 v 9.11357 l 4.95859,-5.10469 h 2.16424 l -4.73942,4.71202 z m 3.21162,0 h -1.71679 v -14.20914 h 1.71679 z m 10.99194,0 h -1.70765 V 162.11 q -0.2283,0.15524 -0.62097,0.43833 -0.38354,0.27395 -0.74881,0.43832 -0.4292,0.21004 -0.98624,0.34701 -0.55704,0.14611 -1.30585,0.14611 -1.37891,0 -2.33775,-0.91318 -0.95884,-0.91318 -0.95884,-2.32862 0,-1.15974 0.49312,-1.87203 0.50225,-0.72141 1.42456,-1.13234 0.93145,-0.41094 2.2373,-0.55704 1.30585,-0.14611 2.80348,-0.21917 v -0.26482 q 0,-0.58444 -0.21004,-0.96798 -0.2009,-0.38353 -0.58443,-0.6027 -0.36528,-0.21003 -0.87666,-0.28308 -0.51138,-0.0731 -1.06843,-0.0731 -0.67575,0 -1.50675,0.18264 -0.831,0.1735 -1.71678,0.51138 h -0.0913 v -1.74418 q 0.50225,-0.13698 1.45196,-0.30135 0.94971,-0.16437 1.87203,-0.16437 1.07755,0 1.87202,0.18263 0.8036,0.17351 1.38804,0.6027 0.57531,0.42007 0.87666,1.08669 0.30135,0.66663 0.30135,1.65286 z m -1.70765,-2.51126 v -2.84 q -0.78534,0.0457 -1.85377,0.13698 -1.05929,0.0913 -1.68025,0.26482 -0.73968,0.21003 -1.19628,0.65749 -0.45659,0.43833 -0.45659,1.21454 0,0.87665 0.52965,1.32411 0.52965,0.43833 1.61633,0.43833 0.90406,0 1.65287,-0.34701 0.74881,-0.35614 1.38804,-0.84926 z m 13.21097,2.51126 h -1.71679 v -5.80785 q 0,-0.70315 -0.0822,-1.31499 -0.0822,-0.62096 -0.30135,-0.96797 -0.2283,-0.38354 -0.65749,-0.56617 -0.4292,-0.19177 -1.11409,-0.19177 -0.70315,0 -1.47022,0.34701 -0.76708,0.34701 -1.47023,0.88578 v 7.61596 h -1.71678 v -10.20026 h 1.71678 v 1.13234 q 0.8036,-0.66662 1.66199,-1.04103 0.8584,-0.3744 1.76245,-0.3744 1.65286,0 2.52039,0.99537 0.86752,0.99537 0.86752,2.86739 z m 11.24763,0 h -1.71678 v -1.06843 q -0.73968,0.63923 -1.54328,0.99537 -0.80361,0.35614 -1.74419,0.35614 -1.82636,0 -2.90392,-1.4063 -1.06842,-1.4063 -1.06842,-3.89929 0,-1.29672 0.36527,-2.31036 0.3744,-1.01363 1.0045,-1.72592 0.62097,-0.69401 1.44283,-1.05929 0.831,-0.36527 1.71679,-0.36527 0.8036,0 1.42456,0.1735 0.62097,0.16438 1.30586,0.52052 v -4.41981 h 1.71678 z m -1.71678,-2.51126 v -5.85351 q -0.69402,-0.31048 -1.24193,-0.42919 -0.54791,-0.11872 -1.19627,-0.11872 -1.44283,0 -2.24644,1.00451 -0.8036,1.0045 -0.8036,2.84913 0,1.81723 0.62097,2.76695 0.62096,0.94057 1.99074,0.94057 0.73054,0 1.47935,-0.31961 0.74882,-0.32875 1.39718,-0.84013 z m 21.646,1.52502 q -0.50225,0.21916 -0.91319,0.41093 -0.4018,0.19177 -1.05929,0.4018 -0.55704,0.17351 -1.21453,0.29222 -0.64836,0.12785 -1.4337,0.12785 -1.47936,0 -2.69389,-0.41094 -1.2054,-0.42006 -2.10032,-1.30585 -0.87666,-0.86752 -1.36978,-2.20077 -0.49312,-1.34238 -0.49312,-3.11396 0,-1.68026 0.47486,-3.00437 0.47485,-1.32412 1.36977,-2.2373 0.86753,-0.88579 2.09119,-1.35151 1.2328,-0.46573 2.73042,-0.46573 1.09582,0 2.18251,0.26483 1.09582,0.26482 2.42907,0.93144 v 2.14598 h -0.13698 q -1.12322,-0.94057 -2.22817,-1.36977 -1.10495,-0.4292 -2.36514,-0.4292 -1.0319,0 -1.8629,0.33788 -0.82186,0.32875 -1.47022,1.0319 -0.6301,0.68489 -0.98624,1.73505 -0.34701,1.04103 -0.34701,2.4108 0,1.4337 0.38354,2.4656 0.39266,1.03189 1.0045,1.68026 0.63923,0.67575 1.48849,1.0045 0.85839,0.31961 1.8081,0.31961 1.30585,0 2.44733,-0.44746 1.14148,-0.44746 2.13685,-1.34238 h 0.12785 z m 10.78191,-4.10933 q 0,2.49299 -1.27846,3.93582 -1.27846,1.44283 -3.42444,1.44283 -2.16424,0 -3.4427,-1.44283 -1.26933,-1.44283 -1.26933,-3.93582 0,-2.49299 1.26933,-3.93582 1.27846,-1.45196 3.4427,-1.45196 2.14598,0 3.42444,1.45196 1.27846,1.44283 1.27846,3.93582 z m -1.77158,0 q 0,-1.98161 -0.77621,-2.94045 -0.7762,-0.96797 -2.15511,-0.96797 -1.39717,0 -2.17338,0.96797 -0.76707,0.95884 -0.76707,2.94045 0,1.91769 0.77621,2.91306 0.7762,0.98624 2.16424,0.98624 1.36978,0 2.14598,-0.97711 0.78534,-0.98624 0.78534,-2.92219 z m 12.55349,5.09557 h -1.71679 v -1.13235 q -0.86752,0.68489 -1.66199,1.05016 -0.79447,0.36527 -1.75331,0.36527 -1.60721,0 -2.50213,-0.9771 -0.89492,-0.98624 -0.89492,-2.88566 v -6.62058 h 1.71679 v 5.80784 q 0,0.77621 0.073,1.33325 0.0731,0.54791 0.31049,0.94058 0.24656,0.4018 0.63923,0.58444 0.39266,0.18263 1.14148,0.18263 0.66662,0 1.45196,-0.34701 0.79447,-0.34701 1.47935,-0.88578 v -7.61595 h 1.71679 z m 11.57637,0 h -1.71678 v -5.80785 q 0,-0.70315 -0.0822,-1.31499 -0.0822,-0.62096 -0.30135,-0.96797 -0.2283,-0.38354 -0.65749,-0.56617 -0.4292,-0.19177 -1.11409,-0.19177 -0.70315,0 -1.47022,0.34701 -0.76708,0.34701 -1.47023,0.88578 v 7.61596 h -1.71678 v -10.20026 h 1.71678 v 1.13234 q 0.80361,-0.66662 1.662,-1.04103 0.85839,-0.3744 1.76244,-0.3744 1.65286,0 2.52039,0.99537 0.86752,0.99537 0.86752,2.86739 z m 10.51708,-0.63923 q -0.85839,0.41093 -1.6346,0.63923 -0.76707,0.22829 -1.63459,0.22829 -1.10496,0 -2.02727,-0.31961 -0.92232,-0.32875 -1.57981,-0.98624 -0.66662,-0.65749 -1.0319,-1.66199 -0.36527,-1.00451 -0.36527,-2.34689 0,-2.50212 1.36978,-3.92669 1.3789,-1.42456 3.63447,-1.42456 0.87665,0 1.71678,0.24656 0.84926,0.24656 1.55241,0.6027 v 1.90855 h -0.0913 q -0.78534,-0.61183 -1.62547,-0.94058 -0.831,-0.32874 -1.62547,-0.32874 -1.46109,0 -2.31035,0.98623 -0.84013,0.97711 -0.84013,2.87653 0,1.84463 0.82186,2.84 0.831,0.98624 2.32862,0.98624 0.52052,0 1.05929,-0.13698 0.53878,-0.13697 0.96798,-0.35614 0.3744,-0.19177 0.70315,-0.4018 0.32875,-0.21916 0.52052,-0.3744 h 0.0913 z m 3.71388,-11.26869 h -1.93595 v -1.78071 h 1.93595 z m -0.10958,11.90792 h -1.71679 v -10.20026 h 1.71679 z m 4.80055,0 h -1.71679 v -14.20914 h 1.71679 z"
       id="text20"
       transform="scale(0.90037282,1.110651)"
       aria-label="Auckland Council" />
  </g>
</svg>
