<?xml version="1.0" encoding="UTF-8" standalone="no"?>
<!-- Created with Inkscape (http://www.inkscape.org/) -->

<svg
   width="103.45691mm"
   height="116.9412mm"
   viewBox="0 0 103.45691 116.9412"
   version="1.1"
   id="svg1"
   xml:space="preserve"
   xmlns="http://www.w3.org/2000/svg"
   xmlns:svg="http://www.w3.org/2000/svg"><defs
     id="defs1"><marker
       style="overflow:visible"
       id="ArrowWideHeavy"
       refX="0"
       refY="0"
       orient="auto-start-reverse"
       markerWidth="1"
       markerHeight="1"
       viewBox="0 0 1 1"
       preserveAspectRatio="xMidYMid"><path
         style="fill:context-stroke;fill-rule:evenodd;stroke:none"
         d="m 1,0 -3,3 h -2 l 3,-3 -3,-3 h 2 z"
         id="path85" /></marker><marker
       markerWidth="0.52499998"
       markerHeight="0.99999994"
       refX="0"
       refY="0"
       orient="auto-start-reverse"
       id="marker84"
       viewBox="0 0 0.525 1"
       style="overflow:visible"
       preserveAspectRatio="xMidYMid"><path
         style="fill:context-stroke;stroke-linecap:butt"
         d="M 0,-1 1,0 0,1 -0.05,0 Z"
         transform="scale(0.5)"
         id="path84" /></marker><marker
       markerWidth="0.63628411"
       markerHeight="0.99999994"
       refX="0"
       refY="0"
       orient="auto-start-reverse"
       id="CapButt"
       viewBox="0 0 0.63628413 1"
       style="overflow:visible"
       preserveAspectRatio="xMidYMid"><path
         style="fill:context-stroke;stroke-linecap:butt"
         d="M 0,-1 H 0.585 C 1.107,-1 1.369,-0.369 1,0 1.369,0.369 1.107,1 0.585,1 H 0 L -0.1,0 Z"
         transform="scale(0.5)"
         id="path81" /></marker><marker
       markerWidth="1.05"
       markerHeight="0.99999994"
       refX="0"
       refY="0"
       orient="auto-start-reverse"
       id="CapRibbon1"
       viewBox="0 0 1.05 1"
       style="overflow:visible"
       preserveAspectRatio="xMidYMid"><path
         style="fill:context-stroke;stroke-linecap:butt"
         d="M 0,-1 H 2 L 1,0 2,1 H 0 L -0.1,0 Z"
         transform="scale(0.5)"
         id="path80" /></marker><marker
       markerWidth="0.52499998"
       markerHeight="0.99999994"
       refX="0"
       refY="0"
       orient="auto-start-reverse"
       id="CapTriangle"
       viewBox="0 0 0.525 1"
       style="overflow:visible"
       preserveAspectRatio="xMidYMid"><path
         style="fill:context-stroke;stroke-linecap:butt"
         d="M 0,-1 1,0 0,1 -0.05,0 Z"
         transform="scale(0.5)"
         id="path61" /></marker><meshgradient
       id="meshgradient7"
       gradientUnits="userSpaceOnUse"
       x="71.548775"
       y="60.865173"><meshrow
         id="meshrow7"><meshpatch
           id="meshpatch7"><stop
             path="c 0.4595,0  0.919,0  1.3785,0"
             style="stop-color:#ffffff;stop-opacity:1"
             id="stop8" /><stop
             path="c 0,0.398315  0,0.796631  0,1.19495"
             style="stop-color:#000000;stop-opacity:1"
             id="stop9" /><stop
             path="c -0.4595,0  -0.919,0  -1.3785,0"
             style="stop-color:#ffffff;stop-opacity:1"
             id="stop10" /><stop
             path="c 0,-0.398315  0,-0.796631  0,-1.19495"
             style="stop-color:#000000;stop-opacity:1"
             id="stop11" /></meshpatch></meshrow></meshgradient></defs><g
     id="layer1"
     style="display:inline"
     transform="translate(-23.534005,-4.1381431)"><path
       id="path82"
       style="opacity:1;fill:none;stroke:#000029;stroke-width:2.01979;stroke-linecap:round;stroke-linejoin:round;paint-order:fill markers stroke"
       d="m 125.98102,65.951637 c 0,27.868247 -22.70747,50.459923 -50.718561,50.459923 -28.011087,0 -50.718559,-22.591677 -50.718559,-50.459923 0,-27.868246 22.707472,-50.459923 50.718559,-50.459923 28.011091,-10e-7 50.718561,22.591676 50.718561,50.459923 z" /><path
       style="fill:#000000;stroke-width:0;stroke-linecap:round;stroke-linejoin:round;paint-order:fill markers stroke"
       d="m 81.297247,101.12585 c 0,0 -0.344841,-2.155283 -0.215524,-2.888079 0,0 -0.948324,1.508697 -0.905219,2.888079 0,0 -0.775901,-1.681121 -0.474162,-2.543234 0,0 -0.819007,0.215528 -1.724226,2.457024 0,0 -0.560373,-1.681123 1.98286,-4.095039 2.543233,-2.413916 2.025965,-2.931184 2.025965,-2.931184 0,0 0.775902,-2.112177 1.250064,-2.715656 0,0 -0.344845,-0.948324 -0.129317,-1.293169 l -3.103606,-0.344845 c 0,0 -0.08621,1.336275 -0.517268,1.465592 -0.431057,0.129317 -0.603479,0.603479 -0.603479,0.603479 l -1.206958,-0.732796 -4.569199,1.767331 c 0,0 -0.172423,0.905219 0.04311,1.120747 0.215528,0.215528 -0.99143,0.08621 -1.551804,0.30174 -0.560373,0.215528 -0.991429,1.724226 -0.991429,2.844972 0,0 -0.7328,-1.638014 -0.474167,-2.844972 0,0 -1.206958,-0.129317 -1.077641,3.060501 0,0 -1.206958,-1.638015 0,-3.232924 0,0 -0.862113,-0.04311 -1.594909,2.112177 0,0 -0.431056,-1.551803 0.948325,-2.758762 0,0 2.327704,-0.560373 2.931184,-0.99143 0.603479,-0.431056 4.784726,-2.025965 5.215783,-2.327704 0.431056,-0.30174 0,-1.206959 0,-1.206959 0,0 -4.008825,-3.017395 -4.827833,-3.879508 -0.819007,-0.862113 -4.612304,-5.733051 -5.388206,-7.802122 0,0 -0.215528,-3.96572 0.948325,-5.64684 m 7.697466,-8.654609 c 0,0 -3.688641,7.318334 -3.731747,5.507897 -0.0431,-1.810437 -2.112176,-2.112177 -2.112176,-2.112177 0,0 0,-2.457022 -1.206959,-3.448452 0,0 -0.126253,-0.937864 -0.815943,-1.28271 0,0 -2.932607,-1.864002 -3.449875,-2.208847 -0.517268,-0.344845 2.757119,-0.344846 2.757119,-0.344846 m 0.862115,12.543744 0.439301,-0.43222 c 0,0 0.853448,0.304803 1.249692,0.182882 0.396244,-0.121921 0.548645,-1.402093 0.548645,-1.402093 l 0.97537,-0.243843 -1.249692,-3.322352 c 0,0 -0.09144,-1.371613 -0.518165,-2.07266 -0.426724,-0.701047 -1.950739,-3.596675 -2.529865,-3.870998 -0.579126,-0.274322 -3.200431,-1.158251 -3.200431,-1.158251 l 3.42303,-0.224209 4.65541,-0.258635 c 0,0 2.629445,0.172424 4.784728,1.810438 0,0 1.206959,1.120748 1.465593,1.853544 0.258633,0.732796 0.991429,2.025965 1.37938,2.241494 0.387951,0.215528 0.172423,1.163852 0.431057,1.37938 0.258634,0.215528 1.293169,1.250064 1.293169,1.250064 l 0.30174,0.68969 1.336275,1.250064 2.931184,2.586339 c 0,0 1.594909,1.379381 1.896648,1.98286 0.30174,0.603479 2.931184,3.276029 2.931184,3.276029 0,0 3.750192,4.612304 3.836403,5.043361 0.08621,0.431056 -0.68969,0.474162 -0.68969,0.474162 0,0 1.508697,1.810437 1.465592,2.327705 -0.04311,0.517268 -0.905219,0.08621 -0.905219,0.08621 0,0 10.000515,7.974545 11.379895,9.61256 0,0 -0.21553,0.819008 -0.68969,0.732797 -0.47417,-0.08621 -3.14672,-0.172423 -3.14672,-0.172423 l -1.767328,-1.336275 h -2.2846 L 91.340867,89.401113 88.539,88.711422 86.900985,89.832169 v 1.034536 l -2.025965,1.594909 -0.258634,-0.646585 c 0,0 -1.336275,2.413916 -1.853543,3.750191 -0.517268,1.336275 -0.04311,1.465592 -0.04311,1.465592 l 1.638015,1.250064 -2.155282,-0.344845 c 0,0 -1.034536,2.327709 -0.905219,3.189819"
       id="path2" /><path
       style="opacity:1;fill:#e6e6e6;stroke-width:0;stroke-linecap:round;stroke-linejoin:round;paint-order:fill markers stroke"
       d="m 61.661637,59.284173 c 0,0 0.548645,-0.579125 1.188731,-0.670565 0.640088,-0.09144 3.657637,0.06096 3.901479,0.06096 0.243843,0 0.518166,0.182883 0.518166,0.182883 0,0 0.12192,0.335282 -0.152403,0.396242 -0.274323,0.06096 -0.711505,0.186581 -0.711505,0.186581 0,0 2.479363,0.971673 2.845126,1.398395 0.365762,0.426726 0.822968,0.640087 0.213361,0.792489 -0.609606,0.1524 -4.328202,-2.103141 -4.328202,-2.103141 0,0 -3.474753,-0.07142 -3.474753,-0.243841 z"
       id="path1" /><path
       style="opacity:1;fill:#f9f9f9;stroke:none;stroke-width:0;stroke-linecap:round;stroke-linejoin:round;paint-order:fill markers stroke"
       d="m 71.253635,60.908278 c 0,0 -0.538821,1.594909 0.948325,1.659568 1.487143,0.06466 0.883663,-1.638015 0.883663,-1.638015 z"
       id="path3" /><path
       style="opacity:1;fill:url(#meshgradient7);fill-opacity:1;stroke:none;stroke-width:0;stroke-linecap:round;stroke-linejoin:round;paint-order:fill markers stroke"
       d="m 71.727797,60.865173 c 0,0 -0.560374,1.056089 0.301739,1.185407 0.862113,0.129315 1.042187,-1.098502 0.797454,-1.120749 -0.23708,-0.02155 -1.153075,-2e-6 -1.153075,-2e-6 z"
       id="path4" /><path
       style="opacity:1;fill:#f2f2f2;fill-opacity:1;stroke:none;stroke-width:0;stroke-linecap:round;stroke-linejoin:round;paint-order:fill markers stroke"
       d="m 70.409482,66.751847 c 0,0 -1.91107,-1.117313 -2.804187,0.21336 0,0 -0.947054,1.063115 -0.426723,2.194584 0,0 -0.97537,0.914409 -0.853449,1.371613 0.121921,0.457205 0.731527,1.097291 1.03633,1.06681 0.304803,-0.03048 0.335284,-0.487684 0.335284,-0.487684 0,0 0.579125,0.518165 1.280172,0.152401 0.701047,-0.365763 0.579126,-0.975369 0.579126,-0.975369 0,0 1.554495,-0.487685 1.676416,-1.097291 0.121921,-0.609606 0.121919,-1.737378 -0.822969,-2.438424 z"
       id="path11" /><path
       id="path83"
       style="opacity:1;fill:none;stroke:#000029;stroke-width:2.02066;stroke-linecap:butt;stroke-linejoin:bevel;stroke-dasharray:none;marker-start:url(#marker84);marker-mid:url(#ArrowWideHeavy);marker-end:url(#marker84);paint-order:normal"
       d="m 121.10856,74.797757 c -2.64935,20.46091 -21.926727,38.423553 -45.846095,38.423553 -25.725414,0 -46.752402,-19.936091 -46.752402,-42.614262" /><path
       id="path86"
       style="opacity:1;fill:none;stroke-width:0;stroke-linejoin:bevel"
       d="M 124.4891,48.968015 A 47.933479,44.829872 0 0 1 76.555621,93.797888 47.933479,44.829872 0 0 1 28.622142,48.968015 47.933479,44.829872 0 0 1 76.555621,4.1381431 47.933479,44.829872 0 0 1 124.4891,48.968015 Z" /><path
       id="path5"
       style="stroke-width:0;stroke-linejoin:bevel;fill:none"
       d="M 115.89097,70.290393 A 40.309277,43.7016 0 0 1 75.581696,113.99199 40.309277,43.7016 0 0 1 35.272419,70.290393 a 40.309277,43.7016 0 0 1 40.309277,-43.7016 40.309277,43.7016 0 0 1 40.309274,43.7016 z" /><path
       d="m 40.69517,37.989596 q 0.454402,0.312024 0.781419,0.770606 0.322473,0.455462 0.415019,0.953638 0.122172,0.678998 -0.01657,1.319249 -0.135625,0.635708 -0.644223,1.376382 l -0.745735,1.086019 2.203847,1.513312 -1.198169,1.744901 -6.766035,-4.646023 1.971986,-2.871816 q 0.443072,-0.64525 0.859335,-1.008013 0.414839,-0.370428 0.871513,-0.558338 0.548917,-0.224867 1.113617,-0.151375 0.567821,0.06895 1.153998,0.471458 z m -1.197835,1.832056 q -0.286273,-0.196575 -0.596841,-0.182489 -0.315113,0.01097 -0.537315,0.159282 -0.29627,0.197756 -0.483212,0.450524 -0.191485,0.249648 -0.487907,0.681329 l -0.205935,0.299905 2.02663,1.391623 0.343225,-0.499842 q 0.305783,-0.445313 0.447829,-0.769028 0.145167,-0.32826 0.115752,-0.635981 -0.02996,-0.267976 -0.179973,-0.47797 -0.151436,-0.217659 -0.442253,-0.417353 z m 8.201442,-3.387347 -0.913471,-0.910643 q -0.260667,0.308322 -0.548515,0.682946 -0.291752,0.370733 -0.408332,0.59698 -0.143785,0.276959 -0.12782,0.518591 0.01595,0.233836 0.222851,0.440093 0.13663,0.136207 0.245862,0.198401 0.109232,0.06219 0.280705,0.04634 0.167582,-0.01195 0.331152,-0.09796 0.159666,-0.08989 0.424297,-0.355347 0.210149,-0.210801 0.338307,-0.511122 0.132049,-0.304225 0.154964,-0.60828 z m 0.679248,0.677145 q -0.02698,0.198824 -0.0733,0.487325 -0.04632,0.288501 -0.12394,0.506891 -0.112567,0.300297 -0.291449,0.565617 -0.174979,0.269212 -0.43961,0.534665 -0.622662,0.624596 -1.429428,0.660926 -0.806765,0.03633 -1.407938,-0.562982 -0.480158,-0.478671 -0.570609,-0.996924 -0.09045,-0.518252 0.126938,-1.087652 0.213496,-0.565496 0.715287,-1.217188 0.501792,-0.651692 1.085429,-1.307409 l -0.02342,-0.02335 q -0.363046,-0.361923 -0.795441,-0.201447 -0.436298,0.156584 -1.01226,0.734335 -0.346356,0.347431 -0.614492,0.86624 -0.27204,0.514917 -0.376909,0.752838 l -0.128424,0.128823 -1.057909,-1.054634 q 0.163268,-0.280886 0.583323,-0.858396 0.420043,-0.585304 0.922064,-1.088884 1.194732,-1.198443 2.094849,-1.359644 0.900104,-0.168997 1.688656,0.617114 l 2.982444,2.973211 -1.389314,1.393629 z m 4.291143,-8.100676 -0.142544,0.103896 q -0.128428,0.03904 -0.368594,0.186805 -0.240167,0.147765 -0.39162,0.258155 -0.342996,0.249999 -0.573344,0.486101 -0.230348,0.236103 -0.455332,0.563789 l 2.441549,3.349784 -1.603619,1.168827 -3.646091,-5.002403 1.60362,-1.168827 0.535712,0.734993 q 0.198918,-0.840721 0.483771,-1.273433 0.281607,-0.437166 0.61124,-0.677425 0.08463,-0.06169 0.19479,-0.135156 0.110155,-0.07347 0.196829,-0.122999 z m 6.00282,-0.199406 -0.580439,-1.151864 q -0.344459,0.210612 -0.735586,0.475603 -0.393607,0.260068 -0.57547,0.438125 -0.223646,0.21763 -0.284542,0.452007 -0.05845,0.226974 0.07301,0.487866 0.08682,0.172288 0.170923,0.2657 0.08411,0.09341 0.251857,0.132329 0.162827,0.0414 0.345152,0.01125 0.179845,-0.03507 0.514574,-0.203748 0.265815,-0.133947 0.481981,-0.37867 0.221089,-0.247204 0.338536,-0.528595 z m 0.431608,0.856515 q -0.08818,0.180229 -0.222953,0.439488 -0.134772,0.25926 -0.277177,0.442124 -0.20136,0.249607 -0.454657,0.445143 -0.250816,0.200459 -0.585546,0.369133 -0.7876,0.396882 -1.564799,0.177449 -0.7772,-0.219432 -1.159198,-0.977496 -0.305103,-0.605468 -0.227845,-1.12585 0.07726,-0.520383 0.462807,-0.992426 0.380627,-0.469564 1.062027,-0.930206 0.681399,-0.460643 1.441752,-0.899346 l -0.01488,-0.02953 q -0.230687,-0.457792 -0.691615,-0.441561 -0.463408,0.01131 -1.191937,0.378424 -0.438103,0.220765 -0.855899,0.628816 -0.420276,0.403129 -0.594697,0.595954 l -0.162443,0.08186 -0.672217,-1.333997 q 0.243375,-0.215226 0.823844,-0.631181 0.582911,-0.423358 1.217913,-0.743344 1.511207,-0.761516 2.416315,-0.631227 0.907549,0.122885 1.408612,1.117229 l 1.895108,3.760787 -1.757332,0.885542 z m -1.911409,-6.61042 -3.947842,1.989367 -0.520906,-1.033725 3.947842,-1.989367 z m 8.59945,0.318076 -0.168566,0.05195 q -0.134144,-0.0048 -0.409289,0.05692 -0.275144,0.06173 -0.454245,0.116922 -0.405611,0.125005 -0.700169,0.273465 -0.294558,0.148459 -0.613796,0.385278 l 1.220828,3.961286 -1.896361,0.584439 -1.823125,-5.915591 1.896361,-0.584439 0.267868,0.869165 q 0.461261,-0.730492 0.871242,-1.047188 0.408358,-0.321963 0.798165,-0.442098 0.100086,-0.03084 0.228134,-0.06454 0.128047,-0.03369 0.226112,-0.05238 z m 5.761802,1.797079 -0.163801,-1.279402 q -0.39493,0.08391 -0.85197,0.203548 -0.45774,0.114176 -0.688511,0.221521 -0.283346,0.130748 -0.418805,0.331477 -0.130691,0.194561 -0.09359,0.48434 0.0245,0.191363 0.07271,0.307449 0.0482,0.116086 0.193426,0.208636 0.139753,0.09325 0.321714,0.125526 0.181261,0.02681 0.553053,-0.02079 0.295247,-0.0378 0.580561,-0.196586 0.290782,-0.159486 0.495218,-0.385717 z m 0.1218,0.95135 q -0.143158,0.140586 -0.356562,0.340179 -0.213404,0.199594 -0.40857,0.324609 -0.272979,0.168321 -0.576928,0.268364 -0.303249,0.105511 -0.675041,0.153111 -0.874805,0.112 -1.534599,-0.353685 -0.659793,-0.465685 -0.767593,-1.307685 -0.0861,-0.672506 0.160013,-1.137474 0.246114,-0.464967 0.766835,-0.781706 0.515253,-0.316039 1.311147,-0.523523 0.795895,-0.207483 1.658932,-0.367991 l -0.0042,-0.0328 q -0.0651,-0.508481 -0.505133,-0.646644 -0.440732,-0.143631 -1.249927,-0.04003 -0.48661,0.0623 -1.01643,0.307962 -0.530521,0.240193 -0.759192,0.363941 l -0.180429,0.0231 -0.1897,-1.481701 q 0.301149,-0.121913 0.986993,-0.320864 0.690611,-0.205119 1.395923,-0.295419 1.678531,-0.2149 2.488616,0.209315 0.814852,0.418047 0.956252,1.522488 l 0.534802,4.177193 -1.951909,0.249901 z m 0.398629,-6.86966 -4.384959,0.561402 -0.147,-1.148182 4.384959,-0.561401 z m 13.90318,2.077125 -2.638354,5.919181 -2.090804,-0.249556 -0.758848,-4.292898 -1.726034,3.996305 -2.11817,-0.252823 -1.154649,-6.37191 2.068911,0.246943 0.54523,4.361772 1.819239,-4.079551 1.745986,0.208399 0.742269,4.38529 1.5401,-4.112869 z m 4.335364,6.519565 0.456861,-1.206224 q -0.388015,-0.111597 -0.84765,-0.220848 -0.457682,-0.114406 -0.711827,-0.128144 -0.311551,-0.0178 -0.525469,0.09569 -0.206812,0.110287 -0.310289,0.383491 -0.06833,0.180419 -0.08036,0.305539 -0.01202,0.12512 0.07264,0.275074 0.07951,0.148001 0.224942,0.262026 0.147382,0.10887 0.497909,0.241633 0.278359,0.10543 0.604827,0.09941 0.331622,-0.0041 0.61841,-0.107644 z m -0.339718,0.896937 q -0.192442,0.05679 -0.474623,0.132631 -0.282181,0.07585 -0.513207,0.09444 -0.320062,0.02024 -0.635363,-0.03435 -0.317252,-0.04943 -0.667779,-0.182193 -0.824769,-0.312384 -1.188201,-1.033568 -0.363431,-0.721185 -0.06276,-1.515026 0.240145,-0.634041 0.675946,-0.928734 0.435802,-0.294692 1.044295,-0.329466 0.603339,-0.03673 1.403346,0.154287 0.800007,0.191014 1.637192,0.455052 l 0.01171,-0.03093 q 0.181573,-0.479397 -0.141858,-0.808198 -0.321479,-0.333955 -1.08439,-0.622911 -0.458778,-0.173763 -1.04189,-0.206002 -0.58116,-0.03739 -0.841162,-0.03567 l -0.170109,-0.06443 0.5291,-1.396953 q 0.32311,0.03397 1.021973,0.180776 0.705971,0.143609 1.370941,0.395468 1.582525,0.599387 2.098101,1.35462 0.522683,0.752031 0.128298,1.793301 l -1.491634,3.938272 -1.840265,-0.697007 z m 4.830005,3.114522 -1.735561,-0.962071 3.001125,-5.413987 1.735561,0.962071 z m 3.476922,-6.158624 -1.831981,-1.015518 0.72957,-1.316134 1.831981,1.015518 z m 7.774159,11.796224 q -0.8204,0.893046 -2.0941,0.755893 -1.26591,-0.137482 -2.56489,-1.330785 -0.75097,-0.689878 -1.19182,-1.334387 -0.433068,-0.64484 -0.733731,-1.295293 l 1.331281,-1.449171 0.17049,0.156621 q 0.12879,0.829393 0.53533,1.584591 0.41059,0.758927 0.96266,1.26608 0.14207,0.130518 0.39583,0.318719 0.25375,0.188201 0.45209,0.265617 0.24574,0.09101 0.46008,0.08582 0.21841,-0.0015 0.41605,-0.216601 0.18272,-0.198906 0.14275,-0.497603 -0.0322,-0.299026 -0.28608,-0.674479 -0.2664,-0.394427 -0.58458,-0.813968 -0.31039,-0.419871 -0.54257,-0.835256 -0.53567,-0.948683 -0.48477,-1.680363 0.0587,-0.73201 0.63669,-1.361202 0.77565,-0.844334 2.01919,-0.682496 1.25132,0.161508 2.4407,1.254126 0.59672,0.548173 1.06905,1.19915 0.48013,0.650646 0.74601,1.216749 l -1.27907,1.39234 -0.16644,-0.152892 q -0.0968,-0.627886 -0.44961,-1.31124 -0.34499,-0.683685 -0.89705,-1.190839 -0.19485,-0.178995 -0.4158,-0.329575 -0.21316,-0.150911 -0.45889,-0.241922 -0.21425,-0.08454 -0.44351,-0.06312 -0.22554,0.01736 -0.37097,0.175678 -0.22002,0.239498 -0.15668,0.537204 0.0671,0.293647 0.47753,0.865322 0.26947,0.374792 0.51425,0.719421 0.24884,0.348358 0.49759,0.786448 0.48531,0.864992 0.45239,1.560798 -0.0251,0.695477 -0.5994,1.32061 z m 0.84008,5.532197 q -0.49486,-0.641627 -0.75278,-1.291957 -0.25456,-0.645964 -0.2389,-1.284541 0.019,-0.634211 0.33857,-1.221752 0.31954,-0.58754 0.9699,-1.089126 0.68527,-0.528517 1.35791,-0.68531 0.67601,-0.152428 1.31981,0.0054 0.61624,0.158187 1.16087,0.566511 0.54463,0.408323 0.97553,0.967019 0.38713,0.501953 0.60454,1.009499 0.21742,0.507546 0.3256,1.008844 l -1.34,1.033469 -0.17168,-0.222606 q 0.008,-0.152255 0.0116,-0.363992 0.007,-0.207372 -0.0372,-0.472485 -0.042,-0.253017 -0.14583,-0.514022 -0.0995,-0.264371 -0.3183,-0.548084 -0.48475,-0.628533 -1.14889,-0.659284 -0.6564,-0.02975 -1.34168,0.498763 -0.7071,0.545349 -0.8078,1.172942 -0.0973,0.631958 0.39415,1.269221 0.22891,0.296807 0.47616,0.482012 0.25499,0.186203 0.46784,0.272643 0.20175,0.08108 0.3853,0.120503 0.18355,0.03943 0.34927,0.06476 l 0.17169,0.222605 -1.34,1.033469 q -0.46073,-0.236355 -0.87419,-0.564857 -0.41446,-0.320771 -0.79149,-0.80963 z m 5.0137,8.04614 -0.94386,-1.758054 2.70507,-1.452294 q 0.33024,-0.1773 0.63738,-0.385988 0.31199,-0.211295 0.42307,-0.377291 0.12754,-0.193602 0.10842,-0.42733 -0.0165,-0.228872 -0.19643,-0.563971 -0.12776,-0.237969 -0.33844,-0.443933 -0.20807,-0.201107 -0.53188,-0.396383 l -3.86578,2.075451 -0.93864,-1.748341 7.55671,-4.057038 0.93865,1.748341 -2.70507,1.452294 q 0.61454,0.270673 1.03825,0.593751 0.42631,0.327935 0.70791,0.852437 0.47454,0.883884 0.2257,1.655626 -0.24624,0.776599 -1.27096,1.32675 z m 5.59197,6.60443 q -1.44851,0.482858 -2.56759,-0.08538 -1.1121,-0.564749 -1.62111,-2.091695 -0.509,-1.526947 0.0401,-2.651252 0.55603,-1.120819 2.00454,-1.603677 1.45897,-0.486345 2.57281,0.08363 1.11559,0.575207 1.62111,2.091695 0.51249,1.537405 -0.0453,2.652995 -0.55603,1.120819 -2.00454,1.603677 z m -2.19982,-1.840681 q 0.28587,0.108068 0.62926,0.09238 0.35037,-0.01221 0.9099,-0.198726 0.51769,-0.172574 0.83668,-0.383493 0.31898,-0.210919 0.47237,-0.447982 0.15862,-0.238807 0.16908,-0.503758 0.0105,-0.264951 -0.0802,-0.536873 -0.0907,-0.271922 -0.23533,-0.461917 -0.14294,-0.184767 -0.42706,-0.305037 -0.26147,-0.104582 -0.65192,-0.09063 -0.38871,0.01918 -0.92733,0.198726 -0.48109,0.160372 -0.80705,0.367805 -0.32072,0.20569 -0.4776,0.449726 -0.14816,0.23532 -0.16559,0.496785 -0.0157,0.266694 0.0837,0.564762 0.0854,0.256234 0.24578,0.458431 0.16734,0.205684 0.42532,0.299807 z m 3.58951,9.859849 q -1.50778,0.240699 -2.51946,-0.502072 -1.00538,-0.738198 -1.25911,-2.327623 -0.25374,-1.589425 0.47097,-2.609392 0.73101,-1.015393 2.23879,-1.256093 1.51866,-0.242437 2.52491,0.501203 1.00711,0.749084 1.25911,2.327623 0.25547,1.600311 -0.47642,2.610261 -0.73101,1.015393 -2.23879,1.256093 z m -1.87095,-2.17413 q 0.26447,0.153149 0.60584,0.193546 0.34768,0.04497 0.9301,-0.048 0.53888,-0.08603 0.88794,-0.242224 0.34906,-0.156198 0.53898,-0.36514 0.19536,-0.209811 0.2488,-0.469528 0.0534,-0.259718 0.008,-0.542766 -0.0452,-0.283049 -0.15701,-0.494056 -0.11097,-0.205564 -0.37173,-0.370468 -0.24097,-0.145737 -0.62849,-0.195513 -0.38665,-0.04433 -0.9473,0.04517 -0.50078,0.07994 -0.85614,0.231567 -0.34993,0.150755 -0.54443,0.366009 -0.18448,0.208072 -0.24422,0.463216 -0.0589,0.260587 -0.009,0.570851 0.0426,0.266719 0.16791,0.492318 0.13164,0.230173 0.37086,0.365024 z m -1.12383,5.952168 -0.0755,-1.982942 8.57071,-0.326221 0.0755,1.982942 z"
       id="text1"
       style="font-weight:bold;font-size:11.2889px;line-height:1;font-family:'ITF Devanagari Marathi';-inkscape-font-specification:'ITF Devanagari Marathi Bold';text-align:end;letter-spacing:-0.127px;word-spacing:0px;text-anchor:end;stroke-width:0;stroke-linejoin:bevel"
       transform="rotate(-12.91657,78.50693,67.533944)"
       aria-label="Parārāwai School" /></g><g
     id="layer4"
     transform="translate(-23.534005,-4.1381431)"><path
       style="opacity:1;fill:#ffd500;fill-opacity:1;stroke:#330700;stroke-width:0.499999;stroke-linecap:round;stroke-linejoin:round;stroke-dasharray:none;stroke-dashoffset:0;stroke-opacity:1;paint-order:fill markers stroke"
       d="m 35.519053,108.79865 c 0,0 -1.120746,2.06907 1.465593,2.32771 2.586339,0.25863 4.05193,-1.03454 4.914043,-3.0174 0.862113,-1.98286 0.862113,-3.62087 0.862113,-3.62087 z"
       id="path63" /><path
       style="opacity:1;fill:#ffd500;fill-opacity:1;stroke:#330700;stroke-width:0.499999;stroke-linecap:round;stroke-linejoin:round;stroke-dasharray:none;stroke-dashoffset:0;stroke-opacity:1;paint-order:fill markers stroke"
       d="m 43.967759,102.59144 c 0,0 -1.293169,6.03479 -7.500382,6.98311 -6.207212,0.94833 -2.758762,-2.75876 -2.758762,-2.75876 0,0 6.121003,-0.86211 8.62113,-2.84497 2.500127,-1.98286 1.638014,-1.37938 1.638014,-1.37938 z"
       id="path62" /><path
       style="opacity:1;fill:#ffd500;fill-opacity:1;stroke:#330700;stroke-width:0.499999;stroke-linecap:round;stroke-linejoin:round;stroke-dasharray:none;stroke-dashoffset:0;stroke-opacity:1;paint-order:fill markers stroke"
       d="m 41.553844,100.95343 c 0,0 -3.879509,3.53466 -4.65541,3.79329 -0.775901,0.25864 -0.344845,1.55181 1.379381,1.29317 1.724226,-0.25863 5.517523,-3.18982 5.3451,-4.22435 -0.172424,-1.03454 -2.069071,-0.86211 -2.069071,-0.86211 z"
       id="path60" /><path
       style="opacity:1;fill:#ffd500;fill-opacity:1;stroke:#330700;stroke-width:0.5;stroke-linecap:round;stroke-linejoin:round;stroke-dasharray:none;stroke-dashoffset:0;stroke-opacity:1;paint-order:fill markers stroke"
       d="m 40.088251,99.142988 c 0,0 -1.810436,1.896652 -2.75876,2.241492 -0.948325,0.34485 -3.879509,-0.0862 -3.707085,1.03454 0.172421,1.12074 2.672548,1.89665 3.448449,1.81043 0.775904,-0.0862 3.189819,-0.86211 4.482989,-3.36224 1.293169,-2.500123 -1.465593,-1.724222 -1.465593,-1.724222 z"
       id="path59" /><path
       style="opacity:1;fill:#ffd500;fill-opacity:1;stroke:#330700;stroke-width:0.499999;stroke-linecap:round;stroke-linejoin:round;stroke-dasharray:none;stroke-dashoffset:0;stroke-opacity:1;paint-order:fill markers stroke"
       d="m 44.226395,104.05703 c 0,0 -1.29317,6.37964 -0.431057,7.67281 0.862113,1.29317 2.586339,2.84497 2.586339,2.84497 0,0 1.034534,1.20696 1.465591,1.03453 0.431056,-0.17242 2.069071,-2.58633 1.551802,-3.62087 -0.517265,-1.03454 -1.982859,-3.01739 -2.241491,-3.96572 -0.258636,-0.94832 0,-3.96572 0.08621,-5.17268 0.08621,-1.20695 -2.586337,-0.25863 -3.017393,1.20696 z"
       id="path64" /><path
       style="opacity:1;fill:#ffd500;fill-opacity:1;stroke:#330700;stroke-width:0.499999;stroke-linecap:round;stroke-linejoin:round;stroke-dasharray:none;stroke-dashoffset:0;stroke-opacity:1;paint-order:fill markers stroke"
       d="m 49.743918,107.16064 c 0,0 -4.051933,8.01765 -5.517523,9.22461 -1.465593,1.20695 0.344844,2.75876 2.586336,2.3277 2.241495,-0.43105 4.310565,-3.70708 4.396777,-5.60373 0.08621,-1.89665 0.08621,-7.75902 0.08621,-7.75902 z"
       id="path65" /><path
       style="opacity:1;fill:#ffd500;fill-opacity:1;stroke:#330700;stroke-width:0.499999;stroke-linecap:round;stroke-linejoin:round;stroke-dasharray:none;stroke-dashoffset:0;stroke-opacity:1;paint-order:fill markers stroke"
       d="m 53.623424,107.07443 c 0,0 1.896649,7.6728 3.793296,8.4487 1.89665,0.7759 3.18982,1.4656 3.18982,1.4656 0,0 -2.672551,3.44845 -3.879509,3.79329 -1.206958,0.34485 -3.620873,-1.46559 -3.879509,-3.01739 -0.258632,-1.55181 -0.689689,-9.65567 -0.775901,-10.77642 -0.08621,-1.12074 1.551803,0.0862 1.551803,0.0862 z"
       id="path66" /><path
       style="opacity:1;fill:#ffd500;fill-opacity:1;stroke:#330700;stroke-width:0.499999;stroke-linecap:round;stroke-linejoin:round;stroke-dasharray:none;stroke-dashoffset:0;stroke-opacity:1;paint-order:fill markers stroke"
       d="m 62.761822,101.81554 c 0,0 -3.793297,-0.86211 -4.741621,0.34484 -0.948325,1.20696 -0.431057,1.63802 1.120746,1.98286 1.551805,0.34485 3.534663,-0.34484 4.224353,-0.94832 0.689692,-0.60348 -0.603478,-1.37938 -0.603478,-1.37938 z"
       id="path67" /><path
       style="opacity:1;fill:#ffd500;fill-opacity:1;stroke:#330700;stroke-width:0.499999;stroke-linecap:round;stroke-linejoin:round;stroke-dasharray:none;stroke-dashoffset:0;stroke-opacity:1;paint-order:fill markers stroke"
       d="m 58.796102,103.19492 c 0,0 -2.586339,1.20696 -2.931184,1.98286 -0.344845,0.7759 0.948325,1.37938 2.844972,0.86211 1.89665,-0.51727 2.586339,-2.67255 2.586339,-2.67255 z"
       id="path68" /><path
       style="opacity:1;fill:#ffd500;fill-opacity:1;stroke:#330700;stroke-width:0.499999;stroke-linecap:round;stroke-linejoin:round;stroke-dasharray:none;stroke-dashoffset:0;stroke-opacity:1;paint-order:fill markers stroke"
       d="m 63.192879,103.36734 c 0,0 -4.051932,1.46559 -4.827834,3.10361 -0.775901,1.63801 -0.689689,2.15528 0.517269,2.06907 1.206957,-0.0862 2.413915,-1.89665 2.844972,-2.75876 0.431056,-0.86212 1.465593,-2.41392 1.465593,-2.41392 z"
       id="path69" /><path
       style="opacity:1;fill:#ffd500;fill-opacity:1;stroke:#330700;stroke-width:0.499999;stroke-linecap:round;stroke-linejoin:round;stroke-dasharray:none;stroke-dashoffset:0;stroke-opacity:1;paint-order:fill markers stroke"
       d="m 63.96878,106.81579 c 0,0 -3.879509,2.93119 -4.138141,3.87951 -0.258636,0.94832 -0.08621,3.0174 -0.08621,3.0174 0,0 3.189816,-0.0862 4.569198,-4.65541 1.379381,-4.5692 -0.344845,-2.2415 -0.344845,-2.2415 z"
       id="path70" /><path
       style="opacity:1;fill:#ffd500;fill-opacity:1;stroke:#330700;stroke-width:0.499999;stroke-linecap:round;stroke-linejoin:round;stroke-dasharray:none;stroke-dashoffset:0;stroke-opacity:1;paint-order:fill markers stroke"
       d="m 64.658469,110.6953 c 0,0 -4.051929,3.27603 -3.965717,3.7933 0.08621,0.51727 0.431056,2.93118 0.603477,3.27603 0.172424,0.34484 1.551805,0.34484 2.069071,-0.86212 0.517268,-1.20695 1.293169,-6.20721 1.293169,-6.20721 z"
       id="path71" /><path
       style="opacity:1;fill:#ffd500;fill-opacity:1;stroke:#330700;stroke-width:0.499999;stroke-linecap:round;stroke-linejoin:round;stroke-dasharray:none;stroke-dashoffset:0;stroke-opacity:1;paint-order:fill markers stroke"
       d="m 75.434882,108.88486 c 0,0 3.017396,2.84498 3.448452,5.08647 0.431057,2.24149 -0.344844,1.98286 -0.344844,1.98286 0,0 -2.586339,-0.94832 -4.569201,-4.22435 -1.982859,-3.27603 -1.465591,-4.65541 -1.465591,-4.65541 z"
       id="path74" /><path
       style="opacity:1;fill:#ffd500;fill-opacity:1;stroke:#330700;stroke-width:0.499999;stroke-linecap:round;stroke-linejoin:round;stroke-dasharray:none;stroke-dashoffset:0;stroke-opacity:1;paint-order:fill markers stroke"
       d="m 66.210274,108.54002 c 0,0 -0.431056,2.58634 0.344845,4.13814 0.775901,1.5518 2.155283,3.18982 1.034534,3.53466 -1.120746,0.34485 -2.241492,0.51727 -3.36224,-1.5518 -1.120746,-2.06907 -0.172421,-6.8969 0.08621,-7.24175 0.258635,-0.34484 1.896649,1.12075 1.896649,1.12075 z"
       id="path72" /><path
       style="opacity:1;fill:#ffd500;fill-opacity:1;stroke:#330700;stroke-width:0.499999;stroke-linecap:round;stroke-linejoin:round;stroke-dasharray:none;stroke-dashoffset:0;stroke-opacity:1;paint-order:fill markers stroke"
       d="m 74.141713,111.90226 c 0,0 3.189816,3.36224 2.931183,5.3451 -0.258632,1.98286 -0.344844,3.53466 -1.293169,2.84497 -0.948325,-0.68969 -2.069071,-4.22435 -2.413915,-5.60373 -0.344845,-1.37938 0.775901,-2.58634 0.775901,-2.58634 z"
       id="path75" /><path
       style="opacity:1;fill:#ffd500;fill-opacity:1;stroke:#330700;stroke-width:0.499999;stroke-linecap:round;stroke-linejoin:round;stroke-dasharray:none;stroke-dashoffset:0;stroke-opacity:1;paint-order:fill markers stroke"
       d="m 71.210529,109.9194 c 0,0 1.206958,3.44845 0.689689,4.31056 -0.517268,0.86212 -2.844972,3.44846 -2.06907,4.31057 0.775901,0.86211 3.103607,0.60348 3.534664,-0.51727 0.431056,-1.12075 1.638014,-7.06933 0.603477,-8.79355 -1.034534,-1.72423 -2.75876,0.68969 -2.75876,0.68969 z"
       id="path73" /><path
       style="opacity:1;fill:#ffd500;fill-opacity:1;stroke:#330700;stroke-width:0.499999;stroke-linecap:round;stroke-linejoin:round;stroke-dasharray:none;stroke-dashoffset:0;stroke-opacity:1;paint-order:fill markers stroke"
       d="m 79.055755,108.62623 c 0,0 3.448453,3.10361 3.362241,4.13814 -0.08621,1.03454 -0.172421,3.10361 -0.775902,3.62088 -0.603477,0.51726 -1.810435,1.72422 -2.413915,1.81043 -0.60348,0.0862 -1.551802,-1.20695 -1.465593,-2.67255 0.08621,-1.46559 0.60348,-4.05193 -0.08621,-5.51752 -0.689692,-1.46559 -0.258636,-2.58634 -0.258636,-2.58634 z"
       id="path76" /><path
       style="opacity:1;fill:#ffd500;fill-opacity:1;stroke:#330700;stroke-width:0.499999;stroke-linecap:round;stroke-linejoin:round;stroke-dasharray:none;stroke-dashoffset:0;stroke-opacity:1;paint-order:fill markers stroke"
       d="m 80.176504,106.90201 c 0,0 3.017396,1.20695 4.396774,1.37937 1.379382,0.17243 2.586339,0.43106 3.620876,0.17243 1.034534,-0.25864 3.448452,1.03453 0.948325,2.84497 -2.50013,1.81044 -4.482989,1.29317 -5.345102,0.68969 -0.862113,-0.60348 -3.448452,-2.67255 -4.482986,-3.36224 -1.034537,-0.68969 0.862113,-1.72422 0.862113,-1.72422 z"
       id="path77" /></g><g
     id="layer5"
     transform="translate(-23.534005,-4.1381431)"><path
       style="display:inline;opacity:1;fill:none;fill-opacity:1;stroke:#003b29;stroke-width:1.9;stroke-linecap:round;stroke-linejoin:round;stroke-dasharray:none;stroke-dashoffset:0;stroke-opacity:1;marker-start:url(#CapRibbon1);marker-end:url(#CapButt);paint-order:fill markers stroke"
       d="m 28.491309,70.541861 c 0,0 5.768544,0.782029 8.57273,0.172423 2.804187,-0.609605 7.071429,-4.389162 7.437192,-5.24261 0.365762,-0.853448 7.193348,-3.535714 8.900247,-4.389162 1.706896,-0.853448 6.949506,-3.535714 8.168719,-4.267242 1.219211,-0.731526 4.26724,-3.779557 6.339901,-4.633005 2.072661,-0.853448 4.998768,-1.584976 6.217981,-1.097291 1.21921,0.487685 3.291871,1.584976 4.511082,2.804189 1.219213,1.219211 2.194581,2.316501 3.413794,3.048029 1.219211,0.731526 3.169949,0.853448 4.633005,0.853448 1.463053,0 4.511083,-0.487685 6.461821,0.487685 1.950741,0.975368 3.169952,0.731526 5.486456,2.682264 2.316503,1.950741 9.753693,9.509853 12.679803,11.216751 2.92611,1.706896 9.06041,2.646554 10.03578,2.646554"
       id="path78" /></g><g
     id="layer3"
     transform="translate(-23.534005,-4.1381431)"><path
       style="opacity:1;fill:#632619;fill-opacity:1;stroke:#330700;stroke-width:0.7;stroke-linecap:round;stroke-linejoin:round;stroke-dasharray:1.4, 0.7, 0.349999, 0.7;stroke-dashoffset:0;stroke-opacity:1;paint-order:fill markers stroke"
       d="m 51.381932,90.177013 -1.206958,2.672551 -1.724226,0.08621 -0.60348,1.034534 -2.155283,0.258635 -2.06907,2.75876 2.327706,1.724226 0.689689,-2.758762 3.36224,-0.948323 2.413916,3.103605 -0.948322,3.189821 0.08621,1.12075 1.89665,1.12074 0.172421,-2.84497 0.948324,-2.155284 v -1.465591 l -1.034534,-1.379381 -1.465593,-1.551803 1.29317,-0.517268 1.638014,-3.189817 z"
       id="path48" /><path
       style="opacity:1;fill:#0d481f;fill-opacity:1;stroke:#330700;stroke-width:0.7;stroke-linecap:round;stroke-linejoin:round;stroke-dasharray:1.4, 0.7, 0.349999, 0.7;stroke-dashoffset:0;stroke-opacity:1;paint-order:fill markers stroke"
       d="m 51.899198,101.29827 -0.862111,2.50013 -2.413918,-0.17243 -0.775901,3.44846 0.08621,1.20695 1.896647,0.0862 0.689692,-1.12075 1.379379,1.81044 1.465593,-1.37938 0.344844,0.94832 1.982862,-0.60348 -1.20696,-1.81044 -0.08621,-1.72422 -1.551805,-3.44845 z"
       id="path51" /><path
       style="opacity:1;fill:#0d481f;fill-opacity:1;stroke:#330700;stroke-width:0.7;stroke-linecap:round;stroke-linejoin:round;stroke-dasharray:1.4, 0.7, 0.349999, 0.7;stroke-dashoffset:0;stroke-opacity:1;paint-order:fill markers stroke"
       d="m 45.519564,97.504974 2.75876,3.103606 0.431057,0.17242 0.08621,3.36224 -2.586339,-1.20696 -1.29317,1.37939 -1.034537,-1.29317 -1.896647,0.17242 -0.08621,-3.18982 z"
       id="path50" /><path
       style="opacity:1;fill:#0d481f;fill-opacity:1;stroke:#330700;stroke-width:0.7;stroke-linecap:round;stroke-linejoin:round;stroke-dasharray:1.4, 0.7, 0.349999, 0.7;stroke-dashoffset:0;stroke-opacity:1;paint-order:fill markers stroke"
       d="m 44.398816,96.470437 -2.75876,-0.344845 -2.844975,2.844972 0.775904,0.431057 1.810435,1.982859 2.844975,-1.982859 0.948322,-1.465591 z"
       id="path49" /><path
       style="opacity:1;fill:none;fill-opacity:1;stroke:#330700;stroke-width:1.4;stroke-linecap:round;stroke-linejoin:round;stroke-dasharray:none;stroke-dashoffset:0;stroke-opacity:1;paint-order:fill markers stroke"
       d="m 72.245064,101.38448 c 0,0 0.344846,3.10361 5.517522,3.7933"
       id="path57" /><path
       style="opacity:1;fill:none;fill-opacity:1;stroke:#330700;stroke-width:1.4;stroke-linecap:round;stroke-linejoin:round;stroke-dasharray:none;stroke-dashoffset:0;stroke-opacity:1;paint-order:fill markers stroke"
       d="m 74.486557,96.815282 -0.344844,2.758762 -1.29317,1.379386 -1.551802,0.68969 -2.241495,-0.68969 -2.327706,-0.51727 -2.241492,2.50012"
       id="path56" /><path
       style="opacity:1;fill:none;fill-opacity:1;stroke:#330700;stroke-width:1.4;stroke-linecap:round;stroke-linejoin:round;stroke-dasharray:none;stroke-dashoffset:0;stroke-opacity:1;paint-order:fill markers stroke"
       d="m 70.434628,101.29827 c 0,0 -0.862113,2.75876 -0.258636,3.87951"
       id="path58" /><path
       style="opacity:1;fill:#642719;fill-opacity:1;stroke:#330700;stroke-width:0.7;stroke-linecap:round;stroke-linejoin:round;stroke-dasharray:1.4, 0.7, 0.35, 0.7;stroke-dashoffset:0;stroke-opacity:1;paint-order:fill markers stroke"
       d="m 28.529557,84.003694 c 0,0 2.377462,1.767856 5.059728,2.316501 2.682266,0.548645 8.717365,1.889778 9.20505,2.011701 0.487685,0.12192 8.229679,0.609605 11.399631,0 m 0,0 c 0,0 5.791256,1.889779 8.412561,2.438424 2.621306,0.548646 8.595444,3.291872 11.33867,3.10899 0,0 4.998769,2.621306 9.326971,3.535715 0,0 8.534482,2.743225 15.910714,2.865145 7.376228,0.12192 12.618838,-0.609603 12.618838,-0.609603 0,0 -4.51108,4.876843 -5.73029,5.364533 -1.21921,0.48768 -18.349139,-2.74323 -18.958745,-2.86515 -0.609606,-0.12192 -8.412562,-1.64594 -9.26601,-2.0117 -0.853448,-0.365762 -5.730296,-4.023398 -6.21798,-4.145319 C 71.14101,95.89101 64.008621,94.549877 63.216133,94.306035 62.423645,94.062192 55.291256,90.404557 50.353448,90.831281 45.41564,91.258005 41.331281,91.136084 40.17303,90.77032 39.014778,90.404557 30.358374,88.514778 30.114532,88.453818 29.87069,88.392857 28.529557,84.003694 28.529557,84.003694"
       id="path47" /><path
       style="opacity:1;fill:#0d481f;fill-opacity:1;stroke:#330700;stroke-width:0.7;stroke-linecap:round;stroke-linejoin:round;stroke-dasharray:1.4, 0.7, 0.349999, 0.7;stroke-dashoffset:0;stroke-opacity:1;paint-order:fill markers stroke"
       d="m 66.813752,102.67765 1.293169,0.94832 -0.172421,0.86212 -1.551805,0.17242 0.948325,1.12075 0.172424,1.89665 c 0,0 0.431056,1.29317 -0.689692,1.29317 -1.120746,0 -2.931184,-0.51727 -2.931184,-0.51727 l -0.689689,-0.94833 -1.206958,0.43106 0.258633,-2.06907 0.689689,-0.7759 1.89665,-1.37938 z"
       id="path53" /><path
       style="opacity:1;fill:#0d481f;fill-opacity:1;stroke:#330700;stroke-width:0.7;stroke-linecap:round;stroke-linejoin:round;stroke-dasharray:1.4, 0.7, 0.349999, 0.7;stroke-dashoffset:0;stroke-opacity:1;paint-order:fill markers stroke"
       d="m 67.33102,102.76386 -3.620873,-1.98286 -1.89665,0.86212 1.551803,1.03453 -1.034534,0.7759 1.293169,1.37938 1.379382,-0.0862 0.948322,-1.29317 z"
       id="path52" /><path
       style="opacity:1;fill:#0d481f;fill-opacity:1;stroke:#330700;stroke-width:0.7;stroke-linecap:round;stroke-linejoin:round;stroke-dasharray:1.4, 0.7, 0.349999, 0.7;stroke-dashoffset:0;stroke-opacity:1;paint-order:fill markers stroke"
       d="m 77.417741,104.66051 c 0,0 -0.862113,0.7759 -1.206958,1.29317 -0.344844,0.51727 -0.08621,2.58634 0.258633,3.10361 0.344848,0.51726 0.862113,0.34484 0.862113,0.34484 l 1.551805,-0.17242 c 0,0 0.862113,0.0862 1.206958,-0.43106 0.344845,-0.51727 0.689689,-1.29317 0.689689,-1.29317 0,0 0.431057,-0.25863 0.517269,-0.94832 0.08621,-0.68969 0.172423,-1.72423 0.172423,-1.72423 0,0 -1.551805,-1.72422 -4.051932,-0.17242 z"
       id="path55" /><path
       style="opacity:1;fill:#0d481f;fill-opacity:1;stroke:#330700;stroke-width:0.7;stroke-linecap:round;stroke-linejoin:round;stroke-dasharray:1.4, 0.7, 0.349999, 0.7;stroke-dashoffset:0;stroke-opacity:1;paint-order:fill markers stroke"
       d="m 69.658727,104.31567 -0.431057,1.12074 0.603478,0.7759 1.465593,-0.25863 -1.379382,1.89665 -0.08621,2.75876 2.327706,-0.51727 1.120746,-0.34484 0.689689,-0.86212 1.465593,0.25864 1.120746,-0.0862 -0.775901,-2.06908 -1.120746,-1.12074 -1.465593,-0.43106 c 0,0 -1.810438,-1.20696 -3.534661,-1.12074 z"
       id="path54" /></g><g
     id="layer2"
     transform="translate(-23.534005,-4.1381431)"><path
       style="opacity:1;fill:none;fill-opacity:1;stroke:#cce9d6;stroke-width:0.3;stroke-linecap:round;stroke-linejoin:round;stroke-dasharray:0.6, 0.3;stroke-dashoffset:0;stroke-opacity:1;marker-start:url(#CapTriangle);paint-order:fill markers stroke"
       d="m 73.030788,66.111759 c 0,0 0.609605,1.615456 2.103139,0.670568"
       id="path17" /><path
       style="opacity:1;fill:none;fill-opacity:1;stroke:#cce9d6;stroke-width:0.3;stroke-linecap:round;stroke-linejoin:round;stroke-dasharray:0.600001, 0.3;stroke-dashoffset:0;stroke-opacity:1;paint-order:fill markers stroke"
       d="m 75.072967,65.776477 c 0,0 0.853448,0.182882 1.06681,0.03048"
       id="path18" /><path
       style="opacity:1;fill:none;fill-opacity:1;stroke:#cce9d6;stroke-width:0.3;stroke-linecap:round;stroke-linejoin:round;stroke-dasharray:0.600001, 0.3;stroke-dashoffset:0;stroke-opacity:1;paint-order:fill markers stroke"
       d="m 77.084668,64.191501 c 0,0 0.24384,0.701048 -1.188733,0.822968"
       id="path19" /><path
       style="opacity:1;fill:none;fill-opacity:1;stroke:#cce9d6;stroke-width:0.3;stroke-linecap:round;stroke-linejoin:round;stroke-dasharray:0.600001, 0.3;stroke-dashoffset:0;stroke-opacity:1;paint-order:fill markers stroke"
       d="m 73.884236,65.715517 c 0,0 0.1524,0.518165 0.944888,0.609605"
       id="path20" /><path
       style="opacity:1;fill:none;fill-opacity:1;stroke:#cce9d6;stroke-width:0.3;stroke-linecap:round;stroke-linejoin:round;stroke-dasharray:0.600001, 0.3;stroke-dashoffset:0;stroke-opacity:1;paint-order:fill markers stroke"
       d="m 75.987377,66.508005 c 0,0 1.249691,-0.487686 1.219211,-1.188733"
       id="path21" /><path
       style="opacity:1;fill:none;fill-opacity:1;stroke:#cce9d6;stroke-width:0.3;stroke-linecap:round;stroke-linejoin:round;stroke-dasharray:0.600001, 0.3;stroke-dashoffset:0;stroke-opacity:1;paint-order:fill markers stroke"
       d="m 75.652092,67.23953 c 0,0 1.127771,-0.396243 1.402093,-0.731525"
       id="path22" /><path
       style="opacity:1;fill:none;fill-opacity:1;stroke:#cce9d6;stroke-width:0.3;stroke-linecap:round;stroke-linejoin:round;stroke-dasharray:0.600001, 0.3;stroke-dashoffset:0;stroke-opacity:1;paint-order:fill markers stroke"
       d="m 79.888854,72.20782 c 0,0 -2.407944,-4.724447 -2.865149,-5.608375"
       id="path23" /><path
       style="opacity:1;fill:none;fill-opacity:1;stroke:#cce9d6;stroke-width:0.3;stroke-linecap:round;stroke-linejoin:round;stroke-dasharray:0.600001, 0.3;stroke-dashoffset:0;stroke-opacity:1;paint-order:fill markers stroke"
       d="m 76.4141,68.458743 c 0,0 1.615456,-0.457205 1.767858,-2.407944"
       id="path24" /><path
       style="opacity:1;fill:none;fill-opacity:1;stroke:#cce9d6;stroke-width:0.3;stroke-linecap:round;stroke-linejoin:round;stroke-dasharray:0.600001, 0.3;stroke-dashoffset:0;stroke-opacity:1;paint-order:fill markers stroke"
       d="m 77.023705,69.677954 c 0,0 1.249693,-0.792485 1.645936,-3.108989"
       id="path25" /><path
       style="opacity:1;fill:none;fill-opacity:1;stroke:#cce9d6;stroke-width:0.3;stroke-linecap:round;stroke-linejoin:round;stroke-dasharray:0.600001, 0.3;stroke-dashoffset:0;stroke-opacity:1;paint-order:fill markers stroke"
       d="m 77.328508,70.226599 c 0,0 -0.03048,1.127773 -1.432573,1.463056"
       id="path26" /><path
       style="opacity:1;fill:none;fill-opacity:1;stroke:#cce9d6;stroke-width:0.3;stroke-linecap:round;stroke-linejoin:round;stroke-dasharray:0.600001, 0.3;stroke-dashoffset:0;stroke-opacity:1;paint-order:fill markers stroke"
       d="m 73.823276,71.628695 c 0,0 0.640085,0.21336 1.188731,-0.396245"
       id="path27" /><path
       style="opacity:1;fill:none;fill-opacity:1;stroke:#cce9d6;stroke-width:0.3;stroke-linecap:round;stroke-linejoin:round;stroke-dasharray:0.600001, 0.3;stroke-dashoffset:0;stroke-opacity:1;paint-order:fill markers stroke"
       d="m 75.438732,70.866687 c 0,0 1.310651,-0.182883 1.432573,-0.914411"
       id="path28" /><path
       style="opacity:1;fill:none;fill-opacity:1;stroke:#cce9d6;stroke-width:0.3;stroke-linecap:round;stroke-linejoin:round;stroke-dasharray:0.600001, 0.3;stroke-dashoffset:0;stroke-opacity:1;paint-order:fill markers stroke"
       d="m 72.20782,70.836207 c 0,0 0.426723,0.487683 1.249691,-0.03048"
       id="path29" /><path
       style="opacity:1;fill:none;fill-opacity:1;stroke:#cce9d6;stroke-width:0.3;stroke-linecap:round;stroke-linejoin:round;stroke-dasharray:0.600001, 0.3;stroke-dashoffset:0;stroke-opacity:1;paint-order:fill markers stroke"
       d="m 73.884236,70.836207 c 0,0 0.944888,0.06096 1.249691,-0.457205"
       id="path30" /><path
       style="opacity:1;fill:none;fill-opacity:1;stroke:#cce9d6;stroke-width:0.3;stroke-linecap:round;stroke-linejoin:round;stroke-dasharray:0.600001, 0.3;stroke-dashoffset:0;stroke-opacity:1;paint-order:fill markers stroke"
       d="m 75.347289,70.257082 c 0,0 0.670568,0.03048 0.975371,-0.701048"
       id="path31" /><path
       style="opacity:1;fill:none;fill-opacity:1;stroke:#cce9d6;stroke-width:0.3;stroke-linecap:round;stroke-linejoin:round;stroke-dasharray:0.600001, 0.3;stroke-dashoffset:0;stroke-opacity:1;paint-order:fill markers stroke"
       d="m 73.183188,71.903018 c 0,0 0.822968,0.426722 1.249693,0.274322"
       id="path32" /><path
       style="opacity:1;fill:none;fill-opacity:1;stroke:#cce9d6;stroke-width:0.3;stroke-linecap:round;stroke-linejoin:round;stroke-dasharray:0.600001, 0.3;stroke-dashoffset:0;stroke-opacity:1;paint-order:fill markers stroke"
       d="m 75.012007,72.634543 c 0,0 0.579125,0.03048 0.944888,-0.304803"
       id="path33" /><path
       style="opacity:1;fill:none;fill-opacity:1;stroke:#cce9d6;stroke-width:0.3;stroke-linecap:round;stroke-linejoin:round;stroke-dasharray:0.600001, 0.3;stroke-dashoffset:0;stroke-opacity:1;paint-order:fill markers stroke"
       d="m 76.536023,72.116378 c 0,0 0.335282,0.213362 0.853447,-0.12192"
       id="path34" /><path
       style="opacity:1;fill:none;fill-opacity:1;stroke:#cce9d6;stroke-width:0.3;stroke-linecap:round;stroke-linejoin:round;stroke-dasharray:0.600001, 0.3;stroke-dashoffset:0;stroke-opacity:1;paint-order:fill markers stroke"
       d="m 76.871305,72.969826 c 0,0 0.914408,-0.304803 0.883928,-0.853448"
       id="path35" /><path
       style="opacity:1;fill:none;fill-opacity:1;stroke:#cce9d6;stroke-width:0.3;stroke-linecap:round;stroke-linejoin:round;stroke-dasharray:0.600001, 0.3;stroke-dashoffset:0;stroke-opacity:1;paint-order:fill markers stroke"
       d="m 77.785713,71.598212 c 0,0 0.548645,-0.518162 0.518165,-1.036328"
       id="path36" /><path
       style="opacity:1;fill:none;fill-opacity:1;stroke:#cce9d6;stroke-width:0.3;stroke-linecap:round;stroke-linejoin:round;stroke-dasharray:0.600001, 0.3;stroke-dashoffset:0;stroke-opacity:1;paint-order:fill markers stroke"
       d="m 78.060036,73.457511 c 0,0 0.97537,-0.579125 1.03633,-0.914408"
       id="path37" /><path
       style="opacity:1;fill:none;fill-opacity:1;stroke:#cce9d6;stroke-width:0.3;stroke-linecap:round;stroke-linejoin:round;stroke-dasharray:0.600001, 0.3;stroke-dashoffset:0;stroke-opacity:1;paint-order:fill markers stroke"
       d="m 78.425798,72.20782 c 0,0 1.584976,-1.402093 1.341134,-3.078511"
       id="path38" /><path
       style="opacity:1;fill:none;fill-opacity:1;stroke:#cce9d6;stroke-width:0.3;stroke-linecap:round;stroke-linejoin:round;stroke-dasharray:0.600001, 0.3;stroke-dashoffset:0;stroke-opacity:1;paint-order:fill markers stroke"
       d="m 79.431649,67.940578 c 0,0 -0.09144,1.097291 -0.518165,2.072661"
       id="path39" /><path
       style="opacity:1;fill:none;fill-opacity:1;stroke:#cce9d6;stroke-width:0.3;stroke-linecap:round;stroke-linejoin:round;stroke-dasharray:0.600001, 0.3;stroke-dashoffset:0;stroke-opacity:1;paint-order:fill markers stroke"
       d="m 79.035406,67.23953 c 0,0 -0.243842,1.524016 -0.762008,2.133621"
       id="path40" /><path
       style="opacity:1;fill:none;fill-opacity:1;stroke:#cce9d6;stroke-width:0.3;stroke-linecap:round;stroke-linejoin:round;stroke-dasharray:0.600001, 0.3;stroke-dashoffset:0;stroke-opacity:1;paint-order:fill markers stroke"
       d="m 80.52894,69.403631 c 0,0 0.304802,0.944891 -0.09144,2.011701"
       id="path41" /><path
       style="opacity:1;fill:none;fill-opacity:1;stroke:#cce9d6;stroke-width:0.3;stroke-linecap:round;stroke-linejoin:round;stroke-dasharray:0.600001, 0.3;stroke-dashoffset:0;stroke-opacity:1;paint-order:fill markers stroke"
       d="m 79.827894,72.939346 c 0,0 -0.243842,1.00585 -0.94489,1.310653"
       id="path42" /><path
       style="opacity:1;fill:none;fill-opacity:1;stroke:#cce9d6;stroke-width:0.3;stroke-linecap:round;stroke-linejoin:round;stroke-dasharray:0.600001, 0.3;stroke-dashoffset:0;stroke-opacity:1;paint-order:fill markers stroke"
       d="m 72.847906,68.611146 c 0,0 0.792487,0.670565 1.432573,0.304803"
       id="path43" /><path
       style="opacity:1;fill:none;fill-opacity:1;stroke:#cce9d6;stroke-width:0.3;stroke-linecap:round;stroke-linejoin:round;stroke-dasharray:0.600001, 0.3;stroke-dashoffset:0;stroke-opacity:1;paint-order:fill markers stroke"
       d="m 74.585281,68.519703 c 0,0 -0.09144,0.335283 0.914411,-0.335282"
       id="path44" /><path
       style="opacity:1;fill:none;fill-opacity:1;stroke:#cce9d6;stroke-width:0.3;stroke-linecap:round;stroke-linejoin:round;stroke-dasharray:0.600001, 0.3;stroke-dashoffset:0;stroke-opacity:1;paint-order:fill markers stroke"
       d="m 72.969826,69.556034 c 0,0 2.346983,0.670565 2.834669,-0.396243"
       id="path45" /></g></svg>
