<?xml version="1.0" encoding="UTF-8" standalone="no"?>
<!-- Created with Inkscape (http://www.inkscape.org/) -->

<svg
   width="69.311798mm"
   height="34.167347mm"
   viewBox="0 0 69.311798 34.167347"
   version="1.1"
   id="svg1"
   xml:space="preserve"
   xmlns="http://www.w3.org/2000/svg"
   xmlns:svg="http://www.w3.org/2000/svg"><defs
     id="defs1" /><g
     id="layer1"
     transform="translate(-16.22191,-30.575043)"><path
       style="fill:#000000;stroke-width:0;stroke-linecap:round;stroke-linejoin:round;paint-order:fill markers stroke;stroke-dasharray:none"
       d="M 85.533708,43.946629 84.353931,42.029493 C 83.026686,41.882022 81.109549,41.439607 75.653089,40.849719 70.196627,40.25983 61.938201,36.42556 60.610956,36.278089 c -1.327248,-0.147471 -2.212081,0.294945 -3.981744,-0.147471 -1.769663,-0.442417 -2.507022,-2.654495 -3.981741,-2.21208 -1.474719,0.442418 -4.7191,0.442418 -4.7191,0.442418 0,0 -2.801967,1.622189 -3.834271,2.212078 -1.032303,0.589888 -2.507022,-0.589889 -3.09691,-0.589889 -0.589886,0 -7.373594,1.917136 -14.009831,4.129214 -6.636236,2.212079 -10.765449,1.474719 -10.765449,1.474719 v 1.769663 l 0.884832,0.516152 z"
       id="path1" /><g
       id="text1"
       style="font-size:11.2889px;line-height:1.2;font-family:Audiowide;-inkscape-font-specification:Audiowide;letter-spacing:2.1246px;word-spacing:0px;stroke-width:2.47332;stroke-linecap:round;stroke-linejoin:round;paint-order:fill markers stroke"
       aria-label="PUPUKE&#10;Golf Club"><g
         id="text2"
         style="font-weight:500;font-size:14.8167px;line-height:0;font-family:'Avenir Next';-inkscape-font-specification:'Avenir Next Medium';text-align:center;text-anchor:middle"
         aria-label="PUPUKE&#10;Golf Club"><g
           id="text3"
           style="font-size:6.35px;line-height:1;stroke-width:0"
           aria-label="PUPUKE&#10;Golf Club"><path
             style="font-size:11.2889px"
             d="m 23.965542,46.232629 h 2.438402 q 0.643467,0 1.174046,0.135466 0.530578,0.124178 0.903112,0.395112 0.372533,0.270934 0.575734,0.688623 0.2032,0.417689 0.2032,1.004712 0,0.598312 -0.225778,1.02729 -0.214489,0.428978 -0.609601,0.699912 -0.383822,0.270933 -0.92569,0.4064 -0.530578,0.124178 -1.151467,0.124178 h -1.264357 v 3.510848 h -1.117601 z m 1.117601,3.533425 h 1.185334 q 0.406401,0 0.745068,-0.06773 0.349956,-0.07902 0.598311,-0.225778 0.248356,-0.158045 0.383823,-0.4064 0.135467,-0.248356 0.135467,-0.609601 0,-0.361245 -0.146756,-0.598312 -0.135467,-0.248355 -0.383822,-0.395111 -0.237067,-0.158045 -0.575734,-0.214489 -0.338667,-0.06773 -0.733779,-0.06773 h -1.207912 z m 10.77189,4.662316 q -0.790223,0 -1.377246,-0.259644 -0.587023,-0.270934 -0.970846,-0.711201 -0.383822,-0.440267 -0.575734,-1.004712 -0.180622,-0.575734 -0.180622,-1.185335 v -5.034849 h 1.117601 v 4.967116 q 0,0.4064 0.1016,0.812801 0.1016,0.395111 0.327378,0.7112 0.237067,0.31609 0.609601,0.508001 0.383823,0.191911 0.948268,0.191911 0.553156,0 0.936978,-0.191911 0.383823,-0.191911 0.609601,-0.508001 0.237067,-0.316089 0.338667,-0.7112 0.1016,-0.406401 0.1016,-0.812801 v -4.967116 h 1.117601 v 5.034849 q 0,0.609601 -0.191911,1.185335 -0.180623,0.564445 -0.564445,1.004712 -0.383823,0.440267 -0.970846,0.711201 -0.587022,0.259644 -1.377245,0.259644 z m 7.114293,-8.195741 h 2.438402 q 0.643468,0 1.174046,0.135466 0.530578,0.124178 0.903112,0.395112 0.372534,0.270934 0.575734,0.688623 0.2032,0.417689 0.2032,1.004712 0,0.598312 -0.225778,1.02729 -0.214489,0.428978 -0.609601,0.699912 -0.383822,0.270933 -0.925689,0.4064 -0.530579,0.124178 -1.151468,0.124178 h -1.264357 v 3.510848 h -1.117601 z m 1.117601,3.533425 h 1.185334 q 0.406401,0 0.745068,-0.06773 0.349956,-0.07902 0.598312,-0.225778 0.248355,-0.158045 0.383822,-0.4064 0.135467,-0.248356 0.135467,-0.609601 0,-0.361245 -0.146756,-0.598312 -0.135466,-0.248355 -0.383822,-0.395111 -0.237067,-0.158045 -0.575734,-0.214489 -0.338667,-0.06773 -0.733779,-0.06773 h -1.207912 z m 10.77189,4.662316 q -0.790223,0 -1.377246,-0.259644 -0.587023,-0.270934 -0.970845,-0.711201 -0.383823,-0.440267 -0.575734,-1.004712 -0.180623,-0.575734 -0.180623,-1.185335 v -5.034849 h 1.117601 v 4.967116 q 0,0.4064 0.1016,0.812801 0.101601,0.395111 0.327379,0.7112 0.237066,0.31609 0.6096,0.508001 0.383823,0.191911 0.948268,0.191911 0.553156,0 0.936979,-0.191911 0.383822,-0.191911 0.6096,-0.508001 0.237067,-0.316089 0.338667,-0.7112 0.1016,-0.406401 0.1016,-0.812801 v -4.967116 h 1.117601 v 5.034849 q 0,0.609601 -0.191911,1.185335 -0.180622,0.564445 -0.564445,1.004712 -0.383823,0.440267 -0.970845,0.711201 -0.587023,0.259644 -1.377246,0.259644 z m 8.231894,-4.673604 h 0.02258 l 3.567292,-3.522137 h 1.54658 l -3.883382,3.657603 4.120449,4.334938 h -1.603024 l -3.747915,-4.131737 h -0.02258 V 54.22517 H 61.97311 v -7.992541 h 1.117601 z m 9.563988,3.476981 h 4.176893 v 0.993423 h -5.294494 v -7.992541 h 5.12516 v 0.982134 h -4.007559 v 2.393247 h 3.770493 v 0.959556 h -3.770493 z"
             id="path3" /><path
             d="m 32.646535,58.329777 q -0.2032,-0.22225 -0.5207,-0.3556 -0.31115,-0.13335 -0.6985,-0.13335 -0.3937,0 -0.7112,0.14605 -0.3175,0.1397 -0.53975,0.38735 -0.22225,0.24765 -0.3429,0.57785 -0.12065,0.32385 -0.12065,0.69215 0,0.37465 0.12065,0.70485 0.12065,0.3302 0.3429,0.57785 0.22225,0.2413 0.5461,0.381 0.32385,0.1397 0.7239,0.1397 0.3175,0 0.5842,-0.05715 0.2667,-0.05715 0.46355,-0.1651 v -1.25095 h -0.99695 v -0.5334 h 1.61925 v 2.17805 q -0.3556,0.1905 -0.7747,0.2921 -0.4191,0.1016 -0.9144,0.1016 -0.52705,0 -0.97155,-0.17145 -0.43815,-0.1778 -0.75565,-0.48895 -0.3175,-0.3175 -0.4953,-0.7493 -0.1778,-0.43815 -0.1778,-0.95885 0,-0.52705 0.1778,-0.95885 0.18415,-0.43815 0.50165,-0.74295 0.32385,-0.31115 0.762,-0.4826 0.43815,-0.17145 0.9525,-0.17145 0.53975,0 0.95885,0.15875 0.42545,0.15875 0.70485,0.42545 z m 6.690249,2.0574 q 0,0.34925 -0.127,0.64135 -0.12065,0.2921 -0.3429,0.508 -0.2159,0.20955 -0.51435,0.3302 -0.29845,0.1143 -0.64135,0.1143 -0.3429,0 -0.64135,-0.1143 -0.29845,-0.12065 -0.51435,-0.3302 -0.2159,-0.2159 -0.3429,-0.508 -0.12065,-0.2921 -0.12065,-0.64135 0,-0.34925 0.12065,-0.635 0.127,-0.2921 0.3429,-0.50165 0.2159,-0.20955 0.51435,-0.32385 0.29845,-0.12065 0.64135,-0.12065 0.3429,0 0.64135,0.12065 0.29845,0.1143 0.51435,0.32385 0.22225,0.20955 0.3429,0.50165 0.127,0.28575 0.127,0.635 z m -0.6223,0 q 0,-0.2159 -0.06985,-0.41275 -0.0635,-0.19685 -0.1905,-0.3429 -0.127,-0.1524 -0.3175,-0.2413 -0.18415,-0.0889 -0.42545,-0.0889 -0.2413,0 -0.4318,0.0889 -0.18415,0.0889 -0.31115,0.2413 -0.127,0.14605 -0.19685,0.3429 -0.0635,0.19685 -0.0635,0.41275 0,0.2159 0.0635,0.41275 0.06985,0.19685 0.19685,0.34925 0.127,0.1524 0.31115,0.2413 0.1905,0.0889 0.4318,0.0889 0.2413,0 0.42545,-0.0889 0.1905,-0.0889 0.3175,-0.2413 0.127,-0.1524 0.1905,-0.34925 0.06985,-0.19685 0.06985,-0.41275 z m 4.182004,1.5113 h -0.5969 v -4.8006 h 0.5969 z m 4.582051,-2.52095 h -0.6985 v 2.52095 h -0.5969 v -2.52095 h -0.5969 v -0.48895 h 0.5969 v -0.62865 q 0,-0.2667 0.05715,-0.48895 0.0635,-0.2286 0.19685,-0.3937 0.1397,-0.1651 0.34925,-0.26035 0.2159,-0.09525 0.5207,-0.09525 0.2159,0 0.37465,0.04445 l -0.06985,0.51435 q -0.06985,-0.01905 -0.1397,-0.03175 -0.06985,-0.0127 -0.15875,-0.0127 -0.17145,0 -0.2794,0.0635 -0.1016,0.05715 -0.15875,0.15875 -0.05715,0.1016 -0.0762,0.23495 -0.01905,0.127 -0.01905,0.2667 v 0.62865 h 0.6985 z m 10.427748,1.82245 q -0.2667,0.36195 -0.69215,0.59055 -0.42545,0.22225 -1.02235,0.22225 -0.51435,0 -0.9525,-0.17145 -0.4318,-0.1778 -0.7493,-0.48895 -0.31115,-0.3175 -0.48895,-0.7493 -0.1778,-0.43815 -0.1778,-0.95885 0,-0.52705 0.1778,-0.95885 0.18415,-0.43815 0.50165,-0.74295 0.32385,-0.31115 0.762,-0.4826 0.43815,-0.17145 0.9525,-0.17145 0.2286,0 0.46355,0.04445 0.23495,0.04445 0.45085,0.13335 0.2159,0.0889 0.3937,0.22225 0.1778,0.127 0.3048,0.29845 l -0.4953,0.381 q -0.1651,-0.2286 -0.4699,-0.37465 -0.29845,-0.1524 -0.6477,-0.1524 -0.3937,0 -0.7112,0.14605 -0.31115,0.1397 -0.5334,0.38735 -0.22225,0.24765 -0.3429,0.57785 -0.12065,0.32385 -0.12065,0.69215 0,0.381 0.1143,0.7112 0.12065,0.3302 0.33655,0.57785 0.22225,0.2413 0.5334,0.381 0.3175,0.1397 0.70485,0.1397 0.381,0 0.69215,-0.1524 0.31115,-0.1524 0.51435,-0.4445 z m 3.343801,0.6985 h -0.5969 v -4.8006 h 0.5969 z m 5.286901,0 q -0.0127,-0.1143 -0.01905,-0.254 -0.0063,-0.14605 -0.0063,-0.2413 h -0.0127 q -0.1143,0.2413 -0.38735,0.41275 -0.2667,0.1651 -0.5969,0.1651 -0.2921,0 -0.508,-0.09525 -0.20955,-0.09525 -0.34925,-0.26035 -0.13335,-0.17145 -0.2032,-0.3937 -0.0635,-0.22225 -0.0635,-0.47625 v -1.8669 h 0.5969 v 1.6637 q 0,0.18415 0.0254,0.3556 0.03175,0.1651 0.10795,0.2921 0.0762,0.127 0.20955,0.2032 0.13335,0.0762 0.3429,0.0762 0.36195,0 0.5842,-0.2667 0.22225,-0.27305 0.22225,-0.7239 v -1.6002 h 0.5969 v 2.3622 q 0,0.12065 0.0063,0.31115 0.0063,0.1905 0.01905,0.33655 z m 4.289954,-0.47625 v 0.47625 h -0.57785 v -4.8006 h 0.5969 v 2.24155 h 0.01905 q 0.1524,-0.22225 0.42545,-0.37465 0.27305,-0.15875 0.6477,-0.15875 0.33655,0 0.6096,0.12065 0.2794,0.12065 0.47625,0.33655 0.2032,0.2159 0.31115,0.508 0.10795,0.28575 0.10795,0.61595 0,0.3302 -0.10795,0.6223 -0.10795,0.2921 -0.3048,0.508 -0.19685,0.2159 -0.47625,0.3429 -0.2794,0.12065 -0.62865,0.12065 -0.32385,0 -0.61595,-0.1397 -0.2921,-0.14605 -0.4699,-0.4191 z m 2.00025,-1.03505 q 0,-0.20955 -0.0635,-0.4064 -0.0635,-0.19685 -0.1905,-0.34925 -0.127,-0.1524 -0.3175,-0.2413 -0.18415,-0.0889 -0.4318,-0.0889 -0.2286,0 -0.4191,0.0889 -0.18415,0.0889 -0.3175,0.2413 -0.13335,0.1524 -0.20955,0.34925 -0.06985,0.19685 -0.06985,0.41275 0,0.2159 0.06985,0.41275 0.0762,0.19685 0.20955,0.34925 0.13335,0.14605 0.3175,0.23495 0.1905,0.0889 0.4191,0.0889 0.24765,0 0.4318,-0.0889 0.1905,-0.09525 0.3175,-0.24765 0.127,-0.1524 0.1905,-0.34925 0.0635,-0.19685 0.0635,-0.4064 z"
             id="path4" /></g></g></g></g></svg>
