<?xml version="1.0" encoding="UTF-8" standalone="no"?>
<!-- Created with Inkscape (http://www.inkscape.org/) -->

<svg
   width="59.602535mm"
   height="59.554649mm"
   viewBox="0 0 59.602535 59.554649"
   version="1.1"
   id="svg1"
   xml:space="preserve"
   xmlns="http://www.w3.org/2000/svg"
   xmlns:svg="http://www.w3.org/2000/svg"><defs
     id="defs1" /><g
     id="layer1"
     transform="translate(-13.17777,-11.197718)"><path
       style="fill:#000000;stroke-width:0;stroke-linecap:round;stroke-linejoin:round;paint-order:fill markers stroke;stroke-dasharray:none;stroke:none"
       d="m 30.965867,11.650025 0.1513,4.538971 c 0,0 -2.107583,-3.717963 -5.295466,-4.387672 -0.151679,-0.03186 -0.100866,-0.453897 -0.100866,-0.453897 0,0 3.479878,0.756495 5.245032,0.302598 z"
       id="path1" /><path
       style="fill:#000000;stroke-width:0;stroke-linecap:round;stroke-linejoin:round;paint-order:fill markers stroke;stroke-dasharray:none;stroke:none"
       d="m 24.485226,11.700458 c 0,0 -4.11029,1.840805 -4.085073,9.430973 0.02522,7.590169 2.01732,8.472745 4.135506,9.657922 0,0 0.554764,0.151299 0.02522,0.50433 0,0 -3.0512,1.739939 -3.404231,2.950331 -0.353031,1.210393 -1.033877,4.312023 -1.033877,5.345899 l -1.487774,1.286042 1.487774,1.437341 c 0,0 -0.176515,5.724147 3.807693,8.170148 0,0 -1.790372,0.176515 -4.135507,-1.739939 -2.345135,-1.916455 -3.732043,-5.69893 -3.858126,-6.884106 -0.126082,-1.185176 0.933011,-6.329343 3.076414,-8.245797 2.143403,-1.916455 4.009424,-2.546867 4.009424,-2.546867 0,0 -4.639837,-2.143403 -5.951095,-5.497199 -1.311258,-3.353795 -0.832145,-6.78324 -0.02522,-8.371879 0.806928,-1.58864 2.975546,-5.169385 7.438868,-5.497199 z"
       id="path2" /><path
       style="fill:#000000;stroke-width:0;stroke-linecap:round;stroke-linejoin:round;paint-order:fill markers stroke;stroke-dasharray:none;stroke:none"
       d="m 26.653847,23.274834 -0.126085,-0.554763 6.152827,0.100866 v 0.327815 c 0,0 -1.084307,0.983443 -1.084307,2.345135 0,1.361691 0.07565,3.101628 0.07565,3.101628 0,0 -1.386909,1.487776 -2.143406,1.966889 -0.756494,0.479113 -1.689505,0.554763 -1.916454,0.57998 -0.226949,0.02521 1.033878,0.453898 1.992104,0.378248 0.958228,-0.07565 1.361691,-0.252166 1.361691,-0.252166 l 0.126085,4.009424 h -0.554765 c 0,0 -1.084308,-2.24427 -2.672948,-2.925114 -1.588641,-0.680844 -2.446002,-1.260824 -2.446002,-1.260824 l 0.126083,-0.403466 c 0,0 2.37856,-0.261961 2.723382,-3.177278 0.277381,-2.345136 0.05043,-2.546868 0.05043,-2.546868 0,0 0.756497,-1.059093 1.260827,-1.159959 0.50433,-0.100866 0.378246,-0.378248 0.02521,-0.479114 -0.353031,-0.100866 -2.950329,-0.05043 -2.950329,-0.05043 z"
       id="path3" /><path
       style="fill:#000000;stroke-width:0;stroke-linecap:round;stroke-linejoin:round;paint-order:fill markers stroke;stroke-dasharray:none;stroke:none"
       d="m 25.771268,50.332145 c 0,0 4.135507,-1.412124 5.295466,-4.286806 l 0.302599,-0.01261 0.02522,4.576795 -0.21434,-0.01261 c 0,0 -0.680846,-0.605196 -1.185176,-0.643021 -0.50433,-0.03782 -1.639073,0.277382 -2.168619,0.567372 l -1.891242,4e-6 z"
       id="path4" /><path
       style="fill:#000000;stroke-width:0;stroke-linecap:round;stroke-linejoin:round;paint-order:fill markers stroke;stroke-dasharray:none;stroke:none"
       d="m 42.288078,50.231277 0.02522,0.554763 h -6.581507 c 0,0 0.983443,-0.605195 1.487773,-1.941669 0.50433,-1.336476 0.176517,-16.491595 0.176517,-16.491595 l -0.65563,-0.50433 5.54763,-0.07565 c 0,0 -1.260824,0.327816 -1.412124,1.23561 -0.151299,0.907793 0.05043,13.944726 0.05043,13.944726 0,0 -1.033875,2.31992 -2.067753,3.126846 0,0 0.882575,0.226947 3.429444,0.151299 z"
       id="path5" /><path
       style="fill:#000000;stroke-width:0;stroke-linecap:round;stroke-linejoin:round;paint-order:fill markers stroke;stroke-dasharray:none;stroke:none"
       d="m 47.432245,50.760825 0.353031,-0.756497 h 7.060623 l -14.121243,-31.999743 -3.429445,6.884106 -0.706062,-0.100867 -0.02521,-0.50433 5.976313,-12.658685 h 0.554762 l 17.046358,36.916964 c 0,0 1.033875,1.639072 2.698165,1.790372 1.66429,0.151299 1.538208,-0.1513 1.538208,-0.1513 l 0.378246,0.630412 z"
       id="path6" /><path
       style="fill:#000000;stroke-width:0;stroke-linecap:round;stroke-linejoin:round;paint-order:fill markers stroke;stroke-dasharray:none;stroke:none"
       d="m 65.403234,32.309339 c 0,0 -1.604769,0.285293 -2.246677,-1.426461 l -0.07132,-4.814304 c 0,0 -0.285292,-1.818738 -2.068369,-3.352183 -1.783076,-1.533446 -2.781599,-1.105508 -2.781599,-1.105508 0,0 3.673137,-1.783076 3.887107,-3.387844 0,0 0.213968,-3.28086 -0.748893,-4.279383 -0.962862,-0.998523 -3.530491,-2.246676 -3.530491,-2.246676 l -8.487443,-0.106985 -0.392277,-0.392277 0.142646,0.962862 6.169444,0.03566 c 0,0 2.603291,0.784554 3.066891,4.065414 0.4636,3.28086 -2.032707,4.600336 -2.032707,4.600336 l -4.92129,0.03566 0.03566,0.820215 4.635999,0.07132 c 0,0 2.638952,1.818738 2.924244,4.742983 0.285293,2.924245 -0.641907,3.459168 1.176831,4.92129 1.818737,1.462123 5.242243,0.855875 5.242243,0.855875 z"
       id="path7" /></g><g
     id="layer2"
     transform="translate(-13.17777,-11.197718)"><g
       id="text7"
       style="font-size:9.87778px;line-height:0.7;font-family:Audiowide;-inkscape-font-specification:Audiowide;word-spacing:0px;stroke-width:0.661458;stroke-linecap:round;stroke-linejoin:round;paint-order:fill markers stroke"
       aria-label="THE GARCIA&#10;Ubud - Bali"><path
         style="font-family:'STIX Two Math';-inkscape-font-specification:'STIX Two Math';text-align:center;text-anchor:middle;stroke-width:0;stroke-dasharray:none;stroke:none"
         d="m 18.827858,58.908462 -0.07902,-1.778 h -5.462412 l -0.108656,1.778 h 0.306211 c 0.207434,-1.076678 0.345723,-1.3335 1.432278,-1.3335 h 0.632178 v 4.751212 c 0,0.898878 -0.138289,0.997656 -0.968022,0.997656 v 0.296333 h 2.864556 V 63.32383 c -0.849489,0 -0.9779,-0.09878 -0.9779,-0.997656 v -4.751212 h 0.6223 c 1.096433,0 1.214967,0.256822 1.432278,1.3335 z m 2.51884,-0.474134 c 0,-0.770466 0.02963,-1.007533 0.968023,-1.007533 v -0.296333 h -2.834923 v 0.296333 c 0.908756,0 0.958144,0.237067 0.958144,1.007533 v 3.891846 c 0,0.879122 -0.06914,0.997656 -0.958144,0.997656 v 0.296333 h 2.834923 V 63.32383 c -0.889001,0 -0.968023,-0.128412 -0.968023,-0.997656 v -1.847145 h 3.239912 v 1.847145 c 0,0.859367 -0.07902,0.997656 -0.958145,0.997656 v 0.296333 H 26.45351 V 63.32383 c -0.898878,0 -0.968022,-0.138289 -0.968022,-0.997656 v -3.891846 c 0,-0.780344 0.02963,-1.007533 0.968022,-1.007533 v -0.296333 h -2.825045 v 0.296333 c 0.908756,0 0.958145,0.237067 0.958145,1.007533 v 1.659468 h -3.239912 z m 11.221162,3.348568 h -0.316089 c -0.385233,1.175456 -0.563033,1.412522 -2.094089,1.402645 h -1.274233 v -2.71639 h 1.1557 c 0.908756,0 1.106311,0.108656 1.106311,0.918634 h 0.316089 V 59.09614 H 31.14546 c 0,0.8001 -0.197555,0.987778 -1.106311,0.987778 h -1.1557 v -2.508956 h 1.452033 c 1.214967,0 1.461912,0.187677 1.610078,1.175455 h 0.316089 l -0.05927,-1.619955 h -5.185835 v 0.296333 c 0.8001,0 0.958145,0.158044 0.958145,0.908756 v 4.119034 c 0,0.770467 -0.158045,0.869245 -0.958145,0.869245 v 0.296333 h 5.274735 z m 9.364137,-1.224845 h -2.439812 v 0.316089 c 0.750711,0 0.869245,0.138289 0.869245,0.849489 v 1.0668 c -0.395112,0.296334 -0.790223,0.493889 -1.402645,0.493889 -1.412523,0 -2.27189,-0.987778 -2.27189,-3.002845 0,-1.748367 0.809978,-2.8448 2.202745,-2.8448 1.047045,0 1.73849,0.523522 1.965679,1.837267 h 0.335844 v -2.262012 h -0.286455 c -0.128412,0.217311 -0.187678,0.3556 -0.355601,0.3556 -0.246944,0 -0.582789,-0.3556 -1.669344,-0.3556 -1.857023,0 -3.220157,1.195212 -3.220157,3.388079 0,2.113845 1.066801,3.328812 3.16089,3.328812 1.086556,0 1.728611,-0.256823 2.439812,-0.671689 v -1.432279 c 0,-0.612422 0.118533,-0.750711 0.671689,-0.750711 z m 7.299669,3.062112 V 63.32383 c -0.5334,0 -0.730955,-0.227189 -1.017411,-0.879123 l -2.341034,-5.363634 h -0.404989 l -2.094089,4.958645 c -0.474134,1.126067 -0.612423,1.284112 -1.165578,1.284112 v 0.296333 h 2.074334 V 63.32383 c -0.464256,0 -0.661812,-0.05927 -0.661812,-0.335845 0,-0.1778 0.04939,-0.325967 0.108656,-0.484011 l 0.4445,-1.047045 h 2.528712 l 0.385233,0.889 c 0.128411,0.296334 0.167922,0.474134 0.167922,0.612423 0,0.345722 -0.385233,0.365478 -0.681566,0.365478 v 0.296333 z M 46.554788,61.061818 H 44.32241 l 1.116189,-2.765778 h 0.02963 z m 8.11954,-2.311401 c 0,-1.254478 -1.0668,-1.619955 -2.548467,-1.619955 h -2.429934 v 0.296333 c 0.790222,0 0.879122,0.187678 0.879122,0.730956 v 4.237567 c 0,0.829734 -0.138289,0.928512 -0.879122,0.928512 v 0.296333 h 2.775656 V 63.32383 c -0.849489,0 -0.9779,-0.108656 -0.9779,-0.928512 v -1.748367 h 0.276578 c 0.3556,0 0.464255,0.02963 0.661811,0.325967 0.404989,0.592667 0.691444,1.017411 1.768122,2.647245 h 1.629834 V 63.32383 c -0.454378,0 -0.701322,-0.06914 -1.017411,-0.503767 -1.086556,-1.550812 -1.471789,-2.103967 -1.807634,-2.301523 v -0.03951 c 0.8001,-0.187678 1.669345,-0.6223 1.669345,-1.728613 z m -3.180645,-1.205089 c 0.207433,-0.01975 0.434622,-0.02963 0.651933,-0.02963 1.066801,0 1.531056,0.484011 1.531056,1.274234 0,1.047044 -0.721078,1.432278 -1.807634,1.481667 l -0.375355,-0.0099 z m 10.095091,4.603046 c -0.553156,0.602544 -1.214967,0.958144 -2.123723,0.958144 -1.392767,0 -2.360789,-0.849489 -2.360789,-2.825045 0,-1.758244 0.8001,-2.8448 2.2225,-2.8448 1.017411,0 1.718734,0.543278 1.936045,1.837267 h 0.335844 v -2.262012 h -0.296333 c -0.118533,0.197556 -0.1778,0.3556 -0.335845,0.3556 -0.246944,0 -0.612422,-0.3556 -1.649589,-0.3556 -1.896534,0 -3.239912,1.214967 -3.239912,3.368323 0,1.926167 1.066801,3.348568 3.101623,3.348568 1.293989,0 2.113845,-0.572912 2.647245,-1.373012 z m 1.926165,0.1778 c 0,0.849489 -0.0889,0.997656 -0.9779,0.997656 v 0.296333 h 2.8448 V 63.32383 c -0.879122,0 -0.968022,-0.148167 -0.968022,-0.997656 v -3.891846 c 0,-0.770466 0.02963,-1.007533 0.968022,-1.007533 v -0.296333 h -2.8448 v 0.296333 c 0.938389,0 0.9779,0.237067 0.9779,1.007533 z m 9.265365,1.293989 V 63.32383 c -0.5334,0 -0.730956,-0.227189 -1.017412,-0.879123 L 69.421859,57.081073 H 69.01687 l -2.09409,4.958645 c -0.474133,1.126067 -0.612422,1.284112 -1.165578,1.284112 v 0.296333 h 2.074334 V 63.32383 c -0.464256,0 -0.661811,-0.05927 -0.661811,-0.335845 0,-0.1778 0.04939,-0.325967 0.108655,-0.484011 l 0.4445,-1.047045 h 2.528712 l 0.385234,0.889 c 0.128411,0.296334 0.167922,0.474134 0.167922,0.612423 0,0.345722 -0.385234,0.365478 -0.681567,0.365478 v 0.296333 z m -2.676879,-2.558345 h -2.232378 l 1.116189,-2.765778 h 0.02963 z"
         id="path8" /><path
         style="font-size:6.35px;font-family:'STIX Two Math';-inkscape-font-specification:'STIX Two Math';text-align:center;text-anchor:middle;stroke-width:0;stroke-dasharray:none;stroke:none"
         d="m 32.237655,66.504216 h -1.55575 v 0.1905 c 0.5334,0 0.5969,0.14605 0.5969,0.8128 v 1.6002 c 0,0.8763 -0.3429,1.2446 -1.17475,1.2446 -0.90805,0 -1.1938,-0.4445 -1.1938,-1.27 v -1.79705 c 0,-0.47625 0.08255,-0.59055 0.6223,-0.59055 v -0.1905 h -1.8288 v 0.1905 c 0.50165,0 0.6223,0.1143 0.6223,0.5588 v 1.83515 c 0,1.1811 0.4953,1.6637 1.61925,1.6637 1.20015,0 1.69545,-0.57785 1.69545,-1.73355 v -1.53035 c 0,-0.65405 0.0508,-0.79375 0.5969,-0.79375 z m 1.149355,-0.31115 h -0.1651 l -0.81915,0.22225 v 0.1778 c 0,0 0.0762,-0.0127 0.1778,-0.0127 0.2413,0 0.2794,0.0508 0.2794,0.33655 v 3.5687 c 0.1524,0.08255 0.5207,0.254 1.06045,0.254 0.88265,0 1.524,-0.5969 1.524,-1.73355 0,-0.8255 -0.4318,-1.4097 -1.06045,-1.4097 -0.42545,0 -0.75565,0.27305 -0.9779,0.53975 h -0.01905 z m 0,2.2225 c 0.1143,-0.1524 0.3937,-0.38735 0.71755,-0.38735 0.60325,0 0.762,0.5715 0.762,1.1811 0,0.70485 -0.2286,1.27 -0.83185,1.27 -0.33655,0 -0.52705,-0.1524 -0.6477,-0.29845 z m 5.708646,1.97485 h -0.0635 c -0.3048,0 -0.381,-0.04445 -0.381,-0.4191 v -2.33045 h -0.1524 l -0.889,0.09525 v 0.1778 c 0.4064,0 0.51435,0.03175 0.51435,0.3683 v 1.67005 c -0.254,0.22225 -0.4572,0.381 -0.78105,0.381 -0.3302,0 -0.5715,-0.1905 -0.5715,-0.8382 v -1.8542 h -0.1397 l -0.81915,0.09525 v 0.1778 c 0.3429,0.0063 0.4318,0.03175 0.4318,0.37465 v 1.28905 c 0,0.8636 0.3048,1.16205 0.83185,1.16205 0.4064,0 0.70485,-0.1905 1.0414,-0.5207 h 0.03175 v 0.48895 h 0.1397 l 0.80645,-0.14605 z m 3.454398,0.17145 v -0.17145 h -0.13335 c -0.23495,0 -0.3175,-0.0635 -0.3175,-0.3937 v -3.80365 h -0.17145 l -0.8001,0.22225 v 0.1778 c 0,0 0.10795,-0.0127 0.1651,-0.0127 0.24765,0 0.2794,0.05715 0.2794,0.33655 v 0.83185 c -0.19685,-0.10795 -0.4064,-0.1524 -0.61595,-0.1524 -0.8001,0 -1.4605,0.64135 -1.4605,1.6891 0,0.8128 0.3683,1.44145 1.08585,1.44145 0.4191,0 0.74295,-0.2413 0.98425,-0.4572 h 0.0254 v 0.43815 h 0.14605 z m -0.9779,-0.52705 c -0.22225,0.1524 -0.3937,0.23495 -0.69215,0.23495 -0.53975,0 -0.83185,-0.3556 -0.83185,-1.2319 0,-0.8001 0.36195,-1.18745 0.89535,-1.18745 0.3937,0 0.57785,0.24765 0.62865,0.508 z m 4.343401,-0.74295 v -0.41275 h -1.42875 v 0.41275 z m 4.375158,-0.8382 c 0.52705,-0.1397 0.9017,-0.3937 0.9017,-0.95885 0,-0.62865 -0.42545,-0.9906 -1.55575,-0.9906 h -1.7145 v 0.1905 c 0.51435,0 0.61595,0.06985 0.61595,0.57785 v 2.59715 c 0,0.52705 -0.1016,0.61595 -0.61595,0.61595 v 0.1905 h 1.9558 c 0.94615,0 1.51765,-0.40005 1.51765,-1.12395 0,-0.69215 -0.56515,-0.98425 -1.1049,-1.07315 z m -1.1684,0.1905 h 0.4445 c 0.59055,0 1.16205,0.19685 1.16205,0.92075 0,0.80645 -0.60325,0.8763 -1.14935,0.8763 -0.1524,0 -0.3048,-0.0063 -0.4572,-0.01905 z m 0,-0.2667 v -1.60655 c 0.127,-0.0127 0.26035,-0.01905 0.381,-0.01905 0.7747,0 1.06045,0.29845 1.06045,0.79375 0,0.57785 -0.2413,0.83185 -1.00965,0.83185 z m 4.451349,1.905 c 0.0381,0.2794 0.1016,0.42545 0.381,0.42545 0.32385,0 0.47625,-0.13335 0.6858,-0.43815 l -0.09525,-0.1016 c -0.0889,0.09525 -0.1778,0.15875 -0.29845,0.15875 -0.13335,0 -0.1905,-0.0508 -0.1905,-0.31115 v -1.44145 c 0,-0.6604 -0.26035,-0.9779 -0.9525,-0.9779 -0.69215,0 -1.1176,0.3429 -1.1176,0.6985 0,0.20955 0.1397,0.3048 0.2667,0.3048 0.1778,0 0.2794,-0.09525 0.2794,-0.2921 0,-0.381 0.0635,-0.51435 0.42545,-0.51435 0.381,0 0.5715,0.20955 0.5715,0.762 v 0.2794 c -0.5461,0.17145 -1.67005,0.33655 -1.67005,1.17475 0,0.4064 0.2667,0.7112 0.75565,0.7112 0.4064,0 0.635,-0.1778 0.93345,-0.43815 z m -0.04445,-0.1905 c -0.2159,0.1778 -0.4445,0.2794 -0.65405,0.2794 -0.27305,0 -0.4572,-0.19685 -0.4572,-0.51435 0,-0.4953 0.5334,-0.66675 1.11125,-0.8128 z m 2.787646,0.40005 c -0.4572,0 -0.48895,-0.0889 -0.48895,-0.4572 v -3.84175 h -0.15875 l -0.8382,0.22225 v 0.17145 c 0,0 0.09525,-0.0127 0.2032,-0.0127 0.15875,0 0.2667,0.0127 0.2667,0.27305 v 3.1877 c 0,0.3556 -0.0254,0.4572 -0.4445,0.4572 v 0.18415 h 1.4605 z m 1.778007,0.0063 c -0.42545,0 -0.4572,-0.09525 -0.4572,-0.46355 v -2.41935 h -0.1651 l -0.8001,0.1778 v 0.18415 c 0,0 0.06985,-0.0127 0.15875,-0.0127 0.18415,0 0.2794,0.0254 0.2794,0.29845 v 1.77165 c 0,0.36195 -0.01905,0.46355 -0.4445,0.46355 v 0.1778 h 1.42875 z m -0.7112,-4.09575 c -0.22225,0 -0.36195,0.1651 -0.36195,0.3556 0,0.19685 0.14605,0.36195 0.36195,0.36195 0.22225,0 0.36195,-0.1651 0.36195,-0.36195 0,-0.1905 -0.1397,-0.3556 -0.36195,-0.3556 z"
         id="path9" /></g></g></svg>
