<?xml version="1.0" encoding="UTF-8" standalone="no"?>
<!-- Created with Inkscape (http://www.inkscape.org/) -->

<svg
   width="59.602535mm"
   height="59.554649mm"
   viewBox="0 0 59.602535 59.554649"
   version="1.1"
   id="svg1"
   xml:space="preserve"
   xmlns="http://www.w3.org/2000/svg"
   xmlns:svg="http://www.w3.org/2000/svg"><defs
     id="defs1" /><g
     id="layer3"
     transform="translate(0,0.44259307)"><g
       id="text4"
       style="font-size:7.76111px;line-height:1;font-family:Audiowide;-inkscape-font-specification:Audiowide;text-align:end;letter-spacing:-0.127px;word-spacing:0px;text-anchor:end;stroke-width:0;stroke-linejoin:bevel"
       aria-label="Le torri&#10;di Slivia"><path
         style="font-family:Skia;-inkscape-font-specification:Skia;text-align:center;text-anchor:middle"
         d="m 21.980328,47.340157 q -0.04547,0 -0.48128,-0.0038 -0.432015,-0.0038 -1.106564,-0.0038 -0.443384,0 -0.845082,0.0038 -0.397909,0.0038 -0.67455,0.0038 0.0076,-0.651812 0.01137,-1.318782 0.0076,-0.67076 0.0076,-1.314993 0,-1.076248 -0.0076,-1.640899 -0.0076,-0.564651 -0.01137,-0.792027 h 0.625285 q -0.0076,0.488859 -0.01137,1.129302 -0.0038,0.640443 -0.0038,1.049721 0,0.996666 0.0038,1.663636 0.0038,0.66697 0.0038,0.704866 0.155374,0 0.375171,0.0038 0.219797,0 0.397908,0 0.678339,0 1.178567,-0.0038 0.504017,-0.0076 0.538124,-0.0076 z m 3.431438,-2.050176 h -2.739884 q 0.0038,0.401698 0.170533,0.738973 0.166742,0.333485 0.511596,0.553282 0.219797,0.140216 0.500228,0.212218 0.280431,0.06821 0.67455,0.06821 0.216007,0 0.394118,-0.01137 0.181901,-0.01137 0.223587,-0.01516 l -0.06821,0.504017 q -0.03032,0.0038 -0.200849,0.01137 -0.170532,0.01137 -0.401698,0.01137 -0.606337,0 -1.0573,-0.155374 -0.447173,-0.159163 -0.735183,-0.435805 -0.246324,-0.231165 -0.420646,-0.591178 -0.170532,-0.360012 -0.170532,-0.799606 0,-0.432015 0.128846,-0.780659 0.128847,-0.348643 0.38654,-0.648022 0.223587,-0.257693 0.553282,-0.397909 0.333486,-0.140215 0.689708,-0.140215 0.352434,0 0.625285,0.106109 0.272852,0.106109 0.473701,0.322116 0.223586,0.242535 0.341064,0.598758 0.117478,0.352433 0.121267,0.848871 z m -0.587388,-0.424436 q -0.06063,-0.46991 -0.322117,-0.735183 -0.257693,-0.269062 -0.682128,-0.269062 -0.424436,0 -0.708656,0.272852 -0.284221,0.269062 -0.394119,0.731393 z m 5.168924,2.01228 -0.06821,0.48128 q -0.02653,0.0038 -0.132636,0.0076 -0.10232,0.0038 -0.178112,0.0038 -0.776869,0 -1.174777,-0.322116 -0.397909,-0.325906 -0.397909,-0.996666 0,-0.420646 0.0038,-0.901926 0.0076,-0.48128 0.0076,-1.193726 h -0.636653 v -0.443383 h 0.67076 V 42.61452 h 0.549492 v 0.898137 h 1.356679 v 0.443383 h -1.356679 q 0,0.07958 -0.0076,0.473701 -0.0038,0.394119 -0.0038,0.583599 0,0.159163 0,0.390329 0,0.231166 0,0.549493 0,0.492649 0.265272,0.712446 0.265272,0.216007 0.818554,0.216007 0.06821,0 0.162953,0 0.09474,-0.0038 0.121268,-0.0038 z m 4.060513,-1.447628 q 0,0.439594 -0.159164,0.841292 -0.155374,0.401698 -0.450963,0.685918 -0.250114,0.238745 -0.557072,0.363802 -0.303168,0.125057 -0.689708,0.125057 -0.363802,0 -0.682128,-0.121267 -0.318327,-0.125057 -0.568441,-0.363802 -0.28801,-0.276641 -0.447173,-0.682129 -0.155374,-0.405488 -0.155374,-0.856451 0,-0.435804 0.132636,-0.799606 0.136426,-0.367592 0.420646,-0.659391 0.253904,-0.265273 0.591178,-0.405488 0.337275,-0.144005 0.712446,-0.144005 0.394119,0 0.712446,0.132636 0.322116,0.128847 0.57223,0.390329 0.28801,0.299379 0.428225,0.67455 0.140216,0.371381 0.140216,0.818555 z m -0.606337,0.02653 q 0,-0.356223 -0.117478,-0.693498 -0.113688,-0.337275 -0.356223,-0.568441 -0.147794,-0.144004 -0.352433,-0.219797 -0.200849,-0.07958 -0.420646,-0.07958 -0.261483,0 -0.454753,0.08337 -0.193269,0.08337 -0.363802,0.261483 -0.200849,0.204638 -0.318326,0.522965 -0.113688,0.318327 -0.113688,0.659391 0,0.38654 0.117477,0.712446 0.117478,0.322116 0.378961,0.557072 0.147794,0.132636 0.341064,0.204638 0.19327,0.06821 0.409277,0.06821 0.238745,0 0.443384,-0.08337 0.208428,-0.08337 0.363802,-0.242535 0.216008,-0.219797 0.329696,-0.530544 0.113688,-0.310748 0.113688,-0.651812 z m 3.647446,-1.496894 q -0.208428,0.04927 -0.640443,0.208428 -0.428225,0.159164 -0.989087,0.424436 0,0.04169 -0.0038,0.38275 -0.0038,0.337275 -0.0038,0.629074 0,0.447174 0.0076,1.06109 0.01137,0.613915 0.01137,0.682128 h -0.598757 q 0,-0.06442 0.0076,-0.424435 0.0076,-0.360013 0.0076,-1.231622 0,-0.352433 -0.0038,-0.985297 -0.0038,-0.632864 -0.01137,-1.193725 h 0.587388 v 0.57602 l 0.0038,0.0038 q 0.428225,-0.242535 0.845082,-0.420646 0.416856,-0.178111 0.66697,-0.242535 z m 2.764468,0 q -0.208429,0.04927 -0.640444,0.208428 -0.428225,0.159164 -0.989086,0.424436 0,0.04169 -0.0038,0.38275 -0.0038,0.337275 -0.0038,0.629074 0,0.447174 0.0076,1.06109 0.01137,0.613915 0.01137,0.682128 h -0.598758 q 0,-0.06442 0.0076,-0.424435 0.0076,-0.360013 0.0076,-1.231622 0,-0.352433 -0.0038,-0.985297 -0.0038,-0.632864 -0.01137,-1.193725 h 0.587389 v 0.57602 l 0.0038,0.0038 q 0.428226,-0.242535 0.845082,-0.420646 0.416857,-0.178111 0.66697,-0.242535 z m 1.2221,-1.182357 h -0.666971 v -0.651812 h 0.666971 z m -0.03411,4.570263 h -0.598757 q 0.0038,-0.06063 0.0076,-0.746552 0.0076,-0.685918 0.0076,-1.133091 0,-0.39033 -0.0038,-0.856451 0,-0.469911 -0.01137,-1.098985 h 0.598757 q -0.0076,0.545703 -0.01516,1.023193 -0.0038,0.4737 -0.0038,0.845082 0,0.882977 0.0076,1.417312 0.01137,0.534334 0.01137,0.549492 z"
         id="path5" /><path
         style="font-family:Skia;-inkscape-font-specification:Skia;text-align:center;text-anchor:middle"
         d="m 21.04619,55.298608 q -0.02274,0 -0.144005,0 -0.121267,0.0038 -0.193269,0.0038 -0.716236,0 -1.121723,-0.06442 -0.405488,-0.06063 -0.792028,-0.246324 -0.504017,-0.242535 -0.7655,-0.644233 -0.261482,-0.401698 -0.261482,-0.894346 0,-0.57602 0.291799,-1.019404 0.2918,-0.447173 0.841292,-0.697287 0.322117,-0.151584 0.738973,-0.227376 0.416857,-0.07958 0.818555,-0.07958 l -0.01137,-1.747008 h 0.598757 q 0,0.07579 -0.0076,1.061089 -0.0076,0.985298 -0.0076,1.997122 0,0.799607 0.0038,1.447629 0.0076,0.644233 0.01137,1.110354 z m -0.587388,-2.664092 q 0,-0.151584 0,-0.333485 0,-0.181901 0,-0.367592 -0.378961,0 -0.716236,0.06442 -0.333485,0.06442 -0.57223,0.174321 -0.37896,0.174322 -0.587388,0.500228 -0.208429,0.322116 -0.208429,0.757921 0,0.390329 0.200849,0.67076 0.200849,0.280431 0.500228,0.439594 0.261483,0.140215 0.587389,0.212218 0.329695,0.06821 0.689708,0.06821 0.02653,0 0.04927,0 0.02274,0 0.04926,0 0,-0.03411 0.0038,-0.564651 0.0038,-0.534334 0.0038,-1.621951 z m 2.427193,-1.966805 h -0.66697 v -0.651812 h 0.66697 z m -0.03411,4.570263 h -0.598758 q 0.0038,-0.06063 0.0076,-0.746552 0.0076,-0.685918 0.0076,-1.133091 0,-0.39033 -0.0038,-0.856451 0,-0.469911 -0.01137,-1.098985 h 0.598758 q -0.0076,0.545703 -0.01516,1.023193 -0.0038,0.4737 -0.0038,0.845082 0,0.882977 0.0076,1.417312 0.01137,0.534334 0.01137,0.549492 z m 5.650203,-1.428681 q 0,0.39033 -0.185691,0.685919 -0.181901,0.291799 -0.492648,0.4737 -0.28422,0.166743 -0.651812,0.253904 -0.367592,0.08337 -0.814765,0.08337 -0.242535,0 -0.504017,-0.01516 -0.257694,-0.01516 -0.299379,-0.01895 l -0.03032,-0.545703 q 0.05305,0.0076 0.295589,0.03032 0.242535,0.01895 0.57223,0.01895 0.200849,0 0.519176,-0.05306 0.318327,-0.05305 0.488859,-0.136426 0.223587,-0.109898 0.341065,-0.265272 0.121267,-0.155374 0.121267,-0.394119 0,-0.253903 -0.121267,-0.428225 -0.117478,-0.178112 -0.394119,-0.341065 -0.178112,-0.106108 -0.462332,-0.238745 -0.28422,-0.132636 -0.511597,-0.272851 -0.386539,-0.234956 -0.553282,-0.511597 -0.162953,-0.28043 -0.162953,-0.621495 0,-0.348643 0.147795,-0.602547 0.151584,-0.257693 0.390329,-0.439594 0.242535,-0.181901 0.591178,-0.272852 0.352433,-0.09095 0.780659,-0.09095 0.234955,0 0.4737,0.01516 0.242535,0.01137 0.276641,0.01516 l 0.05306,0.549492 q -0.03411,-0.0038 -0.276641,-0.02653 -0.242535,-0.02274 -0.598758,-0.02274 -0.212218,0 -0.439594,0.04926 -0.223586,0.04548 -0.394119,0.144005 -0.151584,0.08716 -0.257693,0.242535 -0.106109,0.155374 -0.106109,0.363802 0,0.185691 0.109899,0.360013 0.113688,0.170532 0.420646,0.352433 0.155374,0.09474 0.409277,0.219797 0.257693,0.121267 0.504018,0.265272 0.37896,0.223587 0.56844,0.515386 0.19327,0.28801 0.19327,0.659391 z m 1.60106,1.428681 h -0.598758 q 0.0038,-0.04548 0.0076,-1.106564 0.0076,-1.064879 0.0076,-1.765956 0,-0.450963 -0.0038,-1.136881 0,-0.689708 -0.01137,-1.546159 h 0.598758 q -0.0076,0.583599 -0.01137,1.352889 -0.0038,0.7655 -0.0038,1.292255 0,1.14825 0.0076,2.00849 0.0076,0.860241 0.0076,0.901926 z m 1.881491,-4.570263 h -0.666971 v -0.651812 h 0.666971 z m -0.03411,4.570263 h -0.598757 q 0.0038,-0.06063 0.0076,-0.746552 0.0076,-0.685918 0.0076,-1.133091 0,-0.39033 -0.0038,-0.856451 0,-0.469911 -0.01137,-1.098985 h 0.598757 q -0.0076,0.545703 -0.01516,1.023193 -0.0038,0.4737 -0.0038,0.845082 0,0.882977 0.0076,1.417312 0.01137,0.534334 0.01137,0.549492 z m 4.431895,-3.687285 q -0.496439,1.125513 -1.05351,2.387451 -0.553283,1.258149 -0.572231,1.299834 h -0.443383 q -0.01895,-0.04548 -0.553283,-1.231621 -0.534334,-1.186146 -1.087616,-2.417768 l 0.553282,-0.253903 1.333941,3.15674 h 0.0076 l 1.296045,-3.149161 z m 1.358523,-0.882978 h -0.66697 v -0.651812 h 0.66697 z m -0.03411,4.570263 H 37.10809 q 0.0038,-0.06063 0.0076,-0.746552 0.0076,-0.685918 0.0076,-1.133091 0,-0.39033 -0.0038,-0.856451 0,-0.469911 -0.01137,-1.098985 h 0.598758 q -0.0076,0.545703 -0.01516,1.023193 -0.0038,0.4737 -0.0038,0.845082 0,0.882977 0.0076,1.417312 0.01137,0.534334 0.01137,0.549492 z M 41.543775,53.0779 q 0,0.939822 -0.0038,1.531 -0.0038,0.591178 -0.0038,0.636654 -0.0379,0.0038 -0.352433,0.02653 -0.314538,0.02653 -0.810976,0.02653 -0.310747,0 -0.625284,-0.05684 -0.314538,-0.05684 -0.541914,-0.162953 -0.303168,-0.140215 -0.492648,-0.38275 -0.185691,-0.242535 -0.185691,-0.583599 0,-0.360013 0.219797,-0.621495 0.223587,-0.265273 0.617706,-0.428226 0.246324,-0.102319 0.655601,-0.181901 0.413067,-0.08337 0.939822,-0.125057 -0.02274,-0.295589 -0.147795,-0.485069 -0.125057,-0.18948 -0.367591,-0.28801 -0.166743,-0.06821 -0.371381,-0.09474 -0.204639,-0.03032 -0.477491,-0.03032 -0.170532,0 -0.291799,0.0076 -0.117478,0.0076 -0.322117,0.01895 l 0.06063,-0.504017 q 0.05684,-0.0038 0.223587,-0.01137 0.170532,-0.01137 0.462332,-0.01137 0.447173,0 0.795816,0.09474 0.352434,0.09095 0.5836,0.299378 0.216007,0.19706 0.325906,0.488859 0.109898,0.28801 0.109898,0.837503 z m -0.579809,0.913294 q 0,-0.128846 0,-0.325906 0,-0.197059 -0.0038,-0.454752 -0.166743,0.0076 -0.583599,0.06821 -0.416857,0.05684 -0.701077,0.166742 -0.212218,0.07958 -0.37896,0.238746 -0.162953,0.159163 -0.162953,0.394118 0,0.257693 0.140215,0.416857 0.140215,0.155374 0.38275,0.238745 0.185691,0.06442 0.409277,0.09474 0.227377,0.02653 0.47749,0.02653 0.07579,0 0.185691,-0.0038 0.109899,-0.0038 0.231166,-0.0076 0,-0.02653 0,-0.250113 0.0038,-0.223587 0.0038,-0.602548 z"
         id="path6" /></g><path
       style="fill:#000000;stroke-width:0;stroke-linejoin:bevel"
       d="M 18.810206,26.870096 13.720385,40.29542 29.801267,40.147888 25.522867,18.387062 29.727501,9.977794 27.514536,5.3305673 16.671006,4.0765534 9.8845784,6.2895183 11.581185,7.6910633 7.0077237,11.895697 3.3932135,35.500662 l 6.9339585,0.07377 4.499696,-6.565133 z"
       id="path1" /><path
       style="fill:#ffffff;stroke-width:0;stroke-linejoin:bevel"
       d="m 11.581185,16.174097 -1.032717,2.729324 c 0,0 1.254014,0.590124 1.991669,-0.66389 0.737655,-1.254013 -0.958952,-2.065434 -0.958952,-2.065434 z"
       id="path2" /><path
       style="fill:#000000;stroke-width:0;stroke-linejoin:bevel"
       d="m 40.945834,27.017627 5.160908,13.425324 -16.305475,-0.147532 4.338154,-21.760826 -4.263358,-8.409268 2.243873,-4.6472267 10.994975,-1.2540139 6.881211,2.2129649 -1.720303,1.401545 4.637337,4.2046337 3.664992,23.604965 -7.030802,0.07377 -4.56254,-6.565133 z"
       id="path3" /><path
       style="fill:#ffffff;stroke-width:0;stroke-linejoin:bevel"
       d="m 48.275819,16.174097 1.047141,2.729324 c 0,0 -1.271528,0.590124 -2.019486,-0.66389 -0.747957,-1.254013 0.972345,-2.065434 0.972345,-2.065434 z"
       id="path4" /></g></svg>
