<?xml version="1.0" encoding="UTF-8" standalone="no"?>
<!-- Created with Inkscape (http://www.inkscape.org/) -->

<svg
   width="79.213387mm"
   height="79.866974mm"
   viewBox="0 0 79.213387 79.866974"
   version="1.1"
   id="svg1"
   xml:space="preserve"
   xmlns="http://www.w3.org/2000/svg"
   xmlns:svg="http://www.w3.org/2000/svg"><defs
     id="defs1" /><g
     id="layer1"
     transform="translate(-2.3528728,-4.1828852)" /><g
     id="layer4"
     transform="translate(-2.3528728,-4.1828852)"><rect
       style="fill:none;stroke:none;stroke-width:0.707053;stroke-linecap:butt;stroke-linejoin:miter;stroke-dasharray:none;stroke-opacity:1;paint-order:fill markers stroke"
       id="rect7"
       width="79.213387"
       height="79.866974"
       x="2.3528728"
       y="4.1828852" /></g><g
     id="layer2"
     transform="matrix(1.5041517,0,0,1.5041517,-22.68097,-26.723221)"><circle
       style="fill:#000000;stroke-width:0.661458;stroke-linecap:round;stroke-linejoin:round;paint-order:fill markers stroke"
       id="path1"
       cx="25.68553"
       cy="43.818275"
       r="1.1110789" /><ellipse
       style="fill:#000000;stroke:#ffffff;stroke-width:0.514871;stroke-linecap:round;stroke-linejoin:round;stroke-dasharray:none;stroke-opacity:1;paint-order:fill markers stroke"
       id="path2"
       cx="25.652851"
       cy="43.887615"
       rx="2.655"
       ry="2.5893309" /><ellipse
       style="fill:none;stroke:#000000;stroke-width:0.891674;stroke-linecap:round;stroke-linejoin:round;stroke-dasharray:none;stroke-opacity:1;paint-order:fill markers stroke"
       id="ellipse2"
       cx="25.620173"
       cy="43.952976"
       rx="4.4600048"
       ry="4.6230869" /><path
       id="ellipse3"
       style="fill:none;stroke:#000000;stroke-width:1.44983;stroke-linecap:butt;stroke-linejoin:miter;stroke-opacity:1;paint-order:fill markers stroke"
       d="m 20.136652,39.257854 c -1.102874,1.297048 -1.769211,2.982938 -1.769211,4.825837 0,1.648749 0.533335,3.171829 1.435451,4.403229 m 1.011695,1.121478 c 1.300861,1.175939 3.019455,1.891106 4.903621,1.891106 1.87108,0 3.57888,-0.705267 4.876456,-1.866671 M 31.41,48.776797 c 1.036886,-1.278366 1.658976,-2.912445 1.658976,-4.693106 0,-1.877521 -0.691608,-3.592078 -1.831829,-4.898525 m -1.063708,-0.989034 c -1.252067,-0.99795 -2.735679,-1.528254 -4.455231,-1.528254 0,0 -2.810376,-0.13299 -4.607709,1.598986" /><path
       style="fill:#000000;stroke:#ffffff;stroke-width:0.661001;stroke-linecap:butt;stroke-linejoin:miter;stroke-dasharray:none;stroke-opacity:1;paint-order:fill markers stroke"
       d="m 33.789868,36.142742 c 0,0 0.784291,-0.784291 1.37251,-0.26143 0.588219,0.522859 2.352874,2.483588 4.052171,2.418231 1.699297,-0.06536 3.202522,-0.915006 3.202522,-0.915006 l 2.287513,0.980363 -0.06536,2.745018 c 0,0 -3.921453,2.483588 -4.3136,2.745018 -0.392144,0.261432 -0.06536,1.437867 0.130715,1.764654 0.196072,0.32679 1.503225,0.915006 1.895369,0.915006 0.392147,0 3.071807,-0.784289 3.529311,-1.176435 0,0 -0.392143,1.437867 -3.856094,2.679661 0,0 -0.874298,2.445171 -1.568582,3.52931 -0.516153,0.805984 -1.176437,1.045721 -1.89537,2.1568 -0.718934,1.111079 -3.071806,4.3136 -4.575031,5.228606 -1.503224,0.915006 -2.810376,0.130715 -2.810376,0.130715 l 0.392146,-2.548945 c 0,0 5.882182,-7.058619 6.4704,-7.712195 0.588218,-0.653576 1.111079,-0.980364 0.915006,-1.830012 -0.196072,-0.849649 -0.26143,-2.026085 -0.653575,-2.222158 -0.392146,-0.196073 -1.37251,-0.849648 -1.37251,-1.241794 0,-0.392145 0.653576,-0.588218 1.568582,-1.045721 0.915006,-0.457503 3.660025,-1.699297 3.856098,-2.679661 0.196072,-0.980364 -0.784291,-1.568582 -2.026085,-0.784291 -1.241794,0.784291 -1.960728,0.849648 -3.333237,0.26143 -1.372509,-0.588218 -3.660025,-1.503224 -3.856097,-1.89537 -0.196073,-0.392145 0.653574,-1.241794 0.653574,-1.241794 z"
       id="path3" /><path
       style="fill:#000000;stroke:none;stroke-width:0.661001;stroke-linecap:butt;stroke-linejoin:miter;stroke-dasharray:none;stroke-opacity:1;paint-order:fill markers stroke"
       d="m 38.560972,49.933193 c 0,0 -1.111078,3.856095 -3.137164,5.35932 -2.026084,1.503225 -2.745018,1.895369 -2.745018,1.895369 0,0 0.915006,-1.960726 1.568583,-2.875732 0.653576,-0.915006 4.313599,-4.378957 4.313599,-4.378957 z"
       id="path4" /><path
       style="fill:#000000;stroke:none;stroke-width:0.661001;stroke-linecap:butt;stroke-linejoin:miter;stroke-dasharray:none;stroke-opacity:1;paint-order:fill markers stroke"
       d="m 46.534596,40.783131 3.790741,-3.398594 c 0,0 3.00645,0.26143 3.202522,0.653574 0.196072,0.392147 2.156798,1.764654 1.568582,3.398594 -0.588219,1.63394 -4.444317,1.830014 -4.771104,1.830014 -0.326787,0 -1.699297,-0.522861 -2.287516,0.522859 -0.588217,1.045721 1.241795,2.679661 1.633939,2.810378 0.392147,0.130715 2.483589,0 3.594667,-0.718934 1.11108,-0.718934 1.764657,-0.718934 1.37251,-0.130715 -0.392144,0.588217 -2.091441,2.026084 -3.660024,2.222156 -1.568582,0.196073 -2.67966,-0.718933 -3.529309,-1.764654 -0.849648,-1.045721 -1.307152,-3.594666 -0.915008,-5.424678 z"
       id="path6" /><path
       style="fill:#00ffff;stroke:none;stroke-width:0.661001;stroke-linecap:butt;stroke-linejoin:miter;stroke-dasharray:none;stroke-opacity:1;paint-order:fill markers stroke"
       d="M 48.887469,41.63278 51.3057,39.214549 c 0,0 1.176438,-0.261432 1.045721,0.653576 -0.130715,0.915006 -0.849649,1.503222 -1.503222,1.895369 -0.653577,0.392145 -1.96073,-0.130714 -1.96073,-0.130714 z"
       id="path5" /><path
       style="fill:#000000;stroke:none;stroke-width:0.661001;stroke-linecap:butt;stroke-linejoin:miter;stroke-dasharray:none;stroke-opacity:1;paint-order:fill markers stroke"
       d="m 56.599663,46.338524 2.091444,-7.450765 c 0,0 0.457504,-0.588216 0.784291,-0.588216 0.326787,0 0.522862,1.176435 0.784291,1.241793 0.26143,0.06536 1.89537,-1.045721 2.287517,-0.915006 0.392144,0.130715 1.960726,0.915006 1.699297,2.352873 -0.261433,1.437868 -0.784292,4.117528 -0.653577,5.228606 0.130715,1.111078 1.176436,1.830012 0.26143,2.091444 -0.915006,0.261429 -1.830012,-1.176438 -2.026084,-2.156801 -0.196075,-0.980364 0.326787,-4.771105 0.06536,-5.163249 -0.261432,-0.392147 -1.503225,-0.392147 -1.960729,1.176436 -0.457502,1.568582 -1.830012,4.771104 -1.830012,4.771104 0,0 -1.30715,0.588219 -1.503225,-0.588219 z"
       id="path7" /></g></svg>
