<?xml version="1.0" encoding="UTF-8" standalone="no"?>
<!-- Created with Inkscape (http://www.inkscape.org/) -->

<svg
   width="78.512871mm"
   height="22.220541mm"
   viewBox="0 0 78.512871 22.220541"
   version="1.1"
   id="svg1"
   xml:space="preserve"
   xmlns="http://www.w3.org/2000/svg"
   xmlns:svg="http://www.w3.org/2000/svg"><defs
     id="defs1" /><g
     id="layer1"
     transform="translate(-38.681083,-19.296285)"><path
       style="fill:#000000;stroke-width:0;stroke-linecap:round;stroke-linejoin:round;paint-order:fill markers stroke"
       d="m 45.001868,30.905582 0.668138,-1.148208 m 0,0 5.314673,-9.133364 H 38.681083 v -1.327725 h 18.234104 l -6.057706,10.492254 m 0,0 -0.826438,1.431433 m 0.17703,-0.309803 -6.121921,10.606657 -5.216372,-0.05966 6.132088,-10.55158"
       id="path1" /><path
       style="fill:#000000;stroke-width:0;stroke-linecap:round;stroke-linejoin:round;paint-order:fill markers stroke"
       d="m 52.489435,30.803244 h 4.514268 l -0.33352,1.244713 h -3.649657 l -4.739302,8.208709 h 8.545449 V 41.42505 H 46.558924 Z"
       id="path2" /><path
       style="fill:#000000;stroke-width:0;stroke-linecap:round;stroke-linejoin:round;paint-order:fill markers stroke"
       d="m 58.154397,19.3848 v 19.119253 h 10.710326 v -3.894662 h -6.284572 v -3.629117 h 6.019025 v -3.629118 h -5.930508 v -3.894663 h 6.019024 v -4.160208 z"
       id="path3" /><path
       style="fill:#000000;stroke-width:0;stroke-linecap:round;stroke-linejoin:round;paint-order:fill markers stroke"
       d="M 69.307296,38.149993 V 19.73886 h 4.337238 l 7.789328,11.595474 V 19.650345 h 4.248722 V 38.504053 H 81.079802 L 74.040756,26.312069 v 12.10347 z"
       id="path4" /><path
       style="fill:#000000;stroke-width:0;stroke-linecap:round;stroke-linejoin:round;paint-order:fill markers stroke"
       d="M 86.12516,38.415539 V 19.473315 h 20.71253 v 7.435265 h 6.01902 v -7.612295 h 4.33724 v 19.473314 h -3.98318 v -8.054872 h -6.10754 v 7.877842 h -4.33724 V 23.190947 H 98.6943 V 38.061479 H 94.445576 V 23.367977 h -3.983178 v 15.224592 z"
       id="path5" /></g></svg>
